Chauncy_WeightMax.ufo
<glyph name="exclam" format="2">
  <advance width="263"/>
  <unicode hex="0021"/>
  <outline>
    <contour>
      <point x="76" y="715" type="curve" smooth="yes"/>
      <point x="157" y="733" type="line" smooth="yes"/>
      <point x="183" y="739"/>
      <point x="190" y="738.0"/>
      <point x="196" y="738" type="curve" smooth="yes"/>
      <point x="215" y="738.0"/>
      <point x="230.0" y="726"/>
      <point x="230" y="709" type="curve" smooth="yes"/>
      <point x="230.0" y="699"/>
      <point x="226" y="683"/>
      <point x="225" y="671" type="curve" smooth="yes"/>
      <point x="178" y="263" type="line" smooth="yes"/>
      <point x="175" y="235"/>
      <point x="163" y="220.0"/>
      <point x="139" y="220" type="curve" smooth="yes"/>
      <point x="115" y="220.0"/>
      <point x="104" y="234"/>
      <point x="100" y="265" type="curve" smooth="yes"/>
      <point x="49" y="637" type="line" smooth="yes"/>
      <point x="47" y="653"/>
      <point x="44.0" y="664"/>
      <point x="44" y="675" type="curve" smooth="yes"/>
      <point x="44.0" y="694"/>
      <point x="57" y="711"/>
    </contour>
    <component base="period" xOffset="-5"/>
  </outline>
</glyph>
<glyph name="numbersign" format="2">
  <advance width="623"/>
  <unicode hex="0023"/>
  <outline>
    <contour>
      <point x="193" y="320" type="curve" smooth="yes"/>
      <point x="167" y="128"/>
      <point x="123" y="96"/>
      <point x="125" y="38" type="curve" smooth="yes"/>
      <point x="126" y="5"/>
      <point x="150.11764705882354" y="-16.0"/>
      <point x="186" y="-16" type="curve" smooth="yes"/>
      <point x="210.88888888888889" y="-16.0"/>
      <point x="246" y="-5"/>
      <point x="250" y="36" type="curve" smooth="yes"/>
      <point x="255" y="90"/>
      <point x="229" y="128"/>
      <point x="254" y="320" type="curve" smooth="yes"/>
      <point x="279" y="509"/>
      <point x="321" y="544"/>
      <point x="319" y="602" type="curve" smooth="yes"/>
      <point x="318" y="635"/>
      <point x="294.8333333333333" y="655.0"/>
      <point x="261" y="655" type="curve" smooth="yes"/>
      <point x="224.74576271186442" y="655.0"/>
      <point x="196" y="640"/>
      <point x="192" y="600" type="curve" smooth="yes"/>
      <point x="186" y="537"/>
      <point x="220" y="523"/>
    </contour>
    <contour>
      <point x="374" y="320" type="curve" smooth="yes"/>
      <point x="352" y="129"/>
      <point x="304" y="96"/>
      <point x="306" y="38" type="curve" smooth="yes"/>
      <point x="307" y="5"/>
      <point x="333.5098039215686" y="-16.0"/>
      <point x="367" y="-16" type="curve" smooth="yes"/>
      <point x="393.0" y="-16.0"/>
      <point x="428" y="-5"/>
      <point x="432" y="36" type="curve" smooth="yes"/>
      <point x="437" y="90"/>
      <point x="412" y="128"/>
      <point x="436" y="320" type="curve" smooth="yes"/>
      <point x="460" y="509"/>
      <point x="503" y="544"/>
      <point x="501" y="602" type="curve" smooth="yes"/>
      <point x="500" y="635"/>
      <point x="476.74468085106383" y="655.0"/>
      <point x="444" y="655" type="curve" smooth="yes"/>
      <point x="404.2372881355932" y="655.0"/>
      <point x="380" y="640"/>
      <point x="375" y="600" type="curve" smooth="yes"/>
      <point x="367" y="539"/>
      <point x="397" y="524"/>
    </contour>
    <contour>
      <point x="316" y="376" type="curve" smooth="yes"/>
      <point x="455.4878048780488" y="376.0"/>
      <point x="482.7560975609756" y="344.0"/>
      <point x="531" y="344" type="curve" smooth="yes"/>
      <point x="579" y="344"/>
      <point x="601.0" y="377"/>
      <point x="601" y="408" type="curve" smooth="yes"/>
      <point x="601.0" y="438"/>
      <point x="580" y="466"/>
      <point x="536" y="466" type="curve" smooth="yes"/>
      <point x="488.8571428571429" y="466.0"/>
      <point x="458.4761904761905" y="436.0"/>
      <point x="316" y="436" type="curve" smooth="yes"/>
      <point x="178.578431372549" y="436.0"/>
      <point x="150.2549019607843" y="467.0"/>
      <point x="102" y="467" type="curve" smooth="yes"/>
      <point x="54" y="467"/>
      <point x="34.0" y="440"/>
      <point x="34" y="409" type="curve" smooth="yes"/>
      <point x="34.0" y="373"/>
      <point x="55" y="347"/>
      <point x="103" y="346" type="curve" smooth="yes"/>
      <point x="150.2156802902372" y="344.9507626602169"/>
      <point x="178.54679802955664" y="376.0"/>
    </contour>
    <contour>
      <point x="304" y="201" type="curve" smooth="yes"/>
      <point x="443.4878048780488" y="201.0"/>
      <point x="469.7073170731707" y="172.0"/>
      <point x="519" y="172" type="curve" smooth="yes"/>
      <point x="567" y="172"/>
      <point x="588.0" y="203"/>
      <point x="588" y="236" type="curve" smooth="yes"/>
      <point x="588.0" y="264"/>
      <point x="568" y="294"/>
      <point x="522" y="294" type="curve" smooth="yes"/>
      <point x="476.9326923076923" y="294.0"/>
      <point x="446.53846153846155" y="262.0"/>
      <point x="304" y="262" type="curve" smooth="yes"/>
      <point x="166.60975609756096" y="262.0"/>
      <point x="137.2439024390244" y="295.0"/>
      <point x="89" y="295" type="curve" smooth="yes"/>
      <point x="42" y="295"/>
      <point x="22.0" y="266.0"/>
      <point x="22" y="237" type="curve" smooth="yes"/>
      <point x="22.0" y="199"/>
      <point x="43" y="175"/>
      <point x="90" y="174" type="curve" smooth="yes"/>
      <point x="137.2048189929657" y="172.95100402237853"/>
      <point x="165.52941176470588" y="201.0"/>
    </contour>
  </outline>
</glyph>
<glyph name="ampersand" format="2">
  <advance width="660"/>
  <unicode hex="0026"/>
  <outline>
    <contour>
      <point x="275" y="633.0" type="curve" smooth="yes"/>
      <point x="219.0" y="633.0"/>
      <point x="182.0" y="586.7142857142858"/>
      <point x="182" y="525" type="curve" smooth="yes"/>
      <point x="182.0" y="458.3030303030303"/>
      <point x="212.6716908050603" y="403.8311677564395"/>
      <point x="261" y="383" type="curve" smooth="yes"/>
      <point x="323" y="357"/>
      <point x="355" y="334"/>
      <point x="400" y="279" type="curve" smooth="yes"/>
      <point x="554" y="95" type="line" smooth="yes"/>
      <point x="574" y="71"/>
      <point x="592" y="50"/>
      <point x="625" y="44" type="curve" smooth="yes"/>
      <point x="648" y="39"/>
      <point x="657" y="34"/>
      <point x="657" y="20" type="curve" smooth="yes"/>
      <point x="657" y="6"/>
      <point x="646" y="-1"/>
      <point x="626" y="-1" type="curve" smooth="yes"/>
      <point x="550" y="-1" type="line" smooth="yes"/>
      <point x="518" y="-1"/>
      <point x="498" y="10"/>
      <point x="480" y="34" type="curve" smooth="yes"/>
      <point x="319" y="230" type="line" smooth="yes"/>
      <point x="280" y="278"/>
      <point x="254" y="301"/>
      <point x="201" y="324" type="curve" smooth="yes"/>
      <point x="137.02429743545324" y="349.9360956342757"/>
      <point x="96.0" y="412.3205128205128"/>
      <point x="96" y="490" type="curve" smooth="yes"/>
      <point x="96.0" y="593.4102564102564"/>
      <point x="184.79601990049753" y="675.0"/>
      <point x="290" y="675" type="curve" smooth="yes"/>
      <point x="392.3974358974359" y="675.0"/>
      <point x="453.0" y="616.7785714285715"/>
      <point x="453" y="532" type="curve" smooth="yes"/>
      <point x="453.0" y="446.3523316062176"/>
      <point x="400.3885951681663" y="388.1706823807602"/>
      <point x="284" y="342" type="curve"/>
      <point x="261" y="363" type="line"/>
      <point x="335.3451365879512" y="404.0854702196572"/>
      <point x="367.0" y="449.0"/>
      <point x="367" y="516" type="curve" smooth="yes"/>
      <point x="367.0" y="589.7837837837837"/>
      <point x="321.0" y="633.0"/>
    </contour>
    <contour>
      <point x="242" y="323" type="line"/>
      <point x="179" y="320"/>
      <point x="119" y="257"/>
      <point x="119" y="190" type="curve" smooth="yes"/>
      <point x="119" y="109"/>
      <point x="187" y="58"/>
      <point x="299" y="58" type="curve" smooth="yes"/>
      <point x="353" y="58"/>
      <point x="403" y="81"/>
      <point x="432" y="124" type="curve"/>
      <point x="458" y="99" type="line"/>
      <point x="390" y="15"/>
      <point x="323" y="-15"/>
      <point x="230" y="-15" type="curve" smooth="yes"/>
      <point x="103" y="-15"/>
      <point x="34" y="65"/>
      <point x="34" y="159" type="curve" smooth="yes"/>
      <point x="34" y="261"/>
      <point x="126" y="342"/>
      <point x="242" y="342" type="curve"/>
    </contour>
    <contour>
      <point x="470" y="178" type="line"/>
      <point x="515" y="255" type="line" smooth="yes"/>
      <point x="523" y="270"/>
      <point x="529" y="280"/>
      <point x="529" y="295" type="curve" smooth="yes"/>
      <point x="529" y="309"/>
      <point x="522" y="313"/>
      <point x="509" y="320" type="curve" smooth="yes"/>
      <point x="493" y="328" type="line" smooth="yes"/>
      <point x="475" y="337"/>
      <point x="467" y="339"/>
      <point x="467" y="352" type="curve" smooth="yes"/>
      <point x="467.0" y="366.0"/>
      <point x="477" y="369"/>
      <point x="494" y="369" type="curve" smooth="yes"/>
      <point x="636" y="369" type="line" smooth="yes"/>
      <point x="650" y="369"/>
      <point x="661" y="363"/>
      <point x="661" y="350" type="curve" smooth="yes"/>
      <point x="661" y="340"/>
      <point x="649" y="336"/>
      <point x="635" y="330" type="curve" smooth="yes"/>
      <point x="608" y="319"/>
      <point x="590" y="299"/>
      <point x="571" y="270" type="curve" smooth="yes"/>
      <point x="497" y="152" type="line"/>
    </contour>
  </outline>
</glyph>
<glyph name="parenleft" format="2">
  <advance width="395"/>
  <unicode hex="0028"/>
  <outline>
    <contour>
      <point x="51" y="290" type="curve" smooth="yes"/>
      <point x="51" y="54"/>
      <point x="176" y="-114"/>
      <point x="313" y="-162" type="curve" smooth="yes"/>
      <point x="331" y="-168"/>
      <point x="349" y="-170"/>
      <point x="359" y="-170" type="curve" smooth="yes"/>
      <point x="374" y="-170"/>
      <point x="384" y="-158"/>
      <point x="384" y="-142" type="curve" smooth="yes"/>
      <point x="384" y="-132"/>
      <point x="379" y="-123"/>
      <point x="362" y="-115" type="curve" smooth="yes"/>
      <point x="262" y="-69"/>
      <point x="199" y="80"/>
      <point x="199" y="290" type="curve" smooth="yes"/>
      <point x="199" y="499"/>
      <point x="263" y="649"/>
      <point x="362" y="695" type="curve" smooth="yes"/>
      <point x="379" y="703"/>
      <point x="384" y="713"/>
      <point x="384" y="725" type="curve" smooth="yes"/>
      <point x="384" y="738"/>
      <point x="374" y="751"/>
      <point x="360" y="751" type="curve" smooth="yes"/>
      <point x="350" y="751"/>
      <point x="338" y="746"/>
      <point x="316" y="738" type="curve" smooth="yes"/>
      <point x="167" y="680"/>
      <point x="51" y="502"/>
    </contour>
  </outline>
</glyph>
<glyph name="asterisk" format="2">
  <advance width="506"/>
  <unicode hex="002A"/>
  <outline>
    <contour>
      <point x="276" y="516" type="line"/>
      <point x="276.0" y="590.0"/>
      <point x="323.0" y="611.0"/>
      <point x="323" y="664" type="curve" smooth="yes"/>
      <point x="323.0" y="714"/>
      <point x="289.0" y="737.0"/>
      <point x="254" y="737" type="curve" smooth="yes"/>
      <point x="220.0" y="737.0"/>
      <point x="186" y="714"/>
      <point x="185" y="668" type="curve" smooth="yes"/>
      <point x="184" y="615"/>
      <point x="232.0" y="593.0"/>
      <point x="232" y="516" type="curve"/>
    </contour>
    <contour>
      <point x="261" y="537" type="line"/>
      <point x="190" y="560"/>
      <point x="185" y="611"/>
      <point x="135" y="627" type="curve" smooth="yes"/>
      <point x="87" y="643"/>
      <point x="55" y="618"/>
      <point x="44" y="584" type="curve" smooth="yes"/>
      <point x="33" y="552"/>
      <point x="45" y="513"/>
      <point x="88" y="497" type="curve" smooth="yes"/>
      <point x="138" y="480"/>
      <point x="174" y="519"/>
      <point x="247" y="495" type="curve"/>
    </contour>
    <contour>
      <point x="236" y="529" type="line"/>
      <point x="193" y="469"/>
      <point x="142" y="480"/>
      <point x="111" y="437" type="curve" smooth="yes"/>
      <point x="82" y="396"/>
      <point x="96" y="358"/>
      <point x="124" y="337" type="curve" smooth="yes"/>
      <point x="152" y="317"/>
      <point x="193" y="316"/>
      <point x="220" y="352" type="curve" smooth="yes"/>
      <point x="252" y="395"/>
      <point x="227" y="441"/>
      <point x="272" y="503" type="curve"/>
    </contour>
    <contour>
      <point x="236" y="503" type="line"/>
      <point x="280" y="443"/>
      <point x="254" y="399"/>
      <point x="285" y="356" type="curve" smooth="yes"/>
      <point x="315" y="315"/>
      <point x="356" y="317"/>
      <point x="384" y="337" type="curve" smooth="yes"/>
      <point x="411" y="357"/>
      <point x="425" y="396"/>
      <point x="399" y="434" type="curve" smooth="yes"/>
      <point x="369" y="477"/>
      <point x="317" y="467"/>
      <point x="272" y="529" type="curve"/>
    </contour>
    <contour>
      <point x="261" y="495" type="line"/>
      <point x="331" y="518"/>
      <point x="366" y="480"/>
      <point x="416" y="496" type="curve" smooth="yes"/>
      <point x="464" y="512"/>
      <point x="475" y="551"/>
      <point x="464" y="584" type="curve" smooth="yes"/>
      <point x="454" y="617"/>
      <point x="421" y="642"/>
      <point x="377" y="629" type="curve" smooth="yes"/>
      <point x="327" y="613"/>
      <point x="320" y="561"/>
      <point x="247" y="537" type="curve"/>
    </contour>
  </outline>
</glyph>
<glyph name="plus" format="2">
  <advance width="498"/>
  <unicode hex="002B"/>
  <outline>
    <contour>
      <point x="30" y="303" type="curve" smooth="yes"/>
      <point x="30.0" y="273.75"/>
      <point x="56.44444444444444" y="251.0"/>
      <point x="86" y="251" type="curve" smooth="yes"/>
      <point x="143.11827956989248" y="251.0"/>
      <point x="210.0" y="265.0"/>
      <point x="252" y="265" type="curve" smooth="yes"/>
      <point x="295.0" y="265.0"/>
      <point x="358.6666666666667" y="251.0"/>
      <point x="412" y="251" type="curve" smooth="yes"/>
      <point x="446.22222222222223" y="251.0"/>
      <point x="468.0" y="273.75"/>
      <point x="468" y="303" type="curve" smooth="yes"/>
      <point x="468.0" y="333.1764705882353"/>
      <point x="444.6666666666667" y="357.0"/>
      <point x="412" y="357" type="curve" smooth="yes"/>
      <point x="358.6666666666667" y="357.0"/>
      <point x="295.0" y="343.0"/>
      <point x="252" y="343" type="curve" smooth="yes"/>
      <point x="203.0" y="343.0"/>
      <point x="143.1891891891892" y="357.0"/>
      <point x="87" y="357" type="curve" smooth="yes"/>
      <point x="59.270270270270274" y="357.0"/>
      <point x="30.0" y="333.1764705882353"/>
    </contour>
    <contour>
      <point x="253" y="83" type="curve" smooth="yes"/>
      <point x="282.25" y="83.0"/>
      <point x="305.0" y="109.44444444444444"/>
      <point x="305" y="139" type="curve" smooth="yes"/>
      <point x="305.0" y="196.11827956989248"/>
      <point x="291.0" y="263.0"/>
      <point x="291" y="305" type="curve" smooth="yes"/>
      <point x="291.0" y="348.0"/>
      <point x="305.0" y="411.6666666666667"/>
      <point x="305" y="465" type="curve" smooth="yes"/>
      <point x="305.0" y="499.22222222222223"/>
      <point x="282.25" y="521.0"/>
      <point x="253" y="521" type="curve" smooth="yes"/>
      <point x="222.8235294117647" y="521.0"/>
      <point x="199.0" y="497.6666666666667"/>
      <point x="199" y="465" type="curve" smooth="yes"/>
      <point x="199.0" y="411.6666666666667"/>
      <point x="213.0" y="348.0"/>
      <point x="213" y="305" type="curve" smooth="yes"/>
      <point x="213.0" y="256.0"/>
      <point x="199.0" y="196.1891891891892"/>
      <point x="199" y="140" type="curve" smooth="yes"/>
      <point x="199.0" y="112.27027027027027"/>
      <point x="222.8235294117647" y="83.0"/>
    </contour>
  </outline>
</glyph>
<glyph name="comma" format="2">
  <advance width="297"/>
  <unicode hex="002C"/>
  <outline>
    <contour>
      <point x="112" y="2" type="curve" smooth="yes"/>
      <point x="132" y="-7" type="line" smooth="yes"/>
      <point x="156" y="-18"/>
      <point x="167" y="-35"/>
      <point x="167" y="-67" type="curve" smooth="yes"/>
      <point x="167" y="-112"/>
      <point x="137" y="-145"/>
      <point x="83" y="-158" type="curve" smooth="yes"/>
      <point x="56" y="-164"/>
      <point x="48" y="-177"/>
      <point x="48" y="-194" type="curve" smooth="yes"/>
      <point x="48" y="-214"/>
      <point x="62" y="-229"/>
      <point x="88" y="-229" type="curve" smooth="yes"/>
      <point x="170" y="-229"/>
      <point x="258" y="-142"/>
      <point x="258" y="-5" type="curve" smooth="yes"/>
      <point x="258" y="111"/>
      <point x="200" y="169"/>
      <point x="131" y="169" type="curve" smooth="yes"/>
      <point x="82" y="169"/>
      <point x="43" y="135"/>
      <point x="43" y="92" type="curve" smooth="yes"/>
      <point x="43" y="50"/>
      <point x="70" y="21"/>
    </contour>
  </outline>
</glyph>
<glyph name="hyphen" format="2">
  <advance width="411"/>
  <unicode hex="002D"/>
  <outline>
    <contour>
      <point x="345" y="299" type="curve" smooth="yes"/>
      <point x="100" y="299" type="line" smooth="yes"/>
      <point x="77" y="299"/>
      <point x="61" y="292"/>
      <point x="47" y="262" type="curve" smooth="yes"/>
      <point x="39" y="245" type="line" smooth="yes"/>
      <point x="33" y="233"/>
      <point x="30" y="221"/>
      <point x="30" y="214" type="curve" smooth="yes"/>
      <point x="30" y="197"/>
      <point x="38" y="187"/>
      <point x="62" y="187" type="curve" smooth="yes"/>
      <point x="307" y="187" type="line" smooth="yes"/>
      <point x="337.0" y="187.0"/>
      <point x="354" y="198"/>
      <point x="365" y="223" type="curve" smooth="yes"/>
      <point x="374" y="244" type="line" smooth="yes"/>
      <point x="379" y="256"/>
      <point x="381" y="265"/>
      <point x="381" y="273" type="curve" smooth="yes"/>
      <point x="381" y="290"/>
      <point x="364.0" y="299.0"/>
    </contour>
  </outline>
</glyph>
<glyph name="zero" format="2">
  <advance width="623"/>
  <unicode hex="0030"/>
  <outline>
    <contour>
      <point x="308" y="665" type="curve" smooth="yes"/>
      <point x="136" y="665"/>
      <point x="25" y="537"/>
      <point x="25" y="336" type="curve" smooth="yes"/>
      <point x="25" y="110"/>
      <point x="128" y="-15"/>
      <point x="308" y="-15" type="curve" smooth="yes"/>
      <point x="475" y="-15"/>
      <point x="598" y="107"/>
      <point x="598" y="336" type="curve" smooth="yes"/>
      <point x="598" y="540"/>
      <point x="482" y="665"/>
    </contour>
    <contour>
      <point x="375" y="594"/>
      <point x="421" y="501"/>
      <point x="421" y="295" type="curve" smooth="yes"/>
      <point x="421" y="120"/>
      <point x="379" y="56"/>
      <point x="323" y="56" type="curve" smooth="yes"/>
      <point x="243" y="56"/>
      <point x="200" y="148"/>
      <point x="200" y="370" type="curve" smooth="yes"/>
      <point x="200" y="514"/>
      <point x="233" y="594"/>
      <point x="296" y="594" type="curve" smooth="yes"/>
    </contour>
  </outline>
</glyph>
<glyph name="two" format="2">
  <advance width="545"/>
  <unicode hex="0032"/>
  <outline>
    <contour>
      <point x="188" y="270" type="curve" smooth="yes"/>
      <point x="69.02185377622429" y="190.6812358508162"/>
      <point x="18.0" y="117.0"/>
      <point x="18" y="40" type="curve" smooth="yes"/>
      <point x="18" y="5"/>
      <point x="37" y="-15"/>
      <point x="72" y="-15" type="curve" smooth="yes"/>
      <point x="142.46464646464648" y="-15.0"/>
      <point x="119.54255319148936" y="62.0"/>
      <point x="181" y="62" type="curve" smooth="yes"/>
      <point x="238.54679802955664" y="62.0"/>
      <point x="279.4590163934426" y="-15.0"/>
      <point x="379" y="-15" type="curve" smooth="yes"/>
      <point x="477.42424242424244" y="-15.0"/>
      <point x="524.0" y="55.72774869109948"/>
      <point x="524" y="156" type="curve" smooth="yes"/>
      <point x="524.0" y="186.8108108108108"/>
      <point x="514.0" y="213.0"/>
      <point x="490" y="213" type="curve" smooth="yes"/>
      <point x="476.8" y="213.0"/>
      <point x="463.9669809479725" y="204.8915088290525"/>
      <point x="457" y="182" type="curve" smooth="yes"/>
      <point x="444.9708279685186" y="139.89789788981508"/>
      <point x="428.1111111111111" y="127.0"/>
      <point x="392" y="127" type="curve" smooth="yes"/>
      <point x="339.0" y="127.0"/>
      <point x="284.0" y="171.0"/>
      <point x="218" y="171" type="curve" smooth="yes"/>
      <point x="139.14285714285714" y="171.0"/>
      <point x="103.0" y="124.0"/>
      <point x="103" y="77" type="curve"/>
      <point x="114" y="78" type="line"/>
      <point x="114.0" y="140.0"/>
      <point x="170.17753394895414" y="176.30178402512507"/>
      <point x="299" y="236" type="curve" smooth="yes"/>
      <point x="430.8577525936752" y="297.933186824302"/>
      <point x="497.0" y="373"/>
      <point x="497" y="483" type="curve" smooth="yes"/>
      <point x="497.0" y="587"/>
      <point x="412" y="664"/>
      <point x="273" y="664" type="curve" smooth="yes"/>
      <point x="122.0" y="664.0"/>
      <point x="32" y="575.0"/>
      <point x="32" y="487" type="curve" smooth="yes"/>
      <point x="32" y="431"/>
      <point x="61.46913580246914" y="398.0"/>
      <point x="109" y="398" type="curve" smooth="yes"/>
      <point x="156.14285714285714" y="398.0"/>
      <point x="197" y="434.0"/>
      <point x="197" y="490" type="curve" smooth="yes"/>
      <point x="197" y="520" type="line" smooth="yes"/>
      <point x="197" y="566.3103448275862"/>
      <point x="215.41666666666666" y="599.0"/>
      <point x="262" y="599" type="curve" smooth="yes"/>
      <point x="299.2972972972973" y="599.0"/>
      <point x="331.0" y="558.0"/>
      <point x="331" y="480" type="curve" smooth="yes"/>
      <point x="331.0" y="398.0"/>
      <point x="295" y="341"/>
    </contour>
  </outline>
</glyph>
<glyph name="three" format="2">
  <advance width="526"/>
  <unicode hex="0033"/>
  <outline>
    <contour>
      <point x="270" y="340" type="line"/>
      <point x="473" y="552" type="line" smooth="yes"/>
      <point x="492" y="571"/>
      <point x="498.0" y="591"/>
      <point x="498" y="605" type="curve" smooth="yes"/>
      <point x="498.0" y="631"/>
      <point x="478.0" y="649.0"/>
      <point x="446" y="649.0" type="curve" smooth="yes"/>
      <point x="127" y="649" type="line" smooth="yes"/>
      <point x="86" y="649"/>
      <point x="60.858271795493216" y="626.0134343663692"/>
      <point x="58" y="592" type="curve" smooth="yes"/>
      <point x="48" y="473" type="line" smooth="yes"/>
      <point x="46.14914726866712" y="450.9748524971387"/>
      <point x="60.774193548387096" y="440.0"/>
      <point x="81" y="440" type="curve" smooth="yes"/>
      <point x="100.06976744186046" y="440.0"/>
      <point x="112.9503708407733" y="454.59754714890164"/>
      <point x="122" y="471" type="curve" smooth="yes"/>
      <point x="138" y="500" type="line" smooth="yes"/>
      <point x="152.4130872195761" y="526.1237205854817"/>
      <point x="174" y="535"/>
      <point x="208" y="535" type="curve" smooth="yes"/>
      <point x="413" y="535" type="line"/>
      <point x="397" y="585" type="line"/>
      <point x="190" y="369" type="line" smooth="yes"/>
      <point x="177" y="356"/>
      <point x="167.0" y="341.0"/>
      <point x="167" y="324" type="curve" smooth="yes"/>
      <point x="167.0" y="305.0"/>
      <point x="184" y="292"/>
      <point x="206" y="292" type="curve" smooth="yes"/>
      <point x="242" y="292" type="line" smooth="yes"/>
      <point x="306.0353982300885" y="292"/>
      <point x="350.0" y="251.70149253731344"/>
      <point x="350" y="172" type="curve" smooth="yes"/>
      <point x="350.0" y="98.65137614678899"/>
      <point x="316.04905804014476" y="49.94325111615663"/>
      <point x="267" y="49" type="curve" smooth="yes"/>
      <point x="222" y="48"/>
      <point x="192" y="82"/>
      <point x="192" y="125" type="curve" smooth="yes"/>
      <point x="192" y="159" type="line" smooth="yes"/>
      <point x="192" y="203"/>
      <point x="157" y="234"/>
      <point x="114" y="234" type="curve" smooth="yes"/>
      <point x="69.0" y="234.0"/>
      <point x="31.0" y="195.8181818181818"/>
      <point x="31" y="144" type="curve" smooth="yes"/>
      <point x="31.0" y="56.019999999999996"/>
      <point x="113.0" y="-15.0"/>
      <point x="258" y="-15" type="curve" smooth="yes"/>
      <point x="394.0" y="-15.0"/>
      <point x="500.0" y="66.42857142857142"/>
      <point x="500" y="195" type="curve" smooth="yes"/>
      <point x="500.0" y="310.4891304347826"/>
      <point x="407.0" y="365.0"/>
      <point x="262" y="365" type="curve" smooth="yes"/>
      <point x="259" y="365"/>
      <point x="243" y="365"/>
      <point x="239" y="365" type="curve"/>
    </contour>
  </outline>
</glyph>
<glyph name="four" format="2">
  <advance width="557"/>
  <unicode hex="0034"/>
  <outline>
    <contour>
      <point x="299" y="364"/>
      <point x="291" y="348"/>
      <point x="291" y="323" type="curve" smooth="yes"/>
      <point x="292" y="131" type="line" smooth="yes"/>
      <point x="292" y="102"/>
      <point x="279" y="89"/>
      <point x="253" y="82" type="curve" smooth="yes"/>
      <point x="226" y="74" type="line" smooth="yes"/>
      <point x="195" y="66"/>
      <point x="176" y="60"/>
      <point x="176" y="35" type="curve" smooth="yes"/>
      <point x="176" y="10"/>
      <point x="189" y="0"/>
      <point x="219" y="0" type="curve" smooth="yes"/>
      <point x="499" y="0" type="line" smooth="yes"/>
      <point x="528.0" y="0.0"/>
      <point x="542" y="10"/>
      <point x="542" y="35" type="curve" smooth="yes"/>
      <point x="542" y="60"/>
      <point x="526" y="73"/>
      <point x="501" y="77" type="curve" smooth="yes"/>
      <point x="481" y="80" type="line" smooth="yes"/>
      <point x="455" y="84"/>
      <point x="442" y="99"/>
      <point x="442" y="128" type="curve" smooth="yes"/>
      <point x="441" y="423" type="line" smooth="yes"/>
      <point x="441" y="449"/>
      <point x="429" y="460"/>
      <point x="412" y="460" type="curve" smooth="yes"/>
      <point x="398.0" y="460.0"/>
      <point x="384" y="456"/>
      <point x="366" y="436" type="curve" smooth="yes"/>
      <point x="315" y="381" type="line" smooth="yes"/>
    </contour>
    <contour>
      <point x="162" y="394" type="curve" smooth="yes"/>
      <point x="53" y="277" type="line" smooth="yes"/>
      <point x="28" y="250"/>
      <point x="12" y="225"/>
      <point x="12" y="205" type="curve" smooth="yes"/>
      <point x="12" y="174"/>
      <point x="31" y="156"/>
      <point x="65" y="156" type="curve" smooth="yes"/>
      <point x="496" y="156" type="line" smooth="yes"/>
      <point x="530.0" y="156.0"/>
      <point x="546.0" y="169.0"/>
      <point x="545" y="200" type="curve" smooth="yes"/>
      <point x="543.1610857436848" y="222.98642820393954"/>
      <point x="523.0" y="234"/>
      <point x="496" y="234" type="curve" smooth="yes"/>
      <point x="85" y="234" type="line"/>
      <point x="87" y="207" type="line"/>
      <point x="285" y="422" type="line" smooth="yes"/>
      <point x="352" y="495"/>
      <point x="379" y="534"/>
      <point x="379" y="573" type="curve" smooth="yes"/>
      <point x="379.0" y="626.7528089887641"/>
      <point x="339.0" y="665.0"/>
      <point x="286" y="665" type="curve" smooth="yes"/>
      <point x="221.0" y="665.0"/>
      <point x="182.0" y="618.5326086956521"/>
      <point x="182" y="570" type="curve" smooth="yes"/>
      <point x="182" y="532"/>
      <point x="211" y="520"/>
      <point x="211" y="485" type="curve" smooth="yes"/>
      <point x="211" y="459"/>
      <point x="194" y="428"/>
    </contour>
  </outline>
</glyph>
<glyph name="five" format="2">
  <advance width="540"/>
  <unicode hex="0035"/>
  <outline>
    <contour>
      <point x="34" y="131" type="curve" smooth="yes"/>
      <point x="34" y="49"/>
      <point x="117" y="-15"/>
      <point x="235" y="-15" type="curve" smooth="yes"/>
      <point x="389" y="-15"/>
      <point x="507" y="77"/>
      <point x="507" y="216" type="curve" smooth="yes"/>
      <point x="507" y="331"/>
      <point x="417" y="409"/>
      <point x="283" y="409" type="curve" smooth="yes"/>
      <point x="209" y="409"/>
      <point x="143" y="386"/>
      <point x="103" y="326" type="curve"/>
      <point x="153" y="336" type="line"/>
      <point x="153" y="587" type="line"/>
      <point x="103" y="515" type="line"/>
      <point x="124" y="504"/>
      <point x="189" y="493"/>
      <point x="270" y="493" type="curve" smooth="yes"/>
      <point x="424" y="493"/>
      <point x="512" y="561"/>
      <point x="512" y="631" type="curve" smooth="yes"/>
      <point x="512" y="654"/>
      <point x="500" y="664"/>
      <point x="482" y="664" type="curve" smooth="yes"/>
      <point x="464" y="664"/>
      <point x="424" y="644"/>
      <point x="359" y="644" type="curve" smooth="yes"/>
      <point x="292" y="644"/>
      <point x="193" y="663"/>
      <point x="145" y="663" type="curve" smooth="yes"/>
      <point x="95" y="663"/>
      <point x="73" y="635"/>
      <point x="73" y="590" type="curve" smooth="yes"/>
      <point x="73" y="315" type="line" smooth="yes"/>
      <point x="73" y="292"/>
      <point x="93" y="272"/>
      <point x="115" y="272" type="curve" smooth="yes"/>
      <point x="134" y="272"/>
      <point x="148" y="282"/>
      <point x="167" y="304" type="curve" smooth="yes"/>
      <point x="186" y="326"/>
      <point x="211" y="332"/>
      <point x="238" y="332" type="curve" smooth="yes"/>
      <point x="303" y="332"/>
      <point x="341" y="279"/>
      <point x="341" y="186" type="curve" smooth="yes"/>
      <point x="341" y="104"/>
      <point x="303" y="57"/>
      <point x="249" y="57" type="curve" smooth="yes"/>
      <point x="221" y="57"/>
      <point x="205" y="81"/>
      <point x="205" y="106" type="curve" smooth="yes"/>
      <point x="205" y="132" type="line" smooth="yes"/>
      <point x="205" y="187"/>
      <point x="170" y="224"/>
      <point x="128" y="224" type="curve" smooth="yes"/>
      <point x="75" y="224"/>
      <point x="34" y="185"/>
    </contour>
  </outline>
</glyph>
<glyph name="six" format="2">
  <advance width="550"/>
  <unicode hex="0036"/>
  <outline>
    <contour>
      <point x="319" y="650" type="curve" smooth="yes"/>
      <point x="171.0" y="650.0"/>
      <point x="59.0" y="547.0"/>
      <point x="59" y="294" type="curve" smooth="yes"/>
      <point x="59.0" y="81.0"/>
      <point x="150.28571428571428" y="-15.0"/>
      <point x="272" y="-15" type="curve" smooth="yes"/>
      <point x="404" y="-15.0"/>
      <point x="505.0" y="87"/>
      <point x="505" y="212" type="curve" smooth="yes"/>
      <point x="505.0" y="336"/>
      <point x="436" y="405.0"/>
      <point x="337" y="405" type="curve" smooth="yes"/>
      <point x="225.47916666666666" y="405.0"/>
      <point x="135.0" y="322.0"/>
      <point x="135" y="222" type="curve"/>
      <point x="165" y="208" type="line"/>
      <point x="165.0" y="285.0"/>
      <point x="224.47154471544715" y="340.0"/>
      <point x="298" y="340" type="curve" smooth="yes"/>
      <point x="359" y="340.0"/>
      <point x="410.0" y="286"/>
      <point x="410" y="179" type="curve" smooth="yes"/>
      <point x="410.0" y="92"/>
      <point x="366" y="44.0"/>
      <point x="296" y="44" type="curve" smooth="yes"/>
      <point x="221.56692913385825" y="44.0"/>
      <point x="159.0" y="106.0"/>
      <point x="159" y="312" type="curve" smooth="yes"/>
      <point x="159.0" y="531.0"/>
      <point x="228.54109589041096" y="601.0"/>
      <point x="302" y="601" type="curve" smooth="yes"/>
      <point x="345.9090909090909" y="601.0"/>
      <point x="371.0" y="575.0"/>
      <point x="371.0" y="548.0" type="curve" smooth="yes"/>
      <point x="371.0" y="532.0" type="line" smooth="yes"/>
      <point x="371" y="492"/>
      <point x="399" y="469.0"/>
      <point x="431.0" y="469.0" type="curve" smooth="yes"/>
      <point x="466" y="469"/>
      <point x="489.0" y="492.0"/>
      <point x="489.0" y="530.0" type="curve" smooth="yes"/>
      <point x="489.0" y="593.0"/>
      <point x="429" y="650"/>
    </contour>
  </outline>
</glyph>
<glyph name="seven" format="2">
  <advance width="466"/>
  <unicode hex="0037"/>
  <outline>
    <contour>
      <point x="374" y="554" type="curve" smooth="yes"/>
      <point x="307" y="462" type="line" smooth="yes"/>
      <point x="156.40290941703745" y="255.20996516966338"/>
      <point x="126.0" y="180.0"/>
      <point x="126" y="103" type="curve" smooth="yes"/>
      <point x="126" y="30"/>
      <point x="165" y="-15"/>
      <point x="225" y="-15" type="curve" smooth="yes"/>
      <point x="300" y="-15"/>
      <point x="339" y="30"/>
      <point x="339" y="81" type="curve" smooth="yes"/>
      <point x="339" y="141"/>
      <point x="280" y="166"/>
      <point x="280" y="231" type="curve" smooth="yes"/>
      <point x="280.0" y="289.0"/>
      <point x="303.16299177844314" y="336.6239320823143"/>
      <point x="351" y="404" type="curve" smooth="yes"/>
      <point x="422" y="504" type="line" smooth="yes"/>
      <point x="457" y="554"/>
      <point x="461.0" y="573"/>
      <point x="461" y="596" type="curve" smooth="yes"/>
      <point x="461.0" y="627"/>
      <point x="437.0" y="649.0"/>
      <point x="399" y="649" type="curve" smooth="yes"/>
      <point x="91" y="649" type="line" smooth="yes"/>
      <point x="55" y="649"/>
      <point x="35" y="626"/>
      <point x="32" y="592" type="curve" smooth="yes"/>
      <point x="21" y="456" type="line" smooth="yes"/>
      <point x="19" y="428"/>
      <point x="35" y="413"/>
      <point x="55" y="413" type="curve" smooth="yes"/>
      <point x="78" y="413"/>
      <point x="94" y="429"/>
      <point x="103" y="450" type="curve" smooth="yes"/>
      <point x="120" y="490" type="line" smooth="yes"/>
      <point x="131" y="516"/>
      <point x="151" y="525"/>
      <point x="180" y="525" type="curve" smooth="yes"/>
      <point x="405" y="525" type="line"/>
      <point x="396" y="615" type="line"/>
      <point x="396" y="597"/>
      <point x="391" y="578"/>
    </contour>
  </outline>
</glyph>
<glyph name="eight" format="2">
  <advance width="544"/>
  <unicode hex="0038"/>
  <outline>
    <contour>
      <point x="251" y="-15" type="curve" smooth="yes"/>
      <point x="402" y="-15"/>
      <point x="517" y="61"/>
      <point x="517" y="168" type="curve" smooth="yes"/>
      <point x="517" y="244"/>
      <point x="463" y="310"/>
      <point x="325" y="361" type="curve" smooth="yes"/>
      <point x="211" y="400"/>
      <point x="178" y="441"/>
      <point x="178" y="495" type="curve" smooth="yes"/>
      <point x="178" y="547"/>
      <point x="207" y="585"/>
      <point x="257" y="585" type="curve" smooth="yes"/>
      <point x="309" y="585"/>
      <point x="345" y="547"/>
      <point x="345" y="485" type="curve" smooth="yes"/>
      <point x="345" y="431"/>
      <point x="320" y="367"/>
      <point x="276" y="341" type="curve"/>
      <point x="307" y="318" type="line"/>
      <point x="416" y="344"/>
      <point x="499" y="420"/>
      <point x="499" y="499" type="curve" smooth="yes"/>
      <point x="499" y="589"/>
      <point x="416" y="664"/>
      <point x="282" y="664" type="curve" smooth="yes"/>
      <point x="136" y="664"/>
      <point x="28" y="573"/>
      <point x="28" y="462" type="curve" smooth="yes"/>
      <point x="28" y="364"/>
      <point x="91" y="299"/>
      <point x="230" y="248" type="curve" smooth="yes"/>
      <point x="333" y="209"/>
      <point x="363" y="186"/>
      <point x="363" y="140" type="curve" smooth="yes"/>
      <point x="363" y="89"/>
      <point x="333" y="59"/>
      <point x="270" y="59" type="curve" smooth="yes"/>
      <point x="206" y="59"/>
      <point x="170" y="100"/>
      <point x="170" y="162" type="curve" smooth="yes"/>
      <point x="170" y="204"/>
      <point x="187" y="249"/>
      <point x="234" y="284" type="curve"/>
      <point x="207" y="298" type="line"/>
      <point x="98" y="278"/>
      <point x="26" y="226"/>
      <point x="26" y="145" type="curve" smooth="yes"/>
      <point x="26" y="50"/>
      <point x="101" y="-15"/>
    </contour>
  </outline>
</glyph>
<glyph name="question" format="2">
  <advance width="471"/>
  <unicode hex="003F"/>
  <outline>
    <contour>
      <point x="172" y="287" type="line" smooth="yes"/>
      <point x="171" y="294"/>
      <point x="171" y="296"/>
      <point x="171" y="300" type="curve" smooth="yes"/>
      <point x="171" y="316"/>
      <point x="180" y="330"/>
      <point x="198" y="341" type="curve" smooth="yes"/>
      <point x="249" y="372" type="line" smooth="yes"/>
      <point x="311" y="410"/>
      <point x="338.0" y="455"/>
      <point x="338" y="529" type="curve" smooth="yes"/>
      <point x="338" y="622"/>
      <point x="292" y="668"/>
      <point x="221" y="668" type="curve" smooth="yes"/>
      <point x="177" y="668"/>
      <point x="153" y="652"/>
      <point x="153" y="612" type="curve" smooth="yes"/>
      <point x="153" y="575" type="line" smooth="yes"/>
      <point x="153" y="541"/>
      <point x="126" y="515"/>
      <point x="94" y="515" type="curve" smooth="yes"/>
      <point x="64" y="515"/>
      <point x="44" y="537"/>
      <point x="44" y="575" type="curve" smooth="yes"/>
      <point x="44" y="643"/>
      <point x="134" y="715"/>
      <point x="251" y="715" type="curve" smooth="yes"/>
      <point x="371.0" y="715.0"/>
      <point x="439.0" y="656"/>
      <point x="439.0" y="547" type="curve" smooth="yes"/>
      <point x="439.0" y="445"/>
      <point x="384" y="375"/>
      <point x="292" y="336" type="curve" smooth="yes"/>
      <point x="267" y="326" type="line" smooth="yes"/>
      <point x="249" y="319"/>
      <point x="241" y="304"/>
      <point x="239" y="284" type="curve" smooth="yes"/>
      <point x="232" y="218" type="line" smooth="yes"/>
      <point x="230" y="199"/>
      <point x="222" y="190"/>
      <point x="206" y="190" type="curve" smooth="yes"/>
      <point x="189" y="190"/>
      <point x="183" y="203"/>
      <point x="181" y="219" type="curve" smooth="yes"/>
    </contour>
    <component base="period" xScale="0.9329999999999999" yScale="0.9329999999999999" xOffset="82" yOffset="2"/>
  </outline>
</glyph>
<glyph name="A" format="2">
  <advance width="732"/>
  <unicode hex="0041"/>
  <anchor x="380" y="731" name="center"/>
  <outline>
    <contour>
      <point x="191" y="299" type="line"/>
      <point x="194" y="235" type="line"/>
      <point x="512" y="235" type="line"/>
      <point x="506" y="299" type="line"/>
    </contour>
    <contour>
      <point x="281" y="36" type="curve" smooth="yes"/>
      <point x="281" y="52"/>
      <point x="268" y="68"/>
      <point x="244" y="83" type="curve" smooth="yes"/>
      <point x="227" y="94" type="line" smooth="yes"/>
      <point x="201" y="111"/>
      <point x="200" y="142"/>
      <point x="218" y="206" type="curve" smooth="yes"/>
      <point x="325" y="581" type="line"/>
      <point x="364" y="581" type="line"/>
      <point x="483" y="143" type="line" smooth="yes"/>
      <point x="492" y="109"/>
      <point x="481" y="86"/>
      <point x="466" y="80" type="curve" smooth="yes"/>
      <point x="456" y="76" type="line" smooth="yes"/>
      <point x="437" y="68"/>
      <point x="424" y="59"/>
      <point x="424" y="36" type="curve" smooth="yes"/>
      <point x="424" y="12"/>
      <point x="437" y="0"/>
      <point x="457" y="0" type="curve" smooth="yes"/>
      <point x="683" y="0" type="line" smooth="yes"/>
      <point x="711.0" y="0.0"/>
      <point x="729" y="12"/>
      <point x="729" y="35" type="curve" smooth="yes"/>
      <point x="729" y="53"/>
      <point x="727" y="61"/>
      <point x="697" y="79" type="curve" smooth="yes"/>
      <point x="667.4638025911931" y="97.10283066991389"/>
      <point x="649.2931298056375" y="127.2377796682612"/>
      <point x="640" y="160" type="curve" smooth="yes"/>
      <point x="522" y="576" type="line" smooth="yes"/>
      <point x="514.9352330321015" y="600.9062971071679"/>
      <point x="516" y="619"/>
      <point x="532" y="628" type="curve" smooth="yes"/>
      <point x="545.5202783795727" y="635.8868290547507"/>
      <point x="553" y="646"/>
      <point x="553" y="664" type="curve" smooth="yes"/>
      <point x="553" y="685"/>
      <point x="534.725" y="700"/>
      <point x="510" y="700" type="curve" smooth="yes"/>
      <point x="236" y="700" type="line" smooth="yes"/>
      <point x="215" y="700"/>
      <point x="197" y="684"/>
      <point x="197" y="662" type="curve" smooth="yes"/>
      <point x="197.0" y="650.0"/>
      <point x="206" y="636"/>
      <point x="221" y="623" type="curve" smooth="yes"/>
      <point x="236" y="610"/>
      <point x="234" y="589"/>
      <point x="227" y="566" type="curve" smooth="yes"/>
      <point x="125" y="206" type="line" smooth="yes"/>
      <point x="109" y="148"/>
      <point x="74" y="111"/>
      <point x="38" y="85" type="curve" smooth="yes"/>
      <point x="15" y="69"/>
      <point x="3" y="53"/>
      <point x="3" y="37" type="curve" smooth="yes"/>
      <point x="3" y="10"/>
      <point x="16" y="0"/>
      <point x="47" y="0" type="curve" smooth="yes"/>
      <point x="245" y="0" type="line" smooth="yes"/>
      <point x="267" y="0"/>
      <point x="281" y="14"/>
    </contour>
  </outline>
</glyph>
<glyph name="B" format="2">
  <advance width="691"/>
  <unicode hex="0042"/>
  <outline>
    <contour>
      <point x="668" y="172" type="curve" smooth="yes"/>
      <point x="668.0" y="278"/>
      <point x="567.0" y="349.0"/>
      <point x="416" y="349" type="curve" smooth="yes"/>
      <point x="405.0" y="349.0"/>
      <point x="402" y="340"/>
      <point x="387" y="335" type="curve"/>
      <point x="418" y="325" type="line"/>
      <point x="544.0" y="325.0"/>
      <point x="628.0" y="389"/>
      <point x="628" y="485" type="curve" smooth="yes"/>
      <point x="628.0" y="616"/>
      <point x="515.0" y="700.0"/>
      <point x="336" y="700" type="curve" smooth="yes"/>
      <point x="67" y="700" type="line" smooth="yes"/>
      <point x="41" y="700"/>
      <point x="26.0" y="687.1034482758621"/>
      <point x="26" y="666" type="curve" smooth="yes"/>
      <point x="26.0" y="647.5757575757576"/>
      <point x="37" y="635"/>
      <point x="54" y="628" type="curve" smooth="yes"/>
      <point x="67" y="623" type="line" smooth="yes"/>
      <point x="95.52824608598061" y="612.0275976592383"/>
      <point x="116" y="591"/>
      <point x="116" y="557" type="curve" smooth="yes"/>
      <point x="116" y="132" type="line" smooth="yes"/>
      <point x="116" y="105.0"/>
      <point x="96.69349156367053" y="89.47739662546822"/>
      <point x="68" y="78" type="curve" smooth="yes"/>
      <point x="53" y="72" type="line" smooth="yes"/>
      <point x="35" y="65"/>
      <point x="25.0" y="52"/>
      <point x="25" y="34" type="curve" smooth="yes"/>
      <point x="25.0" y="13.0"/>
      <point x="40" y="0"/>
      <point x="66" y="0" type="curve" smooth="yes"/>
      <point x="393" y="0" type="line" smooth="yes"/>
      <point x="560.0" y="0.0"/>
      <point x="668.0" y="67.0"/>
    </contour>
    <contour>
      <point x="371" y="291" type="line" smooth="yes"/>
      <point x="450.0" y="291.0"/>
      <point x="502.0" y="248"/>
      <point x="502" y="180" type="curve" smooth="yes"/>
      <point x="502.0" y="115.0"/>
      <point x="456.0" y="69.0"/>
      <point x="392" y="69" type="curve" smooth="yes"/>
      <point x="356" y="69" type="line" smooth="yes"/>
      <point x="311" y="69"/>
      <point x="280" y="95"/>
      <point x="280" y="136" type="curve" smooth="yes"/>
      <point x="280" y="626" type="line"/>
      <point x="331" y="626" type="line" smooth="yes"/>
      <point x="412.0" y="626.0"/>
      <point x="463.0" y="573"/>
      <point x="463" y="493" type="curve" smooth="yes"/>
      <point x="463.0" y="404"/>
      <point x="405.0" y="359.0"/>
      <point x="300" y="359.0" type="curve" smooth="yes"/>
      <point x="248" y="359" type="line"/>
      <point x="237" y="291" type="line"/>
    </contour>
  </outline>
</glyph>
<glyph name="C" format="2">
  <advance width="662"/>
  <unicode hex="0043"/>
  <anchor x="350" y="775" name="center"/>
  <outline>
    <contour>
      <point x="525" y="-15"/>
      <point x="653" y="92"/>
      <point x="653" y="187" type="curve" smooth="yes"/>
      <point x="653" y="204"/>
      <point x="644" y="218"/>
      <point x="633" y="218" type="curve" smooth="yes"/>
      <point x="621" y="218"/>
      <point x="612" y="215"/>
      <point x="595" y="191" type="curve" smooth="yes"/>
      <point x="561" y="143"/>
      <point x="487" y="111"/>
      <point x="419" y="111" type="curve" smooth="yes"/>
      <point x="279" y="111"/>
      <point x="182" y="221"/>
      <point x="182" y="378" type="curve" smooth="yes"/>
      <point x="182" y="536"/>
      <point x="260" y="629"/>
      <point x="368" y="629" type="curve" smooth="yes"/>
      <point x="434" y="629"/>
      <point x="491" y="597"/>
      <point x="550" y="510" type="curve" smooth="yes"/>
      <point x="570" y="481"/>
      <point x="590" y="473"/>
      <point x="608" y="473" type="curve" smooth="yes"/>
      <point x="628" y="473"/>
      <point x="644" y="489"/>
      <point x="644" y="508" type="curve" smooth="yes"/>
      <point x="644" y="518"/>
      <point x="643" y="525"/>
      <point x="636" y="550" type="curve" smooth="yes"/>
      <point x="605" y="654" type="line" smooth="yes"/>
      <point x="591" y="700"/>
      <point x="579" y="716"/>
      <point x="557" y="716" type="curve" smooth="yes"/>
      <point x="529" y="716"/>
      <point x="526" y="690"/>
      <point x="496" y="690" type="curve" smooth="yes"/>
      <point x="476" y="690"/>
      <point x="441" y="713"/>
      <point x="380" y="713" type="curve" smooth="yes"/>
      <point x="175" y="713"/>
      <point x="25" y="558"/>
      <point x="25" y="338" type="curve" smooth="yes"/>
      <point x="25" y="130"/>
      <point x="154" y="-15"/>
      <point x="355" y="-15" type="curve" smooth="yes"/>
    </contour>
  </outline>
</glyph>
<glyph name="E" format="2">
  <advance width="666"/>
  <unicode hex="0045"/>
  <outline>
    <contour>
      <point x="233" y="390" type="line"/>
      <point x="217" y="319" type="line"/>
      <point x="377" y="319" type="line" smooth="yes"/>
      <point x="419" y="319"/>
      <point x="444" y="312"/>
      <point x="460" y="291" type="curve" smooth="yes"/>
      <point x="486" y="257"/>
      <point x="497" y="243"/>
      <point x="520" y="243" type="curve" smooth="yes"/>
      <point x="540" y="243"/>
      <point x="554" y="254"/>
      <point x="554" y="275" type="curve" smooth="yes"/>
      <point x="554" y="282"/>
      <point x="553" y="292"/>
      <point x="550" y="303" type="curve" smooth="yes"/>
      <point x="519" y="424" type="line" smooth="yes"/>
      <point x="512" y="452"/>
      <point x="502" y="466"/>
      <point x="480" y="466" type="curve" smooth="yes"/>
      <point x="458" y="466"/>
      <point x="448" y="453"/>
      <point x="435" y="426" type="curve" smooth="yes"/>
      <point x="422" y="400"/>
      <point x="407" y="390"/>
      <point x="375" y="390" type="curve" smooth="yes"/>
    </contour>
    <contour>
      <point x="25" y="664" type="curve" smooth="yes"/>
      <point x="25" y="644"/>
      <point x="38" y="629"/>
      <point x="55" y="625" type="curve" smooth="yes"/>
      <point x="87" y="618" type="line" smooth="yes"/>
      <point x="104" y="614"/>
      <point x="115" y="601"/>
      <point x="115" y="582" type="curve" smooth="yes"/>
      <point x="115" y="134" type="line" smooth="yes"/>
      <point x="115" y="104"/>
      <point x="103" y="90"/>
      <point x="77" y="82" type="curve" smooth="yes"/>
      <point x="62" y="78" type="line" smooth="yes"/>
      <point x="36" y="71"/>
      <point x="25" y="57"/>
      <point x="25" y="34" type="curve" smooth="yes"/>
      <point x="25" y="11"/>
      <point x="39" y="0"/>
      <point x="61" y="0" type="curve" smooth="yes"/>
      <point x="459" y="0" type="line" smooth="yes"/>
      <point x="489" y="0"/>
      <point x="505" y="-31"/>
      <point x="534" y="-31" type="curve" smooth="yes"/>
      <point x="561" y="-31"/>
      <point x="580" y="-15"/>
      <point x="592" y="24" type="curve" smooth="yes"/>
      <point x="628" y="144" type="line" smooth="yes"/>
      <point x="634" y="163"/>
      <point x="634" y="176"/>
      <point x="634" y="185" type="curve" smooth="yes"/>
      <point x="634" y="210"/>
      <point x="621" y="226"/>
      <point x="593" y="226" type="curve" smooth="yes"/>
      <point x="571" y="226"/>
      <point x="553" y="210"/>
      <point x="522" y="157" type="curve" smooth="yes"/>
      <point x="485" y="94"/>
      <point x="449" y="80"/>
      <point x="396" y="80" type="curve" smooth="yes"/>
      <point x="369" y="80" type="line" smooth="yes"/>
      <point x="311" y="80"/>
      <point x="279" y="116"/>
      <point x="279" y="170" type="curve" smooth="yes"/>
      <point x="279" y="630" type="line"/>
      <point x="361" y="630" type="line" smooth="yes"/>
      <point x="426" y="630"/>
      <point x="471" y="599"/>
      <point x="518" y="528" type="curve" smooth="yes"/>
      <point x="540" y="494"/>
      <point x="561" y="485"/>
      <point x="581" y="485" type="curve" smooth="yes"/>
      <point x="602" y="485"/>
      <point x="617" y="497"/>
      <point x="617" y="517" type="curve" smooth="yes"/>
      <point x="617" y="522"/>
      <point x="616" y="531"/>
      <point x="613" y="542" type="curve" smooth="yes"/>
      <point x="578" y="693" type="line" smooth="yes"/>
      <point x="572" y="719"/>
      <point x="557" y="733"/>
      <point x="534" y="733" type="curve" smooth="yes"/>
      <point x="517" y="733"/>
      <point x="505" y="728"/>
      <point x="489" y="716" type="curve" smooth="yes"/>
      <point x="476" y="706"/>
      <point x="463" y="700"/>
      <point x="448" y="700" type="curve" smooth="yes"/>
      <point x="58" y="700" type="line" smooth="yes"/>
      <point x="37" y="700"/>
      <point x="25" y="686"/>
    </contour>
  </outline>
</glyph>
<glyph name="F" format="2">
  <advance width="584"/>
  <unicode hex="0046"/>
  <outline>
    <contour>
      <point x="405" y="700" type="curve" smooth="yes"/>
      <point x="61" y="700" type="line" smooth="yes"/>
      <point x="35" y="700"/>
      <point x="20.0" y="688.0645161290322"/>
      <point x="20" y="663" type="curve" smooth="yes"/>
      <point x="20.0" y="638.2941176470588"/>
      <point x="34" y="627"/>
      <point x="62" y="621" type="curve" smooth="yes"/>
      <point x="72" y="619" type="line" smooth="yes"/>
      <point x="93.64515011018452" y="614.6709699779631"/>
      <point x="110" y="595"/>
      <point x="110" y="565" type="curve" smooth="yes"/>
      <point x="110" y="137" type="line" smooth="yes"/>
      <point x="110" y="105.84615384615385"/>
      <point x="98.14388120178269" y="90.84316436053481"/>
      <point x="72" y="83" type="curve" smooth="yes"/>
      <point x="62" y="80" type="line" smooth="yes"/>
      <point x="33.32269435990675" y="71.39680830797202"/>
      <point x="20.0" y="59.22222222222223"/>
      <point x="20" y="36" type="curve" smooth="yes"/>
      <point x="20.0" y="11.612903225806452"/>
      <point x="36" y="0"/>
      <point x="61" y="0" type="curve" smooth="yes"/>
      <point x="347" y="0" type="line" smooth="yes"/>
      <point x="369.3125" y="0"/>
      <point x="389.0" y="12.0"/>
      <point x="389" y="36" type="curve" smooth="yes"/>
      <point x="389.0" y="53.2972972972973"/>
      <point x="377.33608116923176" y="69.35954343617435"/>
      <point x="355" y="76" type="curve" smooth="yes"/>
      <point x="318" y="87" type="line" smooth="yes"/>
      <point x="290.01447225746745" y="95.32002176129346"/>
      <point x="274" y="111.81355932203391"/>
      <point x="274" y="148" type="curve" smooth="yes"/>
      <point x="274" y="629" type="line"/>
      <point x="388" y="629" type="line" smooth="yes"/>
      <point x="423.3551401869159" y="629"/>
      <point x="443.84132065717" y="604.322403311241"/>
      <point x="485" y="548" type="curve" smooth="yes"/>
      <point x="507" y="514"/>
      <point x="524" y="504.0"/>
      <point x="543" y="504" type="curve" smooth="yes"/>
      <point x="562" y="504.0"/>
      <point x="574.0" y="516"/>
      <point x="574" y="537" type="curve" smooth="yes"/>
      <point x="574" y="541"/>
      <point x="573" y="550"/>
      <point x="570" y="562" type="curve" smooth="yes"/>
      <point x="541" y="693" type="line" smooth="yes"/>
      <point x="535.3339522246196" y="718.594905468098"/>
      <point x="527" y="731.0"/>
      <point x="505" y="731" type="curve" smooth="yes"/>
      <point x="487.40000000000003" y="731.0"/>
      <point x="478.70377027915515" y="724.835427932864"/>
      <point x="461" y="715" type="curve" smooth="yes"/>
      <point x="442.0692708985649" y="704.4829282769805"/>
      <point x="424.04" y="700"/>
    </contour>
    <contour>
      <point x="238" y="368" type="line"/>
      <point x="232" y="302" type="line"/>
      <point x="382" y="302" type="line" smooth="yes"/>
      <point x="427.48387096774195" y="302"/>
      <point x="452" y="286"/>
      <point x="472" y="260" type="curve" smooth="yes"/>
      <point x="491" y="235"/>
      <point x="502.8510638297872" y="224.0"/>
      <point x="522" y="224.0" type="curve" smooth="yes"/>
      <point x="538.0" y="224.0"/>
      <point x="549" y="234"/>
      <point x="549" y="251" type="curve" smooth="yes"/>
      <point x="549.0" y="260.0"/>
      <point x="547.0107151084321" y="272.17301209460794"/>
      <point x="544" y="286" type="curve" smooth="yes"/>
      <point x="517" y="410" type="line" smooth="yes"/>
      <point x="512" y="434"/>
      <point x="502.3225806451613" y="446.0"/>
      <point x="482" y="446" type="curve" smooth="yes"/>
      <point x="464.5806451612903" y="446.0"/>
      <point x="456" y="433"/>
      <point x="446" y="412" type="curve" smooth="yes"/>
      <point x="430" y="378"/>
      <point x="408.8169014084507" y="368"/>
      <point x="380" y="368" type="curve" smooth="yes"/>
    </contour>
  </outline>
</glyph>
<glyph name="G" format="2">
  <advance width="757"/>
  <unicode hex="0047"/>
  <outline>
    <contour>
      <point x="670" y="35" type="curve" smooth="yes"/>
      <point x="670" y="199" type="line" smooth="yes"/>
      <point x="670" y="230"/>
      <point x="683" y="247"/>
      <point x="701" y="258" type="curve" smooth="yes"/>
      <point x="711" y="264" type="line" smooth="yes"/>
      <point x="733" y="277"/>
      <point x="739.0" y="287"/>
      <point x="739" y="307" type="curve" smooth="yes"/>
      <point x="739.0" y="329.0"/>
      <point x="723.0" y="342.0"/>
      <point x="698" y="342" type="curve" smooth="yes"/>
      <point x="444" y="342" type="line" smooth="yes"/>
      <point x="418.0" y="342"/>
      <point x="403.0" y="328.25714285714287"/>
      <point x="403" y="305" type="curve" smooth="yes"/>
      <point x="403.0" y="280.15555555555557"/>
      <point x="419.36424169200484" y="267.727151661599"/>
      <point x="448" y="262" type="curve" smooth="yes"/>
      <point x="473" y="257" type="line" smooth="yes"/>
      <point x="497" y="252"/>
      <point x="511" y="230.80645161290323"/>
      <point x="511" y="201" type="curve" smooth="yes"/>
      <point x="511" y="146" type="line" smooth="yes"/>
      <point x="511" y="106"/>
      <point x="487" y="85.0"/>
      <point x="427" y="85" type="curve" smooth="yes"/>
      <point x="284.20762711864404" y="85.0"/>
      <point x="188.0" y="194.0"/>
      <point x="188" y="365" type="curve" smooth="yes"/>
      <point x="188.0" y="529.5985401459855"/>
      <point x="268.0" y="640.0"/>
      <point x="399" y="640" type="curve" smooth="yes"/>
      <point x="462.7317073170732" y="640.0"/>
      <point x="527" y="612"/>
      <point x="594" y="516" type="curve" smooth="yes"/>
      <point x="622" y="476"/>
      <point x="643.9354838709677" y="461.0"/>
      <point x="666" y="461" type="curve" smooth="yes"/>
      <point x="689.1891891891892" y="461.0"/>
      <point x="705.0" y="477.1842105263158"/>
      <point x="705" y="502" type="curve" smooth="yes"/>
      <point x="705" y="513"/>
      <point x="701" y="523"/>
      <point x="698" y="538" type="curve" smooth="yes"/>
      <point x="670" y="673" type="line" smooth="yes"/>
      <point x="663.3348074424426" y="705.13574983108"/>
      <point x="648.16" y="714.0"/>
      <point x="628" y="714" type="curve" smooth="yes"/>
      <point x="600.1206896551724" y="714.0"/>
      <point x="582.5" y="682.0"/>
      <point x="551" y="682" type="curve" smooth="yes"/>
      <point x="530.6133333333333" y="682.0"/>
      <point x="493.5466666666667" y="714.0"/>
      <point x="412" y="714" type="curve" smooth="yes"/>
      <point x="176.99999999999997" y="714.0"/>
      <point x="25.0" y="551.5770234986945"/>
      <point x="25" y="330" type="curve" smooth="yes"/>
      <point x="25.0" y="122.0"/>
      <point x="157.2392026578073" y="-15.0"/>
      <point x="346" y="-15" type="curve" smooth="yes"/>
      <point x="436.25531914893617" y="-15.0"/>
      <point x="480.04255319148933" y="31.0"/>
      <point x="514" y="31" type="curve" smooth="yes"/>
      <point x="548" y="31"/>
      <point x="572" y="-15"/>
      <point x="610" y="-15" type="curve" smooth="yes"/>
      <point x="654.3076923076923" y="-15.0"/>
      <point x="670" y="5.0"/>
    </contour>
  </outline>
</glyph>
<glyph name="H" format="2">
  <advance width="835"/>
  <unicode hex="0048"/>
  <outline>
    <contour>
      <point x="200" y="374" type="line"/>
      <point x="200" y="291" type="line"/>
      <point x="644" y="291" type="line"/>
      <point x="644" y="374" type="line"/>
    </contour>
    <component base="I" xOffset="6"/>
    <component base="I" xOffset="445"/>
  </outline>
</glyph>
<glyph name="I" format="2">
  <advance width="406"/>
  <unicode hex="0049"/>
  <outline>
    <contour>
      <point x="285" y="126" type="curve" smooth="yes"/>
      <point x="285" y="573" type="line" smooth="yes"/>
      <point x="285" y="600"/>
      <point x="297" y="612"/>
      <point x="322" y="618" type="curve" smooth="yes"/>
      <point x="344" y="623" type="line" smooth="yes"/>
      <point x="368" y="628"/>
      <point x="380" y="640"/>
      <point x="380" y="664" type="curve" smooth="yes"/>
      <point x="380" y="689"/>
      <point x="367" y="700"/>
      <point x="340" y="700" type="curve" smooth="yes"/>
      <point x="67" y="700" type="line" smooth="yes"/>
      <point x="37" y="700"/>
      <point x="25" y="689"/>
      <point x="25" y="664" type="curve" smooth="yes"/>
      <point x="25" y="640"/>
      <point x="36" y="630"/>
      <point x="59" y="624" type="curve" smooth="yes"/>
      <point x="84" y="618" type="line" smooth="yes"/>
      <point x="108" y="612"/>
      <point x="121" y="600"/>
      <point x="121" y="573" type="curve" smooth="yes"/>
      <point x="121" y="126" type="line" smooth="yes"/>
      <point x="121" y="100"/>
      <point x="108" y="88"/>
      <point x="84" y="82" type="curve" smooth="yes"/>
      <point x="65" y="77" type="line" smooth="yes"/>
      <point x="39" y="70"/>
      <point x="26" y="59"/>
      <point x="26" y="36" type="curve" smooth="yes"/>
      <point x="26" y="11"/>
      <point x="37" y="0"/>
      <point x="67" y="0" type="curve" smooth="yes"/>
      <point x="339" y="0" type="line" smooth="yes"/>
      <point x="367" y="0"/>
      <point x="381" y="11"/>
      <point x="381" y="36" type="curve" smooth="yes"/>
      <point x="381" y="60"/>
      <point x="369" y="72"/>
      <point x="345" y="77" type="curve" smooth="yes"/>
      <point x="322" y="82" type="line" smooth="yes"/>
      <point x="297" y="87"/>
      <point x="285" y="100"/>
    </contour>
  </outline>
</glyph>
<glyph name="J" format="2">
  <advance width="481"/>
  <unicode hex="004A"/>
  <anchor x="275" y="732" name="center"/>
  <outline>
    <contour>
      <point x="426" y="143" type="curve" smooth="yes"/>
      <point x="426" y="168"/>
      <point x="418" y="193"/>
      <point x="409" y="214" type="curve" smooth="yes"/>
      <point x="391" y="253"/>
      <point x="386" y="280"/>
      <point x="386" y="314" type="curve" smooth="yes"/>
      <point x="385" y="557" type="line" smooth="yes"/>
      <point x="385" y="595"/>
      <point x="397" y="614"/>
      <point x="419" y="621" type="curve" smooth="yes"/>
      <point x="432" y="625" type="line" smooth="yes"/>
      <point x="453" y="632"/>
      <point x="465" y="641"/>
      <point x="465" y="665" type="curve" smooth="yes"/>
      <point x="465" y="689"/>
      <point x="453" y="700"/>
      <point x="425" y="700" type="curve" smooth="yes"/>
      <point x="153" y="700" type="line" smooth="yes"/>
      <point x="135" y="700"/>
      <point x="122" y="689"/>
      <point x="122" y="665" type="curve" smooth="yes"/>
      <point x="122" y="642"/>
      <point x="135" y="630"/>
      <point x="158" y="625" type="curve" smooth="yes"/>
      <point x="172" y="622" type="line" smooth="yes"/>
      <point x="205" y="615"/>
      <point x="221" y="596"/>
      <point x="221" y="556" type="curve" smooth="yes"/>
      <point x="221" y="282" type="line" smooth="yes"/>
      <point x="221" y="247"/>
      <point x="232" y="199"/>
      <point x="255" y="165" type="curve" smooth="yes"/>
      <point x="275" y="136"/>
      <point x="278" y="119"/>
      <point x="278" y="97" type="curve" smooth="yes"/>
      <point x="278" y="63"/>
      <point x="257" y="44"/>
      <point x="224" y="44" type="curve" smooth="yes"/>
      <point x="187" y="44"/>
      <point x="173" y="67"/>
      <point x="173" y="103" type="curve" smooth="yes"/>
      <point x="173" y="133" type="line" smooth="yes"/>
      <point x="173" y="186"/>
      <point x="142" y="220"/>
      <point x="98" y="220" type="curve" smooth="yes"/>
      <point x="41" y="220"/>
      <point x="11" y="181"/>
      <point x="11" y="122" type="curve" smooth="yes"/>
      <point x="11" y="40"/>
      <point x="80" y="-19"/>
      <point x="205" y="-19" type="curve" smooth="yes"/>
      <point x="341" y="-19"/>
      <point x="426" y="45"/>
    </contour>
  </outline>
</glyph>
<glyph name="K" format="2">
  <advance width="768"/>
  <unicode hex="004B"/>
  <outline>
    <contour>
      <point x="197" y="231" type="line"/>
      <point x="242" y="187" type="line"/>
      <point x="568" y="500" type="line" smooth="yes"/>
      <point x="630" y="559"/>
      <point x="669.0421849441476" y="592.6488011461875"/>
      <point x="700" y="604" type="curve" smooth="yes"/>
      <point x="728.282418679066" y="614.3702201823243"/>
      <point x="744.0782195049202" y="628.8098538622335"/>
      <point x="743" y="659" type="curve" smooth="yes"/>
      <point x="742.0887273348718" y="680.8705439630774"/>
      <point x="726" y="700"/>
      <point x="694" y="700" type="curve" smooth="yes"/>
      <point x="482" y="700" type="line" smooth="yes"/>
      <point x="457.0" y="700.0"/>
      <point x="439" y="689"/>
      <point x="439" y="666" type="curve" smooth="yes"/>
      <point x="439.0" y="652"/>
      <point x="444" y="641"/>
      <point x="466" y="629" type="curve" smooth="yes"/>
      <point x="480" y="621" type="line" smooth="yes"/>
      <point x="498" y="611"/>
      <point x="506" y="598"/>
      <point x="506" y="582" type="curve" smooth="yes"/>
      <point x="506.0" y="552"/>
      <point x="492" y="525"/>
      <point x="462" y="495" type="curve" smooth="yes"/>
    </contour>
    <contour>
      <point x="344" y="373" type="line"/>
      <point x="479" y="143" type="line" smooth="yes"/>
      <point x="488" y="128"/>
      <point x="494" y="120"/>
      <point x="494" y="104" type="curve" smooth="yes"/>
      <point x="494.0" y="91.0"/>
      <point x="490" y="85"/>
      <point x="472" y="73" type="curve" smooth="yes"/>
      <point x="457" y="63"/>
      <point x="448.0" y="54"/>
      <point x="448" y="34" type="curve" smooth="yes"/>
      <point x="448.0" y="11"/>
      <point x="463" y="0"/>
      <point x="487" y="0" type="curve" smooth="yes"/>
      <point x="708" y="0" type="line" smooth="yes"/>
      <point x="743.0" y="0"/>
      <point x="758.0" y="15.891891891891891"/>
      <point x="758" y="42" type="curve" smooth="yes"/>
      <point x="758.0" y="68.15686274509804"/>
      <point x="744.6162924432538" y="76.62300397723484"/>
      <point x="723" y="88" type="curve" smooth="yes"/>
      <point x="708.8575350207265" y="95.0712324896368"/>
      <point x="698.8442976938695" y="99.53315180556312"/>
      <point x="686" y="120" type="curve" smooth="yes"/>
      <point x="472" y="461" type="line"/>
    </contour>
    <component base="I"/>
  </outline>
</glyph>
<glyph name="L" format="2">
  <advance width="591"/>
  <unicode hex="004C"/>
  <anchor x="201" y="742" name="center"/>
  <outline>
    <contour>
      <point x="366" y="628" type="line" smooth="yes"/>
      <point x="383" y="632"/>
      <point x="390" y="649"/>
      <point x="390" y="664" type="curve" smooth="yes"/>
      <point x="390" y="688"/>
      <point x="375" y="700"/>
      <point x="358" y="700" type="curve" smooth="yes"/>
      <point x="57" y="700" type="line" smooth="yes"/>
      <point x="38" y="700"/>
      <point x="26" y="688"/>
      <point x="26" y="664" type="curve" smooth="yes"/>
      <point x="26" y="642"/>
      <point x="36" y="629"/>
      <point x="59" y="623" type="curve" smooth="yes"/>
      <point x="78" y="618" type="line" smooth="yes"/>
      <point x="104" y="611"/>
      <point x="116" y="596"/>
      <point x="116" y="566" type="curve" smooth="yes"/>
      <point x="116" y="119" type="line" smooth="yes"/>
      <point x="116" y="100"/>
      <point x="105" y="86"/>
      <point x="88" y="83" type="curve" smooth="yes"/>
      <point x="58" y="77" type="line" smooth="yes"/>
      <point x="38" y="73"/>
      <point x="26" y="61"/>
      <point x="26" y="37" type="curve" smooth="yes"/>
      <point x="26" y="12"/>
      <point x="37" y="0"/>
      <point x="57" y="0" type="curve" smooth="yes"/>
      <point x="412" y="0" type="line" smooth="yes"/>
      <point x="429" y="0"/>
      <point x="445" y="-3"/>
      <point x="461" y="-15" type="curve" smooth="yes"/>
      <point x="476" y="-26"/>
      <point x="487" y="-31"/>
      <point x="504" y="-31" type="curve" smooth="yes"/>
      <point x="522" y="-31"/>
      <point x="528" y="-23"/>
      <point x="534" y="-2" type="curve" smooth="yes"/>
      <point x="577" y="145" type="line" smooth="yes"/>
      <point x="591" y="192"/>
      <point x="571" y="213"/>
      <point x="548" y="213" type="curve" smooth="yes"/>
      <point x="529" y="213"/>
      <point x="520" y="210"/>
      <point x="495" y="175" type="curve" smooth="yes"/>
      <point x="458" y="122" type="line" smooth="yes"/>
      <point x="434" y="87"/>
      <point x="400" y="80"/>
      <point x="369" y="80" type="curve" smooth="yes"/>
      <point x="354" y="80" type="line" smooth="yes"/>
      <point x="303" y="80"/>
      <point x="280" y="104"/>
      <point x="280" y="155" type="curve" smooth="yes"/>
      <point x="280" y="560" type="line" smooth="yes"/>
      <point x="280" y="595"/>
      <point x="295" y="611"/>
      <point x="324" y="618" type="curve" smooth="yes"/>
    </contour>
  </outline>
</glyph>
<glyph name="M" format="2">
  <advance width="968"/>
  <unicode hex="004D"/>
  <outline>
    <contour>
      <point x="525" y="188" type="line"/>
      <point x="316" y="636" type="line" smooth="yes"/>
      <point x="295" y="680"/>
      <point x="268" y="700"/>
      <point x="237" y="700" type="curve" smooth="yes"/>
      <point x="100" y="700" type="line" smooth="yes"/>
      <point x="75" y="700"/>
      <point x="59" y="689"/>
      <point x="59" y="666" type="curve" smooth="yes"/>
      <point x="59" y="648"/>
      <point x="68" y="628"/>
      <point x="87" y="621" type="curve" smooth="yes"/>
      <point x="106" y="614" type="line" smooth="yes"/>
      <point x="125" y="607"/>
      <point x="139" y="595"/>
      <point x="138" y="575" type="curve" smooth="yes"/>
      <point x="107" y="134" type="line" smooth="yes"/>
      <point x="105" y="107"/>
      <point x="90" y="94"/>
      <point x="66" y="83" type="curve" smooth="yes"/>
      <point x="48" y="75" type="line" smooth="yes"/>
      <point x="22" y="64"/>
      <point x="15" y="50"/>
      <point x="15" y="32" type="curve" smooth="yes"/>
      <point x="15" y="7"/>
      <point x="32" y="0"/>
      <point x="56" y="0" type="curve" smooth="yes"/>
      <point x="242" y="0" type="line" smooth="yes"/>
      <point x="269" y="0"/>
      <point x="287" y="12"/>
      <point x="287" y="33" type="curve" smooth="yes"/>
      <point x="287" y="55"/>
      <point x="281" y="65"/>
      <point x="264" y="71" type="curve" smooth="yes"/>
      <point x="227" y="85" type="line" smooth="yes"/>
      <point x="199" y="96"/>
      <point x="187" y="112"/>
      <point x="188" y="134" type="curve" smooth="yes"/>
      <point x="219" y="592" type="line"/>
      <point x="162" y="585" type="line"/>
      <point x="387" y="104" type="line" smooth="yes"/>
      <point x="413" y="49"/>
      <point x="427" y="42"/>
      <point x="457" y="42" type="curve" smooth="yes"/>
      <point x="481" y="42"/>
      <point x="502" y="65"/>
      <point x="523" y="112" type="curve" smooth="yes"/>
      <point x="741" y="608" type="line"/>
      <point x="667" y="607" type="line"/>
      <point x="708" y="122" type="line" smooth="yes"/>
      <point x="710" y="96"/>
      <point x="699" y="82"/>
      <point x="681" y="78" type="curve" smooth="yes"/>
      <point x="656" y="72" type="line" smooth="yes"/>
      <point x="638" y="68"/>
      <point x="628" y="57"/>
      <point x="628" y="34" type="curve" smooth="yes"/>
      <point x="628" y="11"/>
      <point x="637" y="0"/>
      <point x="659" y="0" type="curve" smooth="yes"/>
      <point x="912" y="0" type="line" smooth="yes"/>
      <point x="941" y="0"/>
      <point x="953" y="11"/>
      <point x="953" y="34" type="curve" smooth="yes"/>
      <point x="953" y="57"/>
      <point x="943" y="65"/>
      <point x="925" y="72" type="curve" smooth="yes"/>
      <point x="909" y="78" type="line" smooth="yes"/>
      <point x="885" y="87"/>
      <point x="875" y="96"/>
      <point x="873" y="122" type="curve" smooth="yes"/>
      <point x="833" y="570" type="line" smooth="yes"/>
      <point x="831" y="596"/>
      <point x="843" y="607"/>
      <point x="860" y="615" type="curve" smooth="yes"/>
      <point x="888" y="628" type="line" smooth="yes"/>
      <point x="904" y="636"/>
      <point x="913" y="644"/>
      <point x="913" y="669" type="curve" smooth="yes"/>
      <point x="913" y="690"/>
      <point x="898" y="700"/>
      <point x="862" y="700" type="curve" smooth="yes"/>
      <point x="862" y="700"/>
      <point x="772" y="700"/>
      <point x="756" y="700" type="curve" smooth="yes"/>
      <point x="725" y="700"/>
      <point x="696" y="679"/>
      <point x="676" y="634" type="curve" smooth="yes"/>
      <point x="475" y="184" type="line"/>
    </contour>
  </outline>
</glyph>
<glyph name="N" format="2">
  <advance width="786"/>
  <unicode hex="004E"/>
  <outline>
    <contour>
      <point x="305" y="37" type="curve" smooth="yes"/>
      <point x="305" y="60"/>
      <point x="299" y="73"/>
      <point x="282" y="81" type="curve" smooth="yes"/>
      <point x="255" y="94" type="line" smooth="yes"/>
      <point x="226" y="108"/>
      <point x="207" y="118"/>
      <point x="207" y="139" type="curve" smooth="yes"/>
      <point x="207" y="545" type="line"/>
      <point x="174" y="509" type="line"/>
      <point x="521" y="106" type="line" smooth="yes"/>
      <point x="540" y="84"/>
      <point x="547" y="72"/>
      <point x="547" y="53" type="curve" smooth="yes"/>
      <point x="547" y="28"/>
      <point x="568" y="0"/>
      <point x="603" y="0" type="curve" smooth="yes"/>
      <point x="705" y="0" type="line" smooth="yes"/>
      <point x="727.4642857142857" y="0"/>
      <point x="742.0" y="12.0"/>
      <point x="742" y="36" type="curve" smooth="yes"/>
      <point x="742" y="51"/>
      <point x="740" y="65"/>
      <point x="726" y="81" type="curve" smooth="yes"/>
      <point x="703" y="107" type="line" smooth="yes"/>
      <point x="690" y="122"/>
      <point x="678" y="141"/>
      <point x="678" y="166" type="curve" smooth="yes"/>
      <point x="678" y="552" type="line" smooth="yes"/>
      <point x="678" y="573"/>
      <point x="692" y="587"/>
      <point x="708" y="596" type="curve" smooth="yes"/>
      <point x="748" y="618" type="line" smooth="yes"/>
      <point x="769" y="629"/>
      <point x="771" y="644"/>
      <point x="771" y="662" type="curve" smooth="yes"/>
      <point x="771" y="684"/>
      <point x="760" y="700"/>
      <point x="743" y="700" type="curve" smooth="yes"/>
      <point x="511" y="700" type="line" smooth="yes"/>
      <point x="496" y="700"/>
      <point x="487" y="686"/>
      <point x="487" y="664" type="curve" smooth="yes"/>
      <point x="487" y="645"/>
      <point x="494" y="627"/>
      <point x="517" y="617" type="curve" smooth="yes"/>
      <point x="551" y="602" type="line" smooth="yes"/>
      <point x="581" y="589"/>
      <point x="590" y="578"/>
      <point x="590" y="557" type="curve" smooth="yes"/>
      <point x="590" y="149" type="line"/>
      <point x="623" y="226" type="line"/>
      <point x="247" y="660" type="line" smooth="yes"/>
      <point x="219" y="692"/>
      <point x="207" y="700"/>
      <point x="185" y="700" type="curve" smooth="yes"/>
      <point x="54" y="700" type="line" smooth="yes"/>
      <point x="35.0" y="700"/>
      <point x="23.0" y="690"/>
      <point x="23" y="667" type="curve" smooth="yes"/>
      <point x="23.0" y="646"/>
      <point x="32.69331319148672" y="633.429077905076"/>
      <point x="51" y="617" type="curve" smooth="yes"/>
      <point x="90" y="582" type="line" smooth="yes"/>
      <point x="109" y="565"/>
      <point x="119.0" y="549.0"/>
      <point x="119.0" y="513" type="curve" smooth="yes"/>
      <point x="119" y="139" type="line" smooth="yes"/>
      <point x="119" y="119"/>
      <point x="102" y="104"/>
      <point x="80" y="94" type="curve" smooth="yes"/>
      <point x="53" y="82" type="line" smooth="yes"/>
      <point x="30" y="72"/>
      <point x="20" y="58"/>
      <point x="20" y="34" type="curve" smooth="yes"/>
      <point x="20" y="9"/>
      <point x="33" y="0"/>
      <point x="51" y="0" type="curve" smooth="yes"/>
      <point x="270" y="0" type="line" smooth="yes"/>
      <point x="291" y="0"/>
      <point x="305" y="13"/>
    </contour>
  </outline>
</glyph>
<glyph name="O" format="2">
  <advance width="793"/>
  <unicode hex="004F"/>
  <outline>
    <contour>
      <point x="397" y="713" type="curve" smooth="yes"/>
      <point x="170" y="713"/>
      <point x="30" y="550"/>
      <point x="30" y="354" type="curve" smooth="yes"/>
      <point x="30" y="135"/>
      <point x="172" y="-15"/>
      <point x="397" y="-15" type="curve" smooth="yes"/>
      <point x="617" y="-15"/>
      <point x="763" y="140"/>
      <point x="763" y="355" type="curve" smooth="yes"/>
      <point x="763" y="561"/>
      <point x="616" y="713"/>
    </contour>
    <contour>
      <point x="474" y="623"/>
      <point x="591" y="479"/>
      <point x="591" y="289" type="curve" smooth="yes"/>
      <point x="591" y="150"/>
      <point x="534" y="77"/>
      <point x="445" y="77" type="curve" smooth="yes"/>
      <point x="320" y="77"/>
      <point x="200" y="223"/>
      <point x="200" y="415" type="curve" smooth="yes"/>
      <point x="200" y="540"/>
      <point x="256" y="623"/>
      <point x="350" y="623" type="curve" smooth="yes"/>
    </contour>
  </outline>
</glyph>
<glyph name="P" format="2">
  <advance width="690"/>
  <unicode hex="0050"/>
  <outline>
    <contour>
      <point x="685" y="434" type="curve" smooth="yes"/>
      <point x="685" y="593"/>
      <point x="546" y="700"/>
      <point x="338" y="700" type="curve" smooth="yes"/>
      <point x="76" y="700" type="line" smooth="yes"/>
      <point x="56" y="700"/>
      <point x="45" y="687"/>
      <point x="45" y="665" type="curve" smooth="yes"/>
      <point x="45" y="645"/>
      <point x="54" y="632"/>
      <point x="73" y="627" type="curve" smooth="yes"/>
      <point x="98" y="621" type="line" smooth="yes"/>
      <point x="122" y="615"/>
      <point x="135" y="599"/>
      <point x="135" y="576" type="curve" smooth="yes"/>
      <point x="135" y="122" type="line" smooth="yes"/>
      <point x="135" y="100"/>
      <point x="122" y="84"/>
      <point x="98" y="78" type="curve" smooth="yes"/>
      <point x="73" y="72" type="line" smooth="yes"/>
      <point x="53" y="67"/>
      <point x="45" y="54"/>
      <point x="45" y="34" type="curve" smooth="yes"/>
      <point x="45" y="13"/>
      <point x="56" y="0"/>
      <point x="76" y="0" type="curve" smooth="yes"/>
      <point x="358" y="0" type="line" smooth="yes"/>
      <point x="377" y="0"/>
      <point x="389" y="13"/>
      <point x="389" y="34" type="curve" smooth="yes"/>
      <point x="389" y="54"/>
      <point x="379" y="68"/>
      <point x="361" y="72" type="curve" smooth="yes"/>
      <point x="336" y="78" type="line" smooth="yes"/>
      <point x="312" y="84"/>
      <point x="299" y="100"/>
      <point x="299" y="122" type="curve" smooth="yes"/>
      <point x="299" y="626" type="line"/>
      <point x="333" y="626" type="line" smooth="yes"/>
      <point x="440" y="626"/>
      <point x="515" y="552"/>
      <point x="515" y="449" type="curve" smooth="yes"/>
      <point x="515" y="339"/>
      <point x="445" y="283"/>
      <point x="359" y="283" type="curve" smooth="yes"/>
      <point x="288" y="283"/>
      <point x="255" y="298"/>
      <point x="216" y="318" type="curve"/>
      <point x="206" y="253" type="line"/>
      <point x="256" y="226"/>
      <point x="301" y="211"/>
      <point x="408" y="211" type="curve" smooth="yes"/>
      <point x="573" y="211"/>
      <point x="685" y="301"/>
    </contour>
  </outline>
</glyph>
<glyph name="Q" format="2">
  <advance width="798"/>
  <unicode hex="0051"/>
  <outline>
    <contour>
      <point x="401" y="187" type="curve" smooth="yes"/>
      <point x="452.4098018335451" y="-80.52137620789199"/>
      <point x="571.0" y="-176.0"/>
      <point x="666" y="-176" type="curve" smooth="yes"/>
      <point x="715.0" y="-176.0"/>
      <point x="739" y="-160"/>
      <point x="754" y="-134" type="curve" smooth="yes"/>
      <point x="770" y="-107" type="line" smooth="yes"/>
      <point x="782.0" y="-88.0"/>
      <point x="788.0" y="-71.0"/>
      <point x="788" y="-50" type="curve" smooth="yes"/>
      <point x="788" y="-30"/>
      <point x="773.3333333333334" y="-17.0"/>
      <point x="756" y="-17" type="curve" smooth="yes"/>
      <point x="731.5714285714286" y="-17.0"/>
      <point x="714.4651162790698" y="-32.0"/>
      <point x="680" y="-32" type="curve" smooth="yes"/>
      <point x="591" y="-32"/>
      <point x="513" y="20"/>
      <point x="465" y="200" type="curve" smooth="yes"/>
      <point x="457" y="228"/>
      <point x="445" y="244"/>
      <point x="427" y="244" type="curve" smooth="yes"/>
      <point x="412" y="244"/>
      <point x="398" y="233"/>
      <point x="398" y="216" type="curve" smooth="yes"/>
      <point x="398" y="205"/>
      <point x="399" y="198"/>
    </contour>
    <component base="O"/>
  </outline>
</glyph>
<glyph name="R" format="2">
  <advance width="718"/>
  <unicode hex="0052"/>
  <anchor x="318" y="738" name="center"/>
  <outline>
    <contour>
      <point x="670" y="451" type="curve" smooth="yes"/>
      <point x="670" y="602"/>
      <point x="522" y="700"/>
      <point x="325" y="700" type="curve" smooth="yes"/>
      <point x="67" y="700" type="line" smooth="yes"/>
      <point x="44" y="700"/>
      <point x="31" y="686"/>
      <point x="31" y="663" type="curve" smooth="yes"/>
      <point x="31" y="643"/>
      <point x="41" y="630"/>
      <point x="64" y="624" type="curve" smooth="yes"/>
      <point x="89" y="618" type="line" smooth="yes"/>
      <point x="113" y="612"/>
      <point x="126" y="596"/>
      <point x="126" y="573" type="curve" smooth="yes"/>
      <point x="126" y="125" type="line" smooth="yes"/>
      <point x="126" y="103"/>
      <point x="113" y="87"/>
      <point x="89" y="81" type="curve" smooth="yes"/>
      <point x="64" y="75" type="line" smooth="yes"/>
      <point x="41" y="70"/>
      <point x="32" y="56"/>
      <point x="32" y="36" type="curve" smooth="yes"/>
      <point x="32" y="14"/>
      <point x="44" y="0"/>
      <point x="67" y="0" type="curve" smooth="yes"/>
      <point x="340" y="0" type="line" smooth="yes"/>
      <point x="362" y="0"/>
      <point x="374" y="14"/>
      <point x="374" y="36" type="curve" smooth="yes"/>
      <point x="374" y="55"/>
      <point x="364" y="67"/>
      <point x="344" y="73" type="curve" smooth="yes"/>
      <point x="317" y="81" type="line" smooth="yes"/>
      <point x="300" y="86"/>
      <point x="290" y="100"/>
      <point x="290" y="125" type="curve" smooth="yes"/>
      <point x="290" y="626" type="line"/>
      <point x="319" y="626" type="line" smooth="yes"/>
      <point x="423" y="626"/>
      <point x="495" y="558"/>
      <point x="495" y="458" type="curve" smooth="yes"/>
      <point x="495" y="374"/>
      <point x="435" y="315"/>
      <point x="351" y="315" type="curve" smooth="yes"/>
      <point x="296" y="315"/>
      <point x="265" y="324"/>
      <point x="227" y="345" type="curve"/>
      <point x="217" y="278" type="line"/>
      <point x="264" y="253"/>
      <point x="303" y="242"/>
      <point x="386" y="242" type="curve" smooth="yes"/>
      <point x="556" y="242"/>
      <point x="670" y="325"/>
    </contour>
    <contour>
      <point x="351" y="272" type="line"/>
      <point x="457" y="124" type="line" smooth="yes"/>
      <point x="465" y="113"/>
      <point x="470" y="104"/>
      <point x="470" y="93" type="curve" smooth="yes"/>
      <point x="470" y="85"/>
      <point x="467" y="78"/>
      <point x="455" y="73" type="curve" smooth="yes"/>
      <point x="439" y="66"/>
      <point x="431" y="54"/>
      <point x="431" y="33" type="curve" smooth="yes"/>
      <point x="431" y="14"/>
      <point x="446" y="0"/>
      <point x="471" y="0" type="curve" smooth="yes"/>
      <point x="683" y="0" type="line" smooth="yes"/>
      <point x="707" y="0"/>
      <point x="718" y="14"/>
      <point x="718" y="36" type="curve" smooth="yes"/>
      <point x="718" y="54"/>
      <point x="707" y="65"/>
      <point x="693" y="73" type="curve" smooth="yes"/>
      <point x="668" y="88"/>
      <point x="648" y="96"/>
      <point x="633" y="118" type="curve" smooth="yes"/>
      <point x="519" y="283" type="line"/>
    </contour>
  </outline>
</glyph>
<glyph name="S" format="2">
  <advance width="593"/>
  <unicode hex="0053"/>
  <guideline x="366" y="432" angle="0" identifier="SfzeLWEwaB"/>
  <outline>
    <contour>
      <point x="298" y="-15" type="curve" smooth="yes"/>
      <point x="460" y="-15"/>
      <point x="557" y="77"/>
      <point x="557" y="194" type="curve" smooth="yes"/>
      <point x="557" y="289"/>
      <point x="501" y="366"/>
      <point x="332" y="419" type="curve" smooth="yes"/>
      <point x="234" y="449"/>
      <point x="193" y="489"/>
      <point x="193" y="549" type="curve" smooth="yes"/>
      <point x="193" y="601"/>
      <point x="233" y="640"/>
      <point x="286" y="640" type="curve" smooth="yes"/>
      <point x="338" y="640"/>
      <point x="400" y="617"/>
      <point x="446" y="531" type="curve" smooth="yes"/>
      <point x="469" y="489"/>
      <point x="492" y="476"/>
      <point x="519" y="476" type="curve" smooth="yes"/>
      <point x="549" y="476"/>
      <point x="563" y="496"/>
      <point x="563" y="521" type="curve" smooth="yes"/>
      <point x="563" y="535"/>
      <point x="560" y="546"/>
      <point x="556" y="557" type="curve" smooth="yes"/>
      <point x="519" y="675" type="line" smooth="yes"/>
      <point x="511" y="700"/>
      <point x="491" y="723"/>
      <point x="466" y="723" type="curve" smooth="yes"/>
      <point x="435" y="723"/>
      <point x="430" y="698"/>
      <point x="406" y="698" type="curve" smooth="yes"/>
      <point x="386" y="698"/>
      <point x="355" y="713"/>
      <point x="310" y="713" type="curve" smooth="yes"/>
      <point x="140" y="713"/>
      <point x="35" y="619"/>
      <point x="35" y="496" type="curve" smooth="yes"/>
      <point x="35" y="390"/>
      <point x="93" y="312"/>
      <point x="273" y="262" type="curve" smooth="yes"/>
      <point x="364" y="237"/>
      <point x="403" y="209"/>
      <point x="403" y="151" type="curve" smooth="yes"/>
      <point x="403" y="96"/>
      <point x="365" y="62"/>
      <point x="305" y="62" type="curve" smooth="yes"/>
      <point x="244" y="62"/>
      <point x="207" y="83"/>
      <point x="158" y="161" type="curve" smooth="yes"/>
      <point x="123" y="216"/>
      <point x="111" y="229"/>
      <point x="88" y="229" type="curve" smooth="yes"/>
      <point x="60" y="229"/>
      <point x="41" y="206"/>
      <point x="48" y="163" type="curve" smooth="yes"/>
      <point x="71" y="28" type="line" smooth="yes"/>
      <point x="77" y="-8"/>
      <point x="95" y="-25"/>
      <point x="124" y="-25" type="curve" smooth="yes"/>
      <point x="151" y="-25"/>
      <point x="160" y="-1"/>
      <point x="180" y="-1" type="curve" smooth="yes"/>
      <point x="203" y="-1"/>
      <point x="238" y="-15"/>
    </contour>
  </outline>
</glyph>
<glyph name="T" format="2">
  <advance width="616"/>
  <unicode hex="0054"/>
  <outline>
    <contour>
      <point x="139" y="700" type="line" smooth="yes"/>
      <point x="130" y="700"/>
      <point x="118" y="703"/>
      <point x="111" y="713" type="curve" smooth="yes"/>
      <point x="98" y="726"/>
      <point x="88" y="732"/>
      <point x="73" y="732" type="curve" smooth="yes"/>
      <point x="52" y="732"/>
      <point x="42" y="724"/>
      <point x="37" y="702" type="curve" smooth="yes"/>
      <point x="3" y="552" type="line" smooth="yes"/>
      <point x="-5.183723914298536" y="515.8953356722124"/>
      <point x="9.0" y="501.0"/>
      <point x="30" y="501" type="curve" smooth="yes"/>
      <point x="49.0" y="501.0"/>
      <point x="63.8691127170658" y="508.51309353701674"/>
      <point x="88" y="548" type="curve" smooth="yes"/>
      <point x="121.55601238298917" y="602.2817847371883"/>
      <point x="153.08333333333334" y="628"/>
      <point x="187" y="628" type="curve" smooth="yes"/>
      <point x="225" y="628" type="line"/>
      <point x="225" y="134" type="line" smooth="yes"/>
      <point x="225" y="104"/>
      <point x="213" y="89"/>
      <point x="188" y="82" type="curve" smooth="yes"/>
      <point x="169" y="77" type="line" smooth="yes"/>
      <point x="141" y="70"/>
      <point x="126" y="58"/>
      <point x="126" y="36" type="curve" smooth="yes"/>
      <point x="126" y="12"/>
      <point x="143" y="0"/>
      <point x="167" y="0" type="curve" smooth="yes"/>
      <point x="448" y="0" type="line" smooth="yes"/>
      <point x="473" y="0"/>
      <point x="489" y="12"/>
      <point x="489" y="36" type="curve" smooth="yes"/>
      <point x="489" y="58"/>
      <point x="475" y="69"/>
      <point x="446" y="77" type="curve" smooth="yes"/>
      <point x="427" y="82" type="line" smooth="yes"/>
      <point x="402" y="89"/>
      <point x="390" y="104"/>
      <point x="390" y="134" type="curve" smooth="yes"/>
      <point x="390" y="628" type="line"/>
      <point x="429" y="628" type="line" smooth="yes"/>
      <point x="462.5420560747664" y="628"/>
      <point x="495.39115824546843" y="597.3438635882464"/>
      <point x="526" y="546" type="curve" smooth="yes"/>
      <point x="550.0965032446609" y="506.56935832691863"/>
      <point x="567.0" y="499.0"/>
      <point x="587" y="499" type="curve" smooth="yes"/>
      <point x="610.0" y="499.0"/>
      <point x="621.4633086655327" y="513.2450595096861"/>
      <point x="613" y="550" type="curve" smooth="yes"/>
      <point x="578" y="702" type="line" smooth="yes"/>
      <point x="573" y="725"/>
      <point x="564" y="734"/>
      <point x="542" y="734" type="curve" smooth="yes"/>
      <point x="528" y="734"/>
      <point x="517" y="728"/>
      <point x="505" y="713" type="curve" smooth="yes"/>
      <point x="496" y="703"/>
      <point x="485" y="700"/>
      <point x="476" y="700" type="curve" smooth="yes"/>
    </contour>
  </outline>
</glyph>
<glyph name="U" format="2">
  <advance width="722"/>
  <unicode hex="0055"/>
  <anchor x="361" y="730" name="center"/>
  <outline>
    <contour>
      <point x="551" y="303" type="line" smooth="yes"/>
      <point x="553" y="278"/>
      <point x="555" y="254"/>
      <point x="555" y="210" type="curve" smooth="yes"/>
      <point x="555" y="128"/>
      <point x="499" y="79"/>
      <point x="401" y="79" type="curve" smooth="yes"/>
      <point x="302" y="79"/>
      <point x="243" y="136"/>
      <point x="243" y="233" type="curve" smooth="yes"/>
      <point x="243" y="255"/>
      <point x="245" y="287"/>
      <point x="247" y="324" type="curve" smooth="yes"/>
      <point x="262" y="571" type="line" smooth="yes"/>
      <point x="264" y="601"/>
      <point x="279" y="623"/>
      <point x="310" y="632" type="curve" smooth="yes"/>
      <point x="330" y="638" type="line" smooth="yes"/>
      <point x="348" y="643"/>
      <point x="358" y="651"/>
      <point x="358" y="671" type="curve" smooth="yes"/>
      <point x="358" y="691"/>
      <point x="349" y="700"/>
      <point x="328" y="700" type="curve" smooth="yes"/>
      <point x="45" y="700" type="line" smooth="yes"/>
      <point x="24" y="700"/>
      <point x="15" y="691"/>
      <point x="15" y="671" type="curve" smooth="yes"/>
      <point x="15" y="651"/>
      <point x="26" y="647"/>
      <point x="43" y="638" type="curve" smooth="yes"/>
      <point x="55" y="632" type="line" smooth="yes"/>
      <point x="82" y="619"/>
      <point x="100" y="588"/>
      <point x="97" y="550" type="curve" smooth="yes"/>
      <point x="82" y="329" type="line" smooth="yes"/>
      <point x="79.87823955142589" y="297.73939605767487"/>
      <point x="74.0" y="235.81889763779526"/>
      <point x="74" y="207" type="curve" smooth="yes"/>
      <point x="74.0" y="67.72641509433961"/>
      <point x="167.0" y="-15.0"/>
      <point x="339" y="-15" type="curve" smooth="yes"/>
      <point x="552" y="-15"/>
      <point x="650" y="82"/>
      <point x="650" y="206" type="curve" smooth="yes"/>
      <point x="650" y="240"/>
      <point x="648" y="271"/>
      <point x="645" y="304" type="curve" smooth="yes"/>
      <point x="622" y="555" type="line" smooth="yes"/>
      <point x="619" y="587"/>
      <point x="635" y="613"/>
      <point x="661" y="625" type="curve" smooth="yes"/>
      <point x="688" y="637" type="line" smooth="yes"/>
      <point x="706" y="645"/>
      <point x="712" y="654"/>
      <point x="712" y="672" type="curve" smooth="yes"/>
      <point x="712" y="688"/>
      <point x="702" y="700"/>
      <point x="689" y="700" type="curve" smooth="yes"/>
      <point x="460" y="700" type="line" smooth="yes"/>
      <point x="442" y="700"/>
      <point x="431" y="692"/>
      <point x="431" y="671" type="curve" smooth="yes"/>
      <point x="431" y="657"/>
      <point x="442" y="644"/>
      <point x="462" y="636" type="curve" smooth="yes"/>
      <point x="488" y="625" type="line" smooth="yes"/>
      <point x="520" y="611"/>
      <point x="532" y="601"/>
      <point x="535" y="555" type="curve" smooth="yes"/>
    </contour>
  </outline>
</glyph>
<glyph name="V" format="2">
  <advance width="740"/>
  <unicode hex="0056"/>
  <outline>
    <contour>
      <point x="488" y="663" type="curve" smooth="yes"/>
      <point x="488.0" y="641.9787234042553"/>
      <point x="501.7989845022292" y="625.7895094708599"/>
      <point x="526" y="611" type="curve" smooth="yes"/>
      <point x="533" y="607" type="line" smooth="yes"/>
      <point x="565" y="589"/>
      <point x="572" y="540"/>
      <point x="541" y="468" type="curve" smooth="yes"/>
      <point x="367" y="61" type="line"/>
      <point x="442" y="108" type="line"/>
      <point x="273" y="520" type="line" smooth="yes"/>
      <point x="257" y="558"/>
      <point x="264" y="594"/>
      <point x="289" y="609" type="curve" smooth="yes"/>
      <point x="299" y="615" type="line" smooth="yes"/>
      <point x="318" y="626"/>
      <point x="332.0" y="639.0"/>
      <point x="332" y="663" type="curve" smooth="yes"/>
      <point x="332" y="686"/>
      <point x="319" y="700"/>
      <point x="298" y="700" type="curve" smooth="yes"/>
      <point x="41" y="700" type="line" smooth="yes"/>
      <point x="15.870967741935484" y="700"/>
      <point x="0.0" y="688.3333333333334"/>
      <point x="0" y="665" type="curve" smooth="yes"/>
      <point x="0.0" y="644.8974358974359"/>
      <point x="9" y="630"/>
      <point x="30" y="616" type="curve" smooth="yes"/>
      <point x="43" y="608"/>
      <point x="60.3897412248965" y="591.3163763569736"/>
      <point x="78" y="550" type="curve" smooth="yes"/>
      <point x="260" y="123" type="line" smooth="yes"/>
      <point x="275" y="87"/>
      <point x="278" y="75"/>
      <point x="278" y="59" type="curve" smooth="yes"/>
      <point x="278.0" y="48" type="line" smooth="yes"/>
      <point x="278.0" y="16.0"/>
      <point x="296" y="0"/>
      <point x="321" y="0" type="curve" smooth="yes"/>
      <point x="413" y="0" type="line" smooth="yes"/>
      <point x="440.0" y="0"/>
      <point x="458" y="17.888888888888886"/>
      <point x="458" y="46" type="curve" smooth="yes"/>
      <point x="458" y="56" type="line" smooth="yes"/>
      <point x="458" y="78"/>
      <point x="461" y="96"/>
      <point x="473" y="123" type="curve" smooth="yes"/>
      <point x="649" y="522" type="line" smooth="yes"/>
      <point x="669.9001392588132" y="569.3815657060594"/>
      <point x="686" y="589"/>
      <point x="706" y="602" type="curve" smooth="yes"/>
      <point x="729" y="618"/>
      <point x="740.0" y="637"/>
      <point x="740.0" y="655" type="curve" smooth="yes"/>
      <point x="740.0" y="685.0"/>
      <point x="720.2790697674419" y="700"/>
      <point x="687" y="700" type="curve" smooth="yes"/>
      <point x="527" y="700" type="line" smooth="yes"/>
      <point x="501" y="700"/>
      <point x="488.0" y="685"/>
    </contour>
  </outline>
</glyph>
<glyph name="W" format="2">
  <advance width="1075"/>
  <unicode hex="0057"/>
  <outline>
    <contour>
      <point x="532" y="539" type="line"/>
      <point x="350" y="86" type="line"/>
      <point x="417" y="95" type="line"/>
      <point x="255" y="548" type="line" smooth="yes"/>
      <point x="240" y="591"/>
      <point x="254" y="613"/>
      <point x="279" y="619" type="curve" smooth="yes"/>
      <point x="286" y="621" type="line" smooth="yes"/>
      <point x="310" y="628"/>
      <point x="322" y="640"/>
      <point x="322" y="663" type="curve" smooth="yes"/>
      <point x="322" y="686"/>
      <point x="308" y="700"/>
      <point x="288" y="700" type="curve" smooth="yes"/>
      <point x="46" y="700" type="line" smooth="yes"/>
      <point x="20" y="700"/>
      <point x="5" y="685"/>
      <point x="5" y="660" type="curve" smooth="yes"/>
      <point x="5" y="643"/>
      <point x="13" y="625"/>
      <point x="38" y="613" type="curve" smooth="yes"/>
      <point x="58" y="604"/>
      <point x="71" y="593"/>
      <point x="86" y="552" type="curve" smooth="yes"/>
      <point x="233" y="163" type="line" smooth="yes"/>
      <point x="252" y="113"/>
      <point x="257" y="94"/>
      <point x="257" y="70" type="curve" smooth="yes"/>
      <point x="257" y="52" type="line" smooth="yes"/>
      <point x="257" y="19"/>
      <point x="278" y="0"/>
      <point x="302" y="0" type="curve" smooth="yes"/>
      <point x="384" y="0" type="line" smooth="yes"/>
      <point x="412" y="0"/>
      <point x="429" y="20"/>
      <point x="429" y="47" type="curve" smooth="yes"/>
      <point x="429" y="66" type="line" smooth="yes"/>
      <point x="429" y="89"/>
      <point x="438" y="115"/>
      <point x="455" y="157" type="curve" smooth="yes"/>
      <point x="589" y="483" type="line"/>
    </contour>
    <contour>
      <point x="822" y="660" type="curve" smooth="yes"/>
      <point x="822" y="639"/>
      <point x="835" y="627"/>
      <point x="862" y="612" type="curve" smooth="yes"/>
      <point x="881" y="601" type="line" smooth="yes"/>
      <point x="912" y="583"/>
      <point x="914" y="552"/>
      <point x="900" y="517" type="curve" smooth="yes"/>
      <point x="722" y="61" type="line"/>
      <point x="805" y="79" type="line"/>
      <point x="646" y="538" type="line" smooth="yes"/>
      <point x="630" y="583"/>
      <point x="640" y="615"/>
      <point x="661" y="620" type="curve" smooth="yes"/>
      <point x="669" y="622" type="line" smooth="yes"/>
      <point x="687" y="627"/>
      <point x="697" y="639"/>
      <point x="697" y="663" type="curve" smooth="yes"/>
      <point x="697" y="686"/>
      <point x="684" y="700"/>
      <point x="664" y="700" type="curve" smooth="yes"/>
      <point x="436" y="700" type="line" smooth="yes"/>
      <point x="412" y="700"/>
      <point x="397" y="688"/>
      <point x="397" y="665" type="curve" smooth="yes"/>
      <point x="397" y="647"/>
      <point x="406" y="632"/>
      <point x="425" y="620" type="curve" smooth="yes"/>
      <point x="444" y="608"/>
      <point x="461" y="590"/>
      <point x="473" y="556" type="curve" smooth="yes"/>
      <point x="621" y="145" type="line" smooth="yes"/>
      <point x="636" y="104"/>
      <point x="641" y="85"/>
      <point x="641" y="59" type="curve" smooth="yes"/>
      <point x="641" y="47" type="line" smooth="yes"/>
      <point x="641" y="22"/>
      <point x="660" y="0"/>
      <point x="685" y="0" type="curve" smooth="yes"/>
      <point x="769" y="0" type="line" smooth="yes"/>
      <point x="796" y="0"/>
      <point x="813" y="22"/>
      <point x="813" y="46" type="curve" smooth="yes"/>
      <point x="813" y="56" type="line" smooth="yes"/>
      <point x="813" y="79"/>
      <point x="820" y="111"/>
      <point x="832" y="142" type="curve" smooth="yes"/>
      <point x="989" y="536" type="line" smooth="yes"/>
      <point x="1009" y="586"/>
      <point x="1020" y="594"/>
      <point x="1041" y="609" type="curve" smooth="yes"/>
      <point x="1059" y="622"/>
      <point x="1070" y="637"/>
      <point x="1070" y="665" type="curve" smooth="yes"/>
      <point x="1070" y="688"/>
      <point x="1052" y="700"/>
      <point x="1027" y="700" type="curve" smooth="yes"/>
      <point x="868" y="700" type="line" smooth="yes"/>
      <point x="839" y="700"/>
      <point x="822" y="684"/>
    </contour>
  </outline>
</glyph>
<glyph name="X" format="2">
  <advance width="729"/>
  <unicode hex="0058"/>
  <outline>
    <contour>
      <point x="639" y="118" type="curve" smooth="yes"/>
      <point x="316" y="554" type="line" smooth="yes"/>
      <point x="292" y="586"/>
      <point x="294" y="612"/>
      <point x="325" y="620" type="curve" smooth="yes"/>
      <point x="336" y="623" type="line" smooth="yes"/>
      <point x="352" y="627"/>
      <point x="365.0" y="640"/>
      <point x="365" y="663" type="curve" smooth="yes"/>
      <point x="365.0" y="687.0"/>
      <point x="350.0" y="700.0"/>
      <point x="324" y="700" type="curve" smooth="yes"/>
      <point x="38" y="700" type="line" smooth="yes"/>
      <point x="20" y="700"/>
      <point x="7.0" y="687.75"/>
      <point x="7" y="665" type="curve" smooth="yes"/>
      <point x="7.0" y="646.7931034482758"/>
      <point x="14.909796017796626" y="632.8211515644371"/>
      <point x="45" y="621" type="curve" smooth="yes"/>
      <point x="71.0" y="612.0"/>
      <point x="76" y="604"/>
      <point x="95" y="579" type="curve" smooth="yes"/>
      <point x="416" y="151" type="line" smooth="yes"/>
      <point x="453" y="102"/>
      <point x="448" y="93"/>
      <point x="402" y="81" type="curve" smooth="yes"/>
      <point x="382" y="76"/>
      <point x="371.0" y="65"/>
      <point x="371.0" y="40" type="curve" smooth="yes"/>
      <point x="371.0" y="16.0"/>
      <point x="390.0" y="0"/>
      <point x="416" y="0" type="curve" smooth="yes"/>
      <point x="688" y="0" type="line" smooth="yes"/>
      <point x="714" y="0"/>
      <point x="729.0" y="15"/>
      <point x="729" y="38" type="curve" smooth="yes"/>
      <point x="729.0" y="64"/>
      <point x="717" y="79"/>
      <point x="696" y="81" type="curve" smooth="yes"/>
      <point x="671.278558646918" y="83.55739048480159"/>
      <point x="659" y="92"/>
    </contour>
    <contour>
      <point x="404" y="311" type="line"/>
      <point x="582" y="536" type="line" smooth="yes"/>
      <point x="614.5939223710311" y="577.2001827723707"/>
      <point x="636.5788345731067" y="595.0506363075621"/>
      <point x="661" y="605" type="curve" smooth="yes"/>
      <point x="696.6939267594181" y="618.8809715175515"/>
      <point x="710.0665900353852" y="632.9977010615564"/>
      <point x="711" y="661" type="curve" smooth="yes"/>
      <point x="712.1140403820557" y="684.3948480231685"/>
      <point x="697" y="700"/>
      <point x="672" y="700" type="curve" smooth="yes"/>
      <point x="461" y="700" type="line" smooth="yes"/>
      <point x="435.44827586206895" y="700"/>
      <point x="422.0" y="687.0"/>
      <point x="422" y="663" type="curve" smooth="yes"/>
      <point x="422.0" y="640.0"/>
      <point x="434" y="630"/>
      <point x="463" y="619" type="curve" smooth="yes"/>
      <point x="481" y="612" type="line" smooth="yes"/>
      <point x="509" y="601"/>
      <point x="507" y="561"/>
      <point x="475" y="520" type="curve" smooth="yes"/>
      <point x="340" y="346" type="line"/>
    </contour>
    <contour>
      <point x="327" y="390" type="line"/>
      <point x="149" y="163" type="line" smooth="yes"/>
      <point x="123.47916128335332" y="130.45376186135508"/>
      <point x="91.60425033087608" y="107.45240007562882"/>
      <point x="59" y="100" type="curve" smooth="yes"/>
      <point x="12.919456460174516" y="89.88475873516026"/>
      <point x="0.0" y="63.9344262295082"/>
      <point x="0" y="45" type="curve" smooth="yes"/>
      <point x="0.0" y="13.846153846153847"/>
      <point x="16.538461538461537" y="0"/>
      <point x="43" y="0" type="curve" smooth="yes"/>
      <point x="256" y="0" type="line" smooth="yes"/>
      <point x="282" y="0"/>
      <point x="295.0" y="14.0"/>
      <point x="295" y="36" type="curve" smooth="yes"/>
      <point x="295.0" y="52"/>
      <point x="290" y="68"/>
      <point x="258" y="82" type="curve" smooth="yes"/>
      <point x="231" y="94" type="line" smooth="yes"/>
      <point x="211" y="103"/>
      <point x="207" y="123"/>
      <point x="225" y="145" type="curve" smooth="yes"/>
      <point x="390" y="355" type="line"/>
    </contour>
  </outline>
</glyph>
<glyph name="Y" format="2">
  <advance width="677"/>
  <unicode hex="0059"/>
  <anchor x="329" y="710" name="center"/>
  <outline>
    <contour>
      <point x="249" y="246" type="line"/>
      <point x="249" y="124" type="line" smooth="yes"/>
      <point x="249" y="98"/>
      <point x="237" y="86"/>
      <point x="213" y="80" type="curve" smooth="yes"/>
      <point x="188" y="74" type="line" smooth="yes"/>
      <point x="170" y="70"/>
      <point x="160" y="59"/>
      <point x="160" y="35" type="curve" smooth="yes"/>
      <point x="160" y="11"/>
      <point x="169" y="0"/>
      <point x="190" y="0" type="curve" smooth="yes"/>
      <point x="473" y="0" type="line" smooth="yes"/>
      <point x="494" y="0"/>
      <point x="503" y="11"/>
      <point x="503" y="35" type="curve" smooth="yes"/>
      <point x="503" y="59"/>
      <point x="493" y="70"/>
      <point x="475" y="74" type="curve" smooth="yes"/>
      <point x="450" y="80" type="line" smooth="yes"/>
      <point x="426" y="86"/>
      <point x="414" y="98"/>
      <point x="414" y="124" type="curve" smooth="yes"/>
      <point x="414" y="246" type="line"/>
    </contour>
    <contour>
      <point x="400" y="205" type="line"/>
      <point x="567" y="536" type="line" smooth="yes"/>
      <point x="593" y="587"/>
      <point x="615" y="599"/>
      <point x="644" y="609" type="curve" smooth="yes"/>
      <point x="665" y="616"/>
      <point x="672" y="638"/>
      <point x="672" y="658" type="curve" smooth="yes"/>
      <point x="672" y="686"/>
      <point x="662" y="700"/>
      <point x="639" y="700" type="curve" smooth="yes"/>
      <point x="450" y="700" type="line" smooth="yes"/>
      <point x="432" y="700"/>
      <point x="421" y="685"/>
      <point x="421" y="663" type="curve" smooth="yes"/>
      <point x="421" y="644"/>
      <point x="432" y="625"/>
      <point x="456" y="617" type="curve" smooth="yes"/>
      <point x="490" y="604"/>
      <point x="497" y="590"/>
      <point x="498" y="575" type="curve" smooth="yes"/>
      <point x="498" y="564"/>
      <point x="494" y="550"/>
      <point x="486" y="534" type="curve" smooth="yes"/>
      <point x="351" y="253" type="line"/>
      <point x="395" y="273" type="line"/>
      <point x="252" y="557" type="line" smooth="yes"/>
      <point x="237" y="587"/>
      <point x="251" y="612"/>
      <point x="282" y="619" type="curve" smooth="yes"/>
      <point x="303" y="624" type="line" smooth="yes"/>
      <point x="319" y="628"/>
      <point x="327" y="640"/>
      <point x="327" y="663" type="curve" smooth="yes"/>
      <point x="327" y="686"/>
      <point x="317" y="700"/>
      <point x="302" y="700" type="curve" smooth="yes"/>
      <point x="36" y="700" type="line" smooth="yes"/>
      <point x="17" y="700"/>
      <point x="5" y="688"/>
      <point x="5" y="665" type="curve" smooth="yes"/>
      <point x="5" y="647"/>
      <point x="9" y="629"/>
      <point x="30" y="621" type="curve" smooth="yes"/>
      <point x="56" y="612"/>
      <point x="58" y="599"/>
      <point x="78" y="561" type="curve" smooth="yes"/>
      <point x="265" y="205" type="line"/>
      <point x="269" y="208" type="line"/>
      <point x="267" y="204" type="line"/>
    </contour>
  </outline>
</glyph>
<glyph name="Z" format="2">
  <advance width="649"/>
  <unicode hex="005A"/>
  <outline>
    <contour>
      <point x="581" y="606" type="line" smooth="yes"/>
      <point x="596" y="629"/>
      <point x="604" y="649"/>
      <point x="604" y="661" type="curve" smooth="yes"/>
      <point x="604" y="682"/>
      <point x="592" y="698"/>
      <point x="564" y="698" type="curve" smooth="yes"/>
      <point x="202" y="698" type="line" smooth="yes"/>
      <point x="171" y="698"/>
      <point x="144" y="721"/>
      <point x="115" y="721" type="curve" smooth="yes"/>
      <point x="90" y="721"/>
      <point x="76" y="702"/>
      <point x="68" y="664" type="curve" smooth="yes"/>
      <point x="45" y="549" type="line" smooth="yes"/>
      <point x="42" y="534"/>
      <point x="41" y="522"/>
      <point x="41" y="508" type="curve" smooth="yes"/>
      <point x="41" y="485"/>
      <point x="53" y="471"/>
      <point x="71" y="471" type="curve" smooth="yes"/>
      <point x="98" y="471"/>
      <point x="117" y="485"/>
      <point x="131" y="517" type="curve" smooth="yes"/>
      <point x="146" y="551" type="line" smooth="yes"/>
      <point x="167" y="599"/>
      <point x="205" y="627"/>
      <point x="249" y="627" type="curve" smooth="yes"/>
      <point x="452" y="627" type="line"/>
      <point x="441" y="664" type="line"/>
      <point x="66" y="91" type="line" smooth="yes"/>
      <point x="45" y="59"/>
      <point x="45" y="52"/>
      <point x="45" y="44" type="curve" smooth="yes"/>
      <point x="45" y="19"/>
      <point x="60" y="-3"/>
      <point x="97" y="-3" type="curve" smooth="yes"/>
      <point x="428" y="-3" type="line" smooth="yes"/>
      <point x="486" y="-3"/>
      <point x="514" y="-28"/>
      <point x="540" y="-28" type="curve" smooth="yes"/>
      <point x="572" y="-28"/>
      <point x="590" y="-16"/>
      <point x="596" y="19" type="curve" smooth="yes"/>
      <point x="617" y="143" type="line" smooth="yes"/>
      <point x="622" y="173"/>
      <point x="624" y="189"/>
      <point x="624" y="207" type="curve" smooth="yes"/>
      <point x="624" y="229"/>
      <point x="608" y="242"/>
      <point x="591" y="242" type="curve" smooth="yes"/>
      <point x="572" y="242"/>
      <point x="559" y="231"/>
      <point x="545" y="203" type="curve" smooth="yes"/>
      <point x="524" y="160" type="line" smooth="yes"/>
      <point x="489" y="88"/>
      <point x="446" y="68"/>
      <point x="388" y="68" type="curve" smooth="yes"/>
      <point x="131" y="68" type="line"/>
      <point x="204" y="30" type="line"/>
    </contour>
  </outline>
</glyph>
<glyph name="bracketleft" format="2">
  <advance width="378"/>
  <unicode hex="005B"/>
  <outline>
    <contour>
      <point x="237" y="639" type="line" smooth="yes"/>
      <point x="237" y="669"/>
      <point x="261" y="693"/>
      <point x="290" y="693" type="curve" smooth="yes"/>
      <point x="310" y="693" type="line" smooth="yes"/>
      <point x="341.27272727272725" y="693"/>
      <point x="353.0" y="702.0"/>
      <point x="353" y="723" type="curve" smooth="yes"/>
      <point x="353.0" y="739.5"/>
      <point x="341.0967741935484" y="756"/>
      <point x="312" y="756" type="curve" smooth="yes"/>
      <point x="160" y="756" type="line" smooth="yes"/>
      <point x="126" y="756"/>
      <point x="100" y="725"/>
      <point x="100" y="687" type="curve" smooth="yes"/>
      <point x="100" y="-108" type="line" smooth="yes"/>
      <point x="100" y="-146"/>
      <point x="126" y="-177"/>
      <point x="160" y="-177" type="curve" smooth="yes"/>
      <point x="312" y="-177" type="line" smooth="yes"/>
      <point x="341.0967741935484" y="-177"/>
      <point x="353.0" y="-160.5"/>
      <point x="353" y="-144" type="curve" smooth="yes"/>
      <point x="353.0" y="-122.88888888888889"/>
      <point x="341.27272727272725" y="-114"/>
      <point x="310" y="-114" type="curve" smooth="yes"/>
      <point x="290" y="-114" type="line" smooth="yes"/>
      <point x="261" y="-114"/>
      <point x="237.0" y="-90.0"/>
      <point x="237" y="-60" type="curve" smooth="yes"/>
    </contour>
  </outline>
</glyph>
<glyph name="backslash" format="2">
  <advance width="420"/>
  <unicode hex="005C"/>
  <outline>
    <contour>
      <point x="32" y="682" type="curve" smooth="yes"/>
      <point x="27" y="694"/>
      <point x="24" y="704"/>
      <point x="24" y="712" type="curve" smooth="yes"/>
      <point x="24.0" y="745.0"/>
      <point x="48.09090909090909" y="767.0"/>
      <point x="77" y="767" type="curve" smooth="yes"/>
      <point x="107.8108108108108" y="767.0"/>
      <point x="127.72004542854255" y="740.2597955715585"/>
      <point x="134" y="712" type="curve" smooth="yes"/>
      <point x="159.35455318398695" y="606.8255571627209"/>
      <point x="209" y="409"/>
      <point x="231" y="345" type="curve" smooth="yes"/>
      <point x="255" y="277"/>
      <point x="346.8662002920248" y="83.85512308641472"/>
      <point x="388" y="-18" type="curve" smooth="yes"/>
      <point x="396" y="-36"/>
      <point x="397.0" y="-47"/>
      <point x="397" y="-57" type="curve" smooth="yes"/>
      <point x="397.0" y="-80.65517241379311"/>
      <point x="375.3333333333333" y="-106.0"/>
      <point x="347" y="-106" type="curve" smooth="yes"/>
      <point x="318.30434782608694" y="-106.0"/>
      <point x="292.62655478341327" y="-87.05289978572645"/>
      <point x="281" y="-42" type="curve" smooth="yes"/>
      <point x="258.4582451061001" y="58.49865723530368"/>
      <point x="213.93711582814714" y="252.18139664957553"/>
      <point x="188" y="327" type="curve" smooth="yes"/>
      <point x="165.91129263301735" y="397.28225071312653"/>
      <point x="75.66670772553518" y="584.9628717210329"/>
    </contour>
  </outline>
</glyph>
<glyph name="a" format="2">
  <advance width="545"/>
  <unicode hex="0061"/>
  <anchor x="271" y="513" name="center"/>
  <outline>
    <contour>
      <point x="49" y="349" type="curve" smooth="yes"/>
      <point x="49" y="294"/>
      <point x="81" y="269"/>
      <point x="127" y="269" type="curve" smooth="yes"/>
      <point x="178" y="269"/>
      <point x="215" y="310"/>
      <point x="215" y="359" type="curve" smooth="yes"/>
      <point x="215" y="379" type="line" smooth="yes"/>
      <point x="215" y="409"/>
      <point x="233" y="426"/>
      <point x="265" y="426" type="curve" smooth="yes"/>
      <point x="296" y="426"/>
      <point x="325" y="396"/>
      <point x="325" y="345" type="curve" smooth="yes"/>
      <point x="325" y="90" type="line" smooth="yes"/>
      <point x="325" y="18"/>
      <point x="377" y="-15"/>
      <point x="435" y="-15" type="curve" smooth="yes"/>
      <point x="491" y="-15"/>
      <point x="537" y="32"/>
      <point x="537" y="66" type="curve" smooth="yes"/>
      <point x="537" y="76"/>
      <point x="533" y="86"/>
      <point x="521" y="86" type="curve" smooth="yes"/>
      <point x="506" y="86"/>
      <point x="501" y="80"/>
      <point x="489" y="80" type="curve" smooth="yes"/>
      <point x="481" y="80"/>
      <point x="473" y="94"/>
      <point x="473" y="107" type="curve" smooth="yes"/>
      <point x="473" y="352" type="line" smooth="yes"/>
      <point x="473" y="444"/>
      <point x="409" y="489"/>
      <point x="309" y="489" type="curve" smooth="yes"/>
      <point x="145" y="489"/>
      <point x="49" y="410"/>
    </contour>
    <contour>
      <point x="358" y="183" type="curve"/>
      <point x="372" y="233" type="line"/>
      <point x="340" y="245"/>
      <point x="317" y="251"/>
      <point x="274" y="251" type="curve" smooth="yes"/>
      <point x="108" y="251"/>
      <point x="35" y="191"/>
      <point x="35" y="109" type="curve" smooth="yes"/>
      <point x="35" y="35"/>
      <point x="96" y="-15"/>
      <point x="180" y="-15" type="curve" smooth="yes"/>
      <point x="260" y="-15"/>
      <point x="331" y="19"/>
      <point x="376" y="78" type="curve"/>
      <point x="363" y="124" type="line"/>
      <point x="343" y="93"/>
      <point x="301" y="82"/>
      <point x="268" y="82" type="curve" smooth="yes"/>
      <point x="228" y="82"/>
      <point x="198" y="105"/>
      <point x="198" y="142" type="curve" smooth="yes"/>
      <point x="198" y="173"/>
      <point x="222" y="199"/>
      <point x="261" y="199" type="curve" smooth="yes"/>
      <point x="298" y="199"/>
      <point x="328" y="193"/>
    </contour>
  </outline>
</glyph>
<glyph name="b" format="2">
  <advance width="594"/>
  <unicode hex="0062"/>
  <outline>
    <contour>
      <point x="14" y="597" type="curve" smooth="yes"/>
      <point x="25" y="597" type="line" smooth="yes"/>
      <point x="42" y="597"/>
      <point x="55" y="581"/>
      <point x="55" y="552" type="curve" smooth="yes"/>
      <point x="55" y="19" type="line" smooth="yes"/>
      <point x="55" y="-1"/>
      <point x="67" y="-12"/>
      <point x="84" y="-12" type="curve" smooth="yes"/>
      <point x="104" y="-12"/>
      <point x="119" y="-9"/>
      <point x="146" y="2" type="curve" smooth="yes"/>
      <point x="205" y="26" type="line" smooth="yes"/>
      <point x="205" y="672" type="line" smooth="yes"/>
      <point x="205" y="696"/>
      <point x="192" y="715"/>
      <point x="172" y="715" type="curve" smooth="yes"/>
      <point x="149" y="715"/>
      <point x="135" y="706"/>
      <point x="107" y="695" type="curve" smooth="yes"/>
      <point x="18" y="660" type="line" smooth="yes"/>
      <point x="-8" y="650"/>
      <point x="-17" y="636"/>
      <point x="-17" y="621" type="curve" smooth="yes"/>
      <point x="-17" y="606"/>
      <point x="-6" y="597"/>
    </contour>
    <contour>
      <point x="153" y="335" type="line"/>
      <point x="189" y="370"/>
      <point x="236" y="386"/>
      <point x="287" y="386" type="curve" smooth="yes"/>
      <point x="375" y="386"/>
      <point x="423" y="310"/>
      <point x="423" y="222" type="curve" smooth="yes"/>
      <point x="423" y="137"/>
      <point x="371" y="69"/>
      <point x="286" y="69" type="curve" smooth="yes"/>
      <point x="235" y="69"/>
      <point x="188" y="86"/>
      <point x="161" y="129" type="curve"/>
      <point x="125" y="79" type="line"/>
      <point x="170" y="16"/>
      <point x="240" y="-14"/>
      <point x="317" y="-14" type="curve" smooth="yes"/>
      <point x="474" y="-14"/>
      <point x="579" y="100"/>
      <point x="579" y="257" type="curve" smooth="yes"/>
      <point x="579" y="389"/>
      <point x="491" y="490"/>
      <point x="359" y="490" type="curve" smooth="yes"/>
      <point x="269" y="490"/>
      <point x="195" y="442"/>
      <point x="133" y="377" type="curve"/>
    </contour>
  </outline>
</glyph>
<glyph name="c" format="2">
  <advance width="491"/>
  <unicode hex="0063"/>
  <anchor x="298" y="527" name="center"/>
  <outline>
    <contour>
      <point x="477" y="356" type="curve" smooth="yes"/>
      <point x="477" y="436"/>
      <point x="407" y="489"/>
      <point x="305" y="489" type="curve" smooth="yes"/>
      <point x="139" y="489"/>
      <point x="25" y="378"/>
      <point x="25" y="220" type="curve" smooth="yes"/>
      <point x="25" y="81"/>
      <point x="130" y="-15"/>
      <point x="269" y="-15" type="curve" smooth="yes"/>
      <point x="380" y="-15"/>
      <point x="468" y="51"/>
      <point x="468" y="130" type="curve" smooth="yes"/>
      <point x="468" y="149"/>
      <point x="459" y="166"/>
      <point x="440" y="166" type="curve" smooth="yes"/>
      <point x="423" y="166"/>
      <point x="411" y="153"/>
      <point x="399" y="141" type="curve" smooth="yes"/>
      <point x="375" y="117"/>
      <point x="344" y="106"/>
      <point x="311" y="106" type="curve" smooth="yes"/>
      <point x="222" y="106"/>
      <point x="167" y="175"/>
      <point x="167" y="269" type="curve" smooth="yes"/>
      <point x="167" y="342"/>
      <point x="208" y="401"/>
      <point x="270" y="401" type="curve" smooth="yes"/>
      <point x="311" y="401"/>
      <point x="333" y="388"/>
      <point x="333" y="368" type="curve" smooth="yes"/>
      <point x="333" y="352" type="line" smooth="yes"/>
      <point x="333" y="311"/>
      <point x="362" y="280"/>
      <point x="403" y="280" type="curve" smooth="yes"/>
      <point x="446" y="280"/>
      <point x="477" y="313"/>
    </contour>
  </outline>
</glyph>
<glyph name="d" format="2">
  <advance width="601"/>
  <unicode hex="0064"/>
  <outline>
    <contour>
      <point x="534" y="683" type="line" smooth="yes"/>
      <point x="534" y="705"/>
      <point x="524" y="714"/>
      <point x="509" y="714" type="curve" smooth="yes"/>
      <point x="494" y="714"/>
      <point x="481" y="711"/>
      <point x="460" y="702" type="curve" smooth="yes"/>
      <point x="348" y="656" type="line" smooth="yes"/>
      <point x="327" y="647"/>
      <point x="315" y="637"/>
      <point x="315" y="619" type="curve" smooth="yes"/>
      <point x="315" y="603"/>
      <point x="328" y="594"/>
      <point x="348" y="594" type="curve" smooth="yes"/>
      <point x="357" y="594" type="line" smooth="yes"/>
      <point x="375" y="594"/>
      <point x="386" y="584"/>
      <point x="386" y="559" type="curve" smooth="yes"/>
      <point x="386" y="78" type="line" smooth="yes"/>
      <point x="386" y="20"/>
      <point x="411" y="0"/>
      <point x="468" y="0" type="curve" smooth="yes"/>
      <point x="562" y="0" type="line" smooth="yes"/>
      <point x="592" y="0"/>
      <point x="601" y="11"/>
      <point x="601" y="30" type="curve" smooth="yes"/>
      <point x="601" y="47"/>
      <point x="594" y="60"/>
      <point x="571" y="66" type="curve" smooth="yes"/>
      <point x="563" y="68" type="line" smooth="yes"/>
      <point x="545" y="73"/>
      <point x="534" y="87"/>
      <point x="534" y="117" type="curve" smooth="yes"/>
    </contour>
    <contour>
      <point x="428" y="149" type="line"/>
      <point x="386.47005911747976" y="107.47005911747976"/>
      <point x="352.1842105263158" y="90.0"/>
      <point x="299" y="90" type="curve" smooth="yes"/>
      <point x="227.8235294117647" y="90.0"/>
      <point x="178.0" y="153.45238095238096"/>
      <point x="178" y="254" type="curve" smooth="yes"/>
      <point x="178.0" y="350.8690476190476"/>
      <point x="242.0" y="412.0"/>
      <point x="326" y="412" type="curve" smooth="yes"/>
      <point x="373" y="412"/>
      <point x="403" y="388"/>
      <point x="429" y="346" type="curve"/>
      <point x="465" y="407" type="line"/>
      <point x="422" y="466"/>
      <point x="363" y="490"/>
      <point x="283" y="490" type="curve" smooth="yes"/>
      <point x="137" y="490"/>
      <point x="21" y="380"/>
      <point x="21" y="219" type="curve" smooth="yes"/>
      <point x="21.0" y="82.0"/>
      <point x="117.54285714285714" y="-14.0"/>
      <point x="239" y="-14" type="curve" smooth="yes"/>
      <point x="327.7433628318584" y="-14.0"/>
      <point x="384.2290941425691" y="25.29553166378912"/>
      <point x="457" y="102" type="curve"/>
    </contour>
  </outline>
</glyph>
<glyph name="e" format="2">
  <advance width="503"/>
  <unicode hex="0065"/>
  <anchor x="281" y="527" name="center"/>
  <outline>
    <contour>
      <point x="447" y="230"/>
      <point x="477" y="258"/>
      <point x="477" y="303" type="curve" smooth="yes"/>
      <point x="477.0" y="412.0"/>
      <point x="397" y="489"/>
      <point x="282" y="489" type="curve" smooth="yes"/>
      <point x="123.0" y="489"/>
      <point x="21" y="383.0"/>
      <point x="21" y="223" type="curve" smooth="yes"/>
      <point x="21" y="85"/>
      <point x="122" y="-15"/>
      <point x="261" y="-15" type="curve" smooth="yes"/>
      <point x="396.0" y="-15.0"/>
      <point x="478.0" y="54.58389261744966"/>
      <point x="478.0" y="129" type="curve" smooth="yes"/>
      <point x="478.0" y="152.375"/>
      <point x="469" y="163.0"/>
      <point x="456" y="163" type="curve" smooth="yes"/>
      <point x="448" y="163.0"/>
      <point x="436.6924402709454" y="158.90017235222902"/>
      <point x="426" y="145" type="curve" smooth="yes"/>
      <point x="403" y="117"/>
      <point x="373.0093457943925" y="102.0"/>
      <point x="321" y="102" type="curve" smooth="yes"/>
      <point x="236.38853503184714" y="102.0"/>
      <point x="159.0" y="169.92899408284023"/>
      <point x="159" y="266" type="curve" smooth="yes"/>
      <point x="159.0" y="359.44"/>
      <point x="192.37078651685394" y="412.0"/>
      <point x="249" y="412" type="curve" smooth="yes"/>
      <point x="290.4166666666667" y="412.0"/>
      <point x="320.0" y="378.6867469879518"/>
      <point x="320" y="333" type="curve" smooth="yes"/>
      <point x="320" y="302"/>
      <point x="305" y="283"/>
      <point x="282" y="283" type="curve" smooth="yes"/>
      <point x="113" y="283" type="line"/>
      <point x="113" y="230" type="line"/>
      <point x="399" y="230" type="line" smooth="yes"/>
    </contour>
  </outline>
</glyph>
<glyph name="f" format="2">
  <advance width="376"/>
  <unicode hex="0066"/>
  <outline>
    <contour>
      <point x="248" y="131" type="curve" smooth="yes"/>
      <point x="248" y="397" type="line"/>
      <point x="332" y="397" type="line" smooth="yes"/>
      <point x="360" y="397"/>
      <point x="378.0" y="410.0"/>
      <point x="378" y="436" type="curve" smooth="yes"/>
      <point x="378.0" y="463.85714285714283"/>
      <point x="360.0" y="475"/>
      <point x="334" y="475" type="curve" smooth="yes"/>
      <point x="231" y="475" type="line"/>
      <point x="249.0" y="456" type="line"/>
      <point x="249.0" y="492"/>
      <point x="239" y="508"/>
      <point x="220" y="526" type="curve" smooth="yes"/>
      <point x="182.65438718311322" y="560.472873369434"/>
      <point x="165.0" y="586.6526315789474"/>
      <point x="165" y="612" type="curve" smooth="yes"/>
      <point x="165.0" y="638.2777777777778"/>
      <point x="182.0" y="655.0"/>
      <point x="210" y="655" type="curve" smooth="yes"/>
      <point x="233.0" y="655.0"/>
      <point x="247" y="640.8823529411765"/>
      <point x="247" y="615" type="curve" smooth="yes"/>
      <point x="247" y="597" type="line" smooth="yes"/>
      <point x="247" y="555.0"/>
      <point x="280.1392405063291" y="525.0"/>
      <point x="324" y="525" type="curve" smooth="yes"/>
      <point x="372.25333333333333" y="525.0"/>
      <point x="401.0" y="552.0"/>
      <point x="401" y="598" type="curve" smooth="yes"/>
      <point x="401.0" y="672.3551401869158"/>
      <point x="343.06796116504853" y="715.0"/>
      <point x="248" y="715" type="curve" smooth="yes"/>
      <point x="139.80392156862746" y="715.0"/>
      <point x="62" y="654"/>
      <point x="62" y="572" type="curve" smooth="yes"/>
      <point x="62" y="516"/>
      <point x="102.0" y="490.0"/>
      <point x="102" y="452" type="curve" smooth="yes"/>
      <point x="102" y="438" type="line"/>
      <point x="137" y="475" type="line"/>
      <point x="45" y="475" type="line" smooth="yes"/>
      <point x="25" y="475"/>
      <point x="12.0" y="464"/>
      <point x="12" y="446" type="curve" smooth="yes"/>
      <point x="12.0" y="429"/>
      <point x="27" y="416"/>
      <point x="48" y="409" type="curve" smooth="yes"/>
      <point x="63" y="404" type="line" smooth="yes"/>
      <point x="89" y="395"/>
      <point x="100.0" y="378.0"/>
      <point x="100.0" y="347" type="curve" smooth="yes"/>
      <point x="100" y="113" type="line" smooth="yes"/>
      <point x="100" y="87"/>
      <point x="87" y="74"/>
      <point x="71" y="70" type="curve" smooth="yes"/>
      <point x="52" y="65" type="line" smooth="yes"/>
      <point x="34.67043683888107" y="60.43958864181081"/>
      <point x="27.0" y="49.416666666666664"/>
      <point x="27" y="31" type="curve" smooth="yes"/>
      <point x="27.0" y="10.333333333333336"/>
      <point x="37" y="0"/>
      <point x="53" y="0" type="curve" smooth="yes"/>
      <point x="312" y="0" type="line" smooth="yes"/>
      <point x="338.0" y="0.0"/>
      <point x="348.0" y="10.0"/>
      <point x="348" y="31" type="curve" smooth="yes"/>
      <point x="348.0" y="52"/>
      <point x="331" y="61"/>
      <point x="307" y="68" type="curve" smooth="yes"/>
      <point x="285" y="74" type="line" smooth="yes"/>
      <point x="261" y="81"/>
      <point x="248" y="102.0327868852459"/>
    </contour>
  </outline>
</glyph>
<glyph name="g" format="2">
  <advance width="542"/>
  <unicode hex="0067"/>
  <outline>
    <contour>
      <point x="300" y="57" type="curve" smooth="yes"/>
      <point x="473.93702065186255" y="38.81050764424967"/>
      <point x="547.0" y="-7.0"/>
      <point x="547" y="-82" type="curve" smooth="yes"/>
      <point x="547.0" y="-177.0"/>
      <point x="441.9090909090909" y="-245.0"/>
      <point x="258" y="-245.0" type="curve" smooth="yes"/>
      <point x="86" y="-245"/>
      <point x="6" y="-191.0"/>
      <point x="6" y="-107" type="curve" smooth="yes"/>
      <point x="6.0" y="-49.140350877192986"/>
      <point x="53.30331390050944" y="-12.837704135544234"/>
      <point x="181" y="-10" type="curve"/>
      <point x="189" y="-38" type="line"/>
      <point x="159.56850863556707" y="-41.270165707159215"/>
      <point x="144.0" y="-67.79166666666667"/>
      <point x="144" y="-93" type="curve" smooth="yes"/>
      <point x="144.0" y="-134.0"/>
      <point x="194.66666666666669" y="-168.0"/>
      <point x="296" y="-168.0" type="curve" smooth="yes"/>
      <point x="366.5" y="-168.0"/>
      <point x="390" y="-147"/>
      <point x="390" y="-118" type="curve" smooth="yes"/>
      <point x="390.0" y="-90.0"/>
      <point x="360" y="-68"/>
      <point x="255" y="-57" type="curve" smooth="yes"/>
      <point x="119" y="-43"/>
      <point x="76.0" y="-3"/>
      <point x="76.0" y="49" type="curve" smooth="yes"/>
      <point x="76" y="108"/>
      <point x="117.82212614585572" y="139.854583474797"/>
      <point x="200.0" y="150" type="curve"/>
      <point x="225" y="141" type="line"/>
      <point x="212" y="132"/>
      <point x="208" y="121"/>
      <point x="208" y="110" type="curve" smooth="yes"/>
      <point x="208.0" y="87.7741935483871"/>
      <point x="228.06352444023355" y="64.57226058523857"/>
    </contour>
    <contour>
      <point x="505" y="308" type="curve" smooth="yes"/>
      <point x="505.0" y="200.0"/>
      <point x="404.1280991735537" y="116.0"/>
      <point x="268" y="116" type="curve" smooth="yes"/>
      <point x="115.89583333333334" y="116.0"/>
      <point x="23.0" y="198.0"/>
      <point x="23" y="293" type="curve" smooth="yes"/>
      <point x="23.0" y="405.0"/>
      <point x="117.9135802469136" y="490.0"/>
      <point x="271" y="490" type="curve" smooth="yes"/>
      <point x="423.7364016736402" y="490.0"/>
      <point x="505.0" y="402.0"/>
    </contour>
    <contour>
      <point x="361.0" y="436" type="line" smooth="yes"/>
      <point x="368" y="450.0" type="line" smooth="yes"/>
      <point x="408.9197251617393" y="531.8394503234786"/>
      <point x="451.55102040816325" y="564.0"/>
      <point x="506" y="564" type="curve" smooth="yes"/>
      <point x="554.313432835821" y="564.0"/>
      <point x="589.0" y="533.7294117647059"/>
      <point x="589" y="481" type="curve" smooth="yes"/>
      <point x="589.0" y="439.6885245901639"/>
      <point x="563.9803921568628" y="418.0"/>
      <point x="531" y="418" type="curve" smooth="yes"/>
      <point x="510" y="418"/>
      <point x="498" y="424"/>
      <point x="485" y="435.0" type="curve" smooth="yes"/>
      <point x="473" y="446"/>
      <point x="462.8378378378378" y="452.0"/>
      <point x="444" y="452" type="curve" smooth="yes"/>
      <point x="432.25" y="452.0"/>
      <point x="414.35629197947003" y="442.37351096407247"/>
      <point x="397" y="412.0" type="curve"/>
    </contour>
    <contour>
      <point x="236" y="418" type="curve" smooth="yes"/>
      <point x="196.06349206349205" y="418.0"/>
      <point x="168.0" y="387.06976744186045"/>
      <point x="168" y="342" type="curve" smooth="yes"/>
      <point x="168.0" y="259.3333333333333"/>
      <point x="220.06611570247935" y="187.0"/>
      <point x="294" y="187" type="curve" smooth="yes"/>
      <point x="328.3188405797101" y="187.0"/>
      <point x="358.0" y="213.0"/>
      <point x="358" y="259" type="curve" smooth="yes"/>
      <point x="358.0" y="351.0"/>
      <point x="307.0866141732283" y="418.0"/>
    </contour>
  </outline>
</glyph>
<glyph name="h" format="2">
  <advance width="631"/>
  <unicode hex="0068"/>
  <outline>
    <contour>
      <point x="217" y="322" type="line" smooth="yes"/>
      <point x="181" y="367" type="line"/>
      <point x="213" y="400" type="line" smooth="yes"/>
      <point x="269" y="457"/>
      <point x="333" y="490"/>
      <point x="411" y="490" type="curve" smooth="yes"/>
      <point x="479" y="490"/>
      <point x="536" y="444"/>
      <point x="546" y="353" type="curve" smooth="yes"/>
      <point x="572" y="112" type="line" smooth="yes"/>
      <point x="575" y="85"/>
      <point x="583" y="71"/>
      <point x="596" y="67" type="curve" smooth="yes"/>
      <point x="604" y="65" type="line" smooth="yes"/>
      <point x="618" y="61"/>
      <point x="629" y="51"/>
      <point x="629" y="32" type="curve" smooth="yes"/>
      <point x="629" y="12"/>
      <point x="616" y="0"/>
      <point x="598" y="0" type="curve" smooth="yes"/>
      <point x="376" y="0" type="line" smooth="yes"/>
      <point x="359" y="0"/>
      <point x="346" y="11"/>
      <point x="346" y="34" type="curve" smooth="yes"/>
      <point x="346" y="52"/>
      <point x="359" y="63"/>
      <point x="377" y="67" type="curve" smooth="yes"/>
      <point x="387" y="69" type="line" smooth="yes"/>
      <point x="409" y="73"/>
      <point x="420" y="86"/>
      <point x="416" y="123" type="curve" smooth="yes"/>
      <point x="397" y="309" type="line" smooth="yes"/>
      <point x="391.54383858860416" y="362.4129485536647"/>
      <point x="362.38461538461536" y="385.0"/>
      <point x="322" y="385" type="curve" smooth="yes"/>
      <point x="293.0" y="385.0"/>
      <point x="268" y="375"/>
      <point x="241" y="347" type="curve" smooth="yes"/>
    </contour>
    <component base="l" xOffset="-15"/>
  </outline>
</glyph>
<glyph name="j" format="2">
  <advance width="280"/>
  <unicode hex="006A"/>
  <outline>
    <contour>
      <point x="232" y="47" type="line" smooth="yes"/>
      <point x="232" y="6.703703703703702"/>
      <point x="261.0" y="-34.6231884057971"/>
      <point x="261" y="-81" type="curve" smooth="yes"/>
      <point x="261.0" y="-177.18045112781954"/>
      <point x="181.45" y="-245.0"/>
      <point x="76" y="-245" type="curve" smooth="yes"/>
      <point x="6.830357142857153" y="-245.0"/>
      <point x="-51.0" y="-197.56701030927834"/>
      <point x="-51" y="-138" type="curve" smooth="yes"/>
      <point x="-51.0" y="-94.0"/>
      <point x="-24.461538461538467" y="-66.0"/>
      <point x="18" y="-66" type="curve" smooth="yes"/>
      <point x="61.578947368421055" y="-66.0"/>
      <point x="90" y="-94.0"/>
      <point x="90" y="-136" type="curve" smooth="yes"/>
      <point x="90" y="-153" type="line" smooth="yes"/>
      <point x="90" y="-173.0"/>
      <point x="100.0" y="-184.0"/>
      <point x="119" y="-184" type="curve" smooth="yes"/>
      <point x="141" y="-184.0"/>
      <point x="156.0" y="-166"/>
      <point x="156" y="-141" type="curve" smooth="yes"/>
      <point x="156.0" y="-96"/>
      <point x="85" y="-56.18248175182482"/>
      <point x="85" y="-1" type="curve" smooth="yes"/>
      <point x="85" y="330" type="line" smooth="yes"/>
      <point x="85" y="358"/>
      <point x="73" y="369"/>
      <point x="59" y="369" type="curve" smooth="yes"/>
      <point x="41" y="369" type="line" smooth="yes"/>
      <point x="24" y="369"/>
      <point x="14" y="381"/>
      <point x="14" y="400" type="curve" smooth="yes"/>
      <point x="14" y="412"/>
      <point x="26" y="429"/>
      <point x="46" y="436" type="curve" smooth="yes"/>
      <point x="161" y="479" type="line" smooth="yes"/>
      <point x="180" y="486"/>
      <point x="191" y="490"/>
      <point x="203" y="490" type="curve" smooth="yes"/>
      <point x="221" y="490"/>
      <point x="232" y="479"/>
      <point x="232" y="460" type="curve" smooth="yes"/>
    </contour>
    <component base="dotaccent" xOffset="35" yOffset="58"/>
  </outline>
</glyph>
<glyph name="k" format="2">
  <advance width="603"/>
  <unicode hex="006B"/>
  <outline>
    <contour>
      <point x="382" y="342" type="line"/>
      <point x="543" y="109" type="line" smooth="yes"/>
      <point x="557" y="89"/>
      <point x="569" y="77"/>
      <point x="579" y="71" type="curve" smooth="yes"/>
      <point x="593.0" y="63.0"/>
      <point x="601.0" y="51.0"/>
      <point x="601.0" y="33" type="curve" smooth="yes"/>
      <point x="601.0" y="14.0"/>
      <point x="585.0" y="0.0"/>
      <point x="555" y="0" type="curve" smooth="yes"/>
      <point x="374" y="0" type="line" smooth="yes"/>
      <point x="357" y="0"/>
      <point x="345" y="11"/>
      <point x="345" y="30" type="curve" smooth="yes"/>
      <point x="345.0" y="47"/>
      <point x="356" y="53"/>
      <point x="368" y="63" type="curve" smooth="yes"/>
      <point x="377" y="71"/>
      <point x="382" y="80"/>
      <point x="382" y="90" type="curve" smooth="yes"/>
      <point x="382" y="99"/>
      <point x="378" y="106"/>
      <point x="373" y="114" type="curve" smooth="yes"/>
      <point x="281" y="258" type="line"/>
    </contour>
    <contour>
      <point x="187" y="207" type="line"/>
      <point x="351" y="349" type="line" smooth="yes"/>
      <point x="370" y="366"/>
      <point x="374.0" y="378.0"/>
      <point x="374" y="390" type="curve" smooth="yes"/>
      <point x="374.0" y="402"/>
      <point x="368" y="406"/>
      <point x="354" y="413" type="curve" smooth="yes"/>
      <point x="338" y="421"/>
      <point x="331.0" y="431"/>
      <point x="331" y="448" type="curve" smooth="yes"/>
      <point x="331.0" y="467"/>
      <point x="344" y="475"/>
      <point x="365" y="475" type="curve" smooth="yes"/>
      <point x="559" y="475" type="line" smooth="yes"/>
      <point x="578.0" y="475.0"/>
      <point x="589.0" y="463"/>
      <point x="589" y="446" type="curve" smooth="yes"/>
      <point x="589.0" y="427"/>
      <point x="579" y="417"/>
      <point x="551" y="408" type="curve" smooth="yes"/>
      <point x="518" y="397"/>
      <point x="488" y="379"/>
      <point x="443" y="340" type="curve" smooth="yes"/>
      <point x="231" y="156" type="line"/>
    </contour>
    <component base="l"/>
  </outline>
</glyph>
<glyph name="l" format="2">
  <advance width="318"/>
  <unicode hex="006C"/>
  <outline>
    <contour>
      <point x="239" y="682" type="curve" smooth="yes"/>
      <point x="239" y="111" type="line" smooth="yes"/>
      <point x="239" y="89"/>
      <point x="246" y="76"/>
      <point x="259" y="71" type="curve" smooth="yes"/>
      <point x="275" y="65" type="line" smooth="yes"/>
      <point x="298" y="57"/>
      <point x="308" y="50"/>
      <point x="308" y="31" type="curve" smooth="yes"/>
      <point x="308" y="10"/>
      <point x="296" y="0"/>
      <point x="273" y="0" type="curve" smooth="yes"/>
      <point x="52" y="0" type="line" smooth="yes"/>
      <point x="33" y="0"/>
      <point x="21" y="12"/>
      <point x="21" y="32" type="curve" smooth="yes"/>
      <point x="21" y="50"/>
      <point x="31" y="57"/>
      <point x="49" y="64" type="curve" smooth="yes"/>
      <point x="59" y="68" type="line" smooth="yes"/>
      <point x="76" y="75"/>
      <point x="91" y="81"/>
      <point x="91" y="111" type="curve" smooth="yes"/>
      <point x="91" y="560" type="line" smooth="yes"/>
      <point x="91" y="585"/>
      <point x="75" y="596"/>
      <point x="61" y="596" type="curve" smooth="yes"/>
      <point x="54" y="596" type="line" smooth="yes"/>
      <point x="32" y="596"/>
      <point x="19" y="605"/>
      <point x="19" y="624" type="curve" smooth="yes"/>
      <point x="19" y="637"/>
      <point x="27" y="651"/>
      <point x="50" y="660" type="curve" smooth="yes"/>
      <point x="152" y="699" type="line" smooth="yes"/>
      <point x="178" y="709"/>
      <point x="193" y="715"/>
      <point x="210" y="715" type="curve" smooth="yes"/>
      <point x="228" y="715"/>
      <point x="239" y="702"/>
    </contour>
  </outline>
</glyph>
<glyph name="m" format="2">
  <advance width="926"/>
  <unicode hex="006D"/>
  <outline>
    <contour>
      <point x="54" y="68" type="curve" smooth="yes"/>
      <point x="47" y="65" type="line" smooth="yes"/>
      <point x="28" y="58"/>
      <point x="20" y="49"/>
      <point x="20" y="33" type="curve" smooth="yes"/>
      <point x="20" y="12"/>
      <point x="34" y="0"/>
      <point x="57" y="0" type="curve" smooth="yes"/>
      <point x="262" y="0" type="line" smooth="yes"/>
      <point x="289" y="0"/>
      <point x="303" y="10"/>
      <point x="303" y="32" type="curve" smooth="yes"/>
      <point x="303" y="51"/>
      <point x="293" y="58"/>
      <point x="274" y="65" type="curve" smooth="yes"/>
      <point x="258" y="71" type="line" smooth="yes"/>
      <point x="244" y="76"/>
      <point x="237" y="90"/>
      <point x="237" y="118" type="curve" smooth="yes"/>
      <point x="237" y="456" type="line" smooth="yes"/>
      <point x="237" y="476"/>
      <point x="226" y="490"/>
      <point x="208" y="490" type="curve" smooth="yes"/>
      <point x="190" y="490"/>
      <point x="175" y="483"/>
      <point x="149" y="473" type="curve" smooth="yes"/>
      <point x="45" y="434" type="line" smooth="yes"/>
      <point x="22" y="424"/>
      <point x="14" y="410"/>
      <point x="14" y="397" type="curve" smooth="yes"/>
      <point x="14" y="376"/>
      <point x="26" y="367"/>
      <point x="47" y="367" type="curve" smooth="yes"/>
      <point x="56" y="367" type="line" smooth="yes"/>
      <point x="70" y="367"/>
      <point x="86" y="356"/>
      <point x="86" y="330" type="curve" smooth="yes"/>
      <point x="86" y="112" type="line" smooth="yes"/>
      <point x="86" y="91"/>
      <point x="74" y="76"/>
    </contour>
    <contour>
      <point x="547" y="353" type="line" smooth="yes"/>
      <point x="547" y="444.0"/>
      <point x="479.5037037037037" y="490.0"/>
      <point x="411" y="490" type="curve" smooth="yes"/>
      <point x="333" y="490"/>
      <point x="269" y="457"/>
      <point x="213" y="400" type="curve" smooth="yes"/>
      <point x="181" y="367" type="line"/>
      <point x="217" y="323" type="line" smooth="yes"/>
      <point x="241" y="348" type="line" smooth="yes"/>
      <point x="268" y="376"/>
      <point x="296" y="383.0"/>
      <point x="326" y="383" type="curve" smooth="yes"/>
      <point x="363.5138888888889" y="383.0"/>
      <point x="399" y="361.0"/>
      <point x="399" y="305" type="curve" smooth="yes"/>
      <point x="399" y="123" type="line" smooth="yes"/>
      <point x="399" y="86"/>
      <point x="392" y="73"/>
      <point x="372" y="69" type="curve" smooth="yes"/>
      <point x="362" y="67" type="line" smooth="yes"/>
      <point x="344" y="63"/>
      <point x="331" y="52"/>
      <point x="331" y="34" type="curve" smooth="yes"/>
      <point x="331" y="11"/>
      <point x="344" y="0"/>
      <point x="361" y="0" type="curve" smooth="yes"/>
      <point x="575" y="0" type="line" smooth="yes"/>
      <point x="593" y="0"/>
      <point x="606" y="12"/>
      <point x="606" y="32" type="curve" smooth="yes"/>
      <point x="606" y="51"/>
      <point x="595" y="61"/>
      <point x="581" y="65" type="curve" smooth="yes"/>
      <point x="573" y="67" type="line" smooth="yes"/>
      <point x="559" y="70"/>
      <point x="547" y="85"/>
      <point x="547" y="112" type="curve" smooth="yes"/>
    </contour>
    <contour>
      <point x="512" y="323" type="line" smooth="yes"/>
      <point x="536" y="348" type="line" smooth="yes"/>
      <point x="563" y="376"/>
      <point x="591" y="383.0"/>
      <point x="621" y="383" type="curve" smooth="yes"/>
      <point x="658" y="383.0"/>
      <point x="687" y="361"/>
      <point x="693" y="305" type="curve" smooth="yes"/>
      <point x="711" y="123" type="line" smooth="yes"/>
      <point x="715" y="86"/>
      <point x="704" y="73"/>
      <point x="682" y="69" type="curve" smooth="yes"/>
      <point x="672" y="67" type="line" smooth="yes"/>
      <point x="654" y="63"/>
      <point x="641" y="52"/>
      <point x="641" y="34" type="curve" smooth="yes"/>
      <point x="641" y="11"/>
      <point x="654" y="0"/>
      <point x="671" y="0" type="curve" smooth="yes"/>
      <point x="893" y="0" type="line" smooth="yes"/>
      <point x="911" y="0"/>
      <point x="924" y="12"/>
      <point x="924" y="32" type="curve" smooth="yes"/>
      <point x="924" y="51"/>
      <point x="913" y="61"/>
      <point x="899" y="65" type="curve" smooth="yes"/>
      <point x="891" y="67" type="line" smooth="yes"/>
      <point x="878" y="71"/>
      <point x="870" y="85"/>
      <point x="867" y="112" type="curve" smooth="yes"/>
      <point x="841" y="353" type="line" smooth="yes"/>
      <point x="831" y="444"/>
      <point x="774" y="490"/>
      <point x="706" y="490" type="curve" smooth="yes"/>
      <point x="628" y="490"/>
      <point x="564" y="457"/>
      <point x="508" y="400" type="curve" smooth="yes"/>
      <point x="476" y="367" type="line"/>
    </contour>
  </outline>
</glyph>
<glyph name="o" format="2">
  <advance width="581"/>
  <unicode hex="006F"/>
  <outline>
    <contour>
      <point x="297" y="489" type="curve" smooth="yes"/>
      <point x="137" y="489"/>
      <point x="20" y="373"/>
      <point x="20" y="242" type="curve" smooth="yes"/>
      <point x="20" y="89"/>
      <point x="127" y="-15"/>
      <point x="283" y="-15" type="curve" smooth="yes"/>
      <point x="439" y="-15"/>
      <point x="561" y="92"/>
      <point x="561" y="242" type="curve" smooth="yes"/>
      <point x="561" y="387"/>
      <point x="454" y="489"/>
    </contour>
    <contour>
      <point x="335" y="403"/>
      <point x="404" y="299"/>
      <point x="404" y="185" type="curve" smooth="yes"/>
      <point x="404" y="108"/>
      <point x="374" y="74"/>
      <point x="320" y="74" type="curve" smooth="yes"/>
      <point x="247" y="74"/>
      <point x="179" y="167"/>
      <point x="179" y="280" type="curve" smooth="yes"/>
      <point x="179" y="363"/>
      <point x="212" y="403"/>
      <point x="266" y="403" type="curve" smooth="yes"/>
    </contour>
  </outline>
</glyph>
<glyph name="p" format="2">
  <advance width="611"/>
  <unicode hex="0070"/>
  <guideline x="444" y="705" angle="0" name="ascenders" identifier="OhGGrEjXxQ"/>
  <outline>
    <contour>
      <point x="232" y="442" type="line" smooth="yes"/>
      <point x="232" y="472.8571428571429"/>
      <point x="219.08695652173913" y="490.0"/>
      <point x="199" y="490" type="curve" smooth="yes"/>
      <point x="179.6060606060606" y="490.0"/>
      <point x="161" y="480"/>
      <point x="135" y="470" type="curve" smooth="yes"/>
      <point x="35" y="432" type="line" smooth="yes"/>
      <point x="17.762971103228" y="425.44992901922666"/>
      <point x="8.0" y="410.75"/>
      <point x="8" y="398" type="curve" smooth="yes"/>
      <point x="8.0" y="379.82758620689657"/>
      <point x="18.666666666666668" y="367"/>
      <point x="40" y="367" type="curve" smooth="yes"/>
      <point x="48" y="367" type="line" smooth="yes"/>
      <point x="69.78947368421052" y="367"/>
      <point x="84" y="354.14285714285717"/>
      <point x="84" y="322" type="curve" smooth="yes"/>
      <point x="84" y="-129" type="line" smooth="yes"/>
      <point x="84" y="-149"/>
      <point x="75" y="-169"/>
      <point x="58" y="-175" type="curve" smooth="yes"/>
      <point x="46" y="-179" type="line" smooth="yes"/>
      <point x="26" y="-186"/>
      <point x="11" y="-191"/>
      <point x="10" y="-211" type="curve" smooth="yes"/>
      <point x="9" y="-232"/>
      <point x="21" y="-245"/>
      <point x="51" y="-245" type="curve" smooth="yes"/>
      <point x="285" y="-245" type="line" smooth="yes"/>
      <point x="309.0" y="-245.0"/>
      <point x="320" y="-231"/>
      <point x="320" y="-212" type="curve" smooth="yes"/>
      <point x="320" y="-194"/>
      <point x="307" y="-189"/>
      <point x="286" y="-182" type="curve" smooth="yes"/>
      <point x="274" y="-178" type="line" smooth="yes"/>
      <point x="248" y="-169"/>
      <point x="232" y="-158"/>
      <point x="232" y="-127" type="curve" smooth="yes"/>
    </contour>
    <contour>
      <point x="170" y="335" type="line"/>
      <point x="206" y="370"/>
      <point x="253" y="386"/>
      <point x="304" y="386" type="curve" smooth="yes"/>
      <point x="392" y="386"/>
      <point x="440" y="310"/>
      <point x="440" y="222" type="curve" smooth="yes"/>
      <point x="440" y="137"/>
      <point x="388" y="69"/>
      <point x="303" y="69" type="curve" smooth="yes"/>
      <point x="252" y="69"/>
      <point x="205" y="86"/>
      <point x="178" y="129" type="curve"/>
      <point x="142" y="79" type="line"/>
      <point x="187" y="16"/>
      <point x="257" y="-14"/>
      <point x="334" y="-14" type="curve" smooth="yes"/>
      <point x="491" y="-14"/>
      <point x="596" y="100"/>
      <point x="596" y="257" type="curve" smooth="yes"/>
      <point x="596" y="389"/>
      <point x="508" y="490"/>
      <point x="376" y="490" type="curve" smooth="yes"/>
      <point x="286" y="490"/>
      <point x="212" y="442"/>
      <point x="150" y="377" type="curve"/>
    </contour>
  </outline>
</glyph>
<glyph name="q" format="2">
  <advance width="581"/>
  <unicode hex="0071"/>
  <outline>
    <contour>
      <point x="532" y="-127" type="curve" smooth="yes"/>
      <point x="532" y="448" type="line" smooth="yes"/>
      <point x="532" y="476"/>
      <point x="520" y="491"/>
      <point x="502" y="491" type="curve" smooth="yes"/>
      <point x="483" y="491"/>
      <point x="462" y="485"/>
      <point x="439" y="476" type="curve" smooth="yes"/>
      <point x="378" y="453" type="line" smooth="yes"/>
      <point x="378" y="-125" type="line" smooth="yes"/>
      <point x="378" y="-157"/>
      <point x="361" y="-169"/>
      <point x="335" y="-177" type="curve" smooth="yes"/>
      <point x="322" y="-181" type="line" smooth="yes"/>
      <point x="307" y="-185"/>
      <point x="298" y="-193"/>
      <point x="298" y="-212" type="curve" smooth="yes"/>
      <point x="298" y="-231"/>
      <point x="306" y="-245"/>
      <point x="322" y="-245" type="curve" smooth="yes"/>
      <point x="563" y="-245" type="line" smooth="yes"/>
      <point x="586" y="-245"/>
      <point x="595" y="-232"/>
      <point x="594" y="-211" type="curve" smooth="yes"/>
      <point x="593" y="-190"/>
      <point x="582" y="-184"/>
      <point x="568" y="-178" type="curve" smooth="yes"/>
      <point x="558" y="-174" type="line" smooth="yes"/>
      <point x="542" y="-168"/>
      <point x="532" y="-147"/>
    </contour>
    <contour>
      <point x="427" y="149" type="line"/>
      <point x="385" y="107"/>
      <point x="351" y="90"/>
      <point x="298" y="90" type="curve" smooth="yes"/>
      <point x="227" y="90"/>
      <point x="177" y="153"/>
      <point x="177" y="254" type="curve" smooth="yes"/>
      <point x="177" y="351"/>
      <point x="241" y="412"/>
      <point x="325" y="412" type="curve" smooth="yes"/>
      <point x="372" y="412"/>
      <point x="402" y="388"/>
      <point x="428" y="346" type="curve"/>
      <point x="464" y="407" type="line"/>
      <point x="421" y="466"/>
      <point x="362" y="490"/>
      <point x="282" y="490" type="curve" smooth="yes"/>
      <point x="136" y="490"/>
      <point x="20" y="380"/>
      <point x="20" y="219" type="curve" smooth="yes"/>
      <point x="20" y="82"/>
      <point x="117" y="-14"/>
      <point x="238" y="-14" type="curve" smooth="yes"/>
      <point x="327" y="-14"/>
      <point x="383" y="25"/>
      <point x="456" y="102" type="curve"/>
    </contour>
  </outline>
</glyph>
<glyph name="r" format="2">
  <advance width="455"/>
  <unicode hex="0072"/>
  <outline>
    <contour>
      <point x="219.0" y="303" type="line"/>
      <point x="233" y="430"/>
      <point x="283.07142857142856" y="490.0"/>
      <point x="349" y="490" type="curve" smooth="yes"/>
      <point x="415.25" y="490.0"/>
      <point x="455.0" y="446.0"/>
      <point x="455" y="380" type="curve" smooth="yes"/>
      <point x="455.0" y="321.9381443298969"/>
      <point x="422.05882352941177" y="292.0"/>
      <point x="375" y="292" type="curve" smooth="yes"/>
      <point x="342.54098360655735" y="292.0"/>
      <point x="322.1657854039286" y="307.54925567841826"/>
      <point x="309" y="332" type="curve" smooth="yes"/>
      <point x="295.8423890248466" y="358.3152219503067"/>
      <point x="290.40625" y="364.0"/>
      <point x="274" y="364" type="curve" smooth="yes"/>
      <point x="253.73684210526315" y="364.0"/>
      <point x="239.0" y="344.109375"/>
      <point x="239" y="297.0" type="curve"/>
    </contour>
    <contour>
      <point x="239" y="457" type="curve" smooth="yes"/>
      <point x="239.0" y="138" type="line" smooth="yes"/>
      <point x="239.0" y="115.0"/>
      <point x="251" y="92"/>
      <point x="278" y="83" type="curve" smooth="yes"/>
      <point x="318" y="70" type="line" smooth="yes"/>
      <point x="343.8709236772933" y="61.59194980487967"/>
      <point x="356.0" y="52.0"/>
      <point x="356" y="33" type="curve" smooth="yes"/>
      <point x="356.0" y="11"/>
      <point x="342.0" y="0.0"/>
      <point x="322" y="0" type="curve" smooth="yes"/>
      <point x="52" y="0" type="line" smooth="yes"/>
      <point x="30" y="0"/>
      <point x="17" y="12"/>
      <point x="17" y="33" type="curve" smooth="yes"/>
      <point x="17" y="47"/>
      <point x="25" y="54"/>
      <point x="42" y="61" type="curve" smooth="yes"/>
      <point x="61" y="69" type="line" smooth="yes"/>
      <point x="78" y="76"/>
      <point x="91.0" y="94.0"/>
      <point x="91.0" y="118" type="curve" smooth="yes"/>
      <point x="91" y="333" type="line" smooth="yes"/>
      <point x="91.0" y="358.0"/>
      <point x="75" y="369"/>
      <point x="61" y="369" type="curve" smooth="yes"/>
      <point x="52" y="369" type="line" smooth="yes"/>
      <point x="32" y="369"/>
      <point x="20" y="378"/>
      <point x="20" y="398" type="curve" smooth="yes"/>
      <point x="20" y="411"/>
      <point x="28" y="427"/>
      <point x="50" y="435" type="curve" smooth="yes"/>
      <point x="152" y="474" type="line" smooth="yes"/>
      <point x="178" y="484"/>
      <point x="193" y="490"/>
      <point x="210" y="490" type="curve" smooth="yes"/>
      <point x="228" y="490"/>
      <point x="239" y="477"/>
    </contour>
  </outline>
</glyph>
<glyph name="s" format="2">
  <advance width="467"/>
  <unicode hex="0073"/>
  <outline>
    <contour>
      <point x="242" y="55" type="curve" smooth="yes"/>
      <point x="196.0" y="55.0"/>
      <point x="155.3491738870739" y="74.02554417794417"/>
      <point x="123" y="125" type="curve" smooth="yes"/>
      <point x="102" y="156"/>
      <point x="86" y="167"/>
      <point x="70" y="167" type="curve" smooth="yes"/>
      <point x="48" y="167"/>
      <point x="38" y="150"/>
      <point x="38" y="124" type="curve" smooth="yes"/>
      <point x="38" y="115"/>
      <point x="40" y="98"/>
      <point x="45" y="79" type="curve" smooth="yes"/>
      <point x="59" y="24" type="line" smooth="yes"/>
      <point x="66" y="-5"/>
      <point x="83" y="-15"/>
      <point x="102" y="-15" type="curve" smooth="yes"/>
      <point x="115" y="-15"/>
      <point x="125" y="0"/>
      <point x="138" y="0" type="curve" smooth="yes"/>
      <point x="150" y="0"/>
      <point x="184" y="-15"/>
      <point x="250" y="-15" type="curve" smooth="yes"/>
      <point x="356" y="-15"/>
      <point x="437" y="52"/>
      <point x="437" y="139" type="curve" smooth="yes"/>
      <point x="437" y="212"/>
      <point x="400" y="280"/>
      <point x="279" y="300" type="curve" smooth="yes"/>
      <point x="190" y="315"/>
      <point x="161" y="339"/>
      <point x="161" y="378" type="curve" smooth="yes"/>
      <point x="161.0" y="401.9130434782609"/>
      <point x="184.77358490566039" y="422.0"/>
      <point x="224" y="422" type="curve" smooth="yes"/>
      <point x="272.0916030534351" y="422.0"/>
      <point x="304" y="398"/>
      <point x="350" y="327" type="curve" smooth="yes"/>
      <point x="361.3628804846466" y="308.40619557057823"/>
      <point x="382.07547169811323" y="294.0"/>
      <point x="400" y="294" type="curve" smooth="yes"/>
      <point x="425.0909090909091" y="294.0"/>
      <point x="436.0" y="312.030303030303"/>
      <point x="436" y="329" type="curve" smooth="yes"/>
      <point x="436" y="346"/>
      <point x="431" y="366"/>
      <point x="419" y="395" type="curve" smooth="yes"/>
      <point x="396" y="450" type="line" smooth="yes"/>
      <point x="384" y="478"/>
      <point x="373" y="490"/>
      <point x="356" y="490" type="curve" smooth="yes"/>
      <point x="341" y="490"/>
      <point x="334" y="472"/>
      <point x="318" y="472" type="curve" smooth="yes"/>
      <point x="300.1818181818182" y="472.0"/>
      <point x="269.0" y="489.0"/>
      <point x="220" y="489" type="curve" smooth="yes"/>
      <point x="85.74641148325358" y="489.0"/>
      <point x="21.0" y="414.0"/>
      <point x="21" y="331" type="curve" smooth="yes"/>
      <point x="21" y="251"/>
      <point x="72" y="195"/>
      <point x="191" y="170" type="curve" smooth="yes"/>
      <point x="266" y="154"/>
      <point x="293" y="130"/>
      <point x="293" y="98" type="curve" smooth="yes"/>
      <point x="293.0" y="74.11111111111111"/>
      <point x="274.0" y="55.0"/>
    </contour>
  </outline>
</glyph>
<glyph name="t" format="2">
  <advance width="374"/>
  <unicode hex="0074"/>
  <outline>
    <contour>
      <point x="48" y="383" type="line" smooth="yes"/>
      <point x="63" y="373"/>
      <point x="68" y="358"/>
      <point x="68" y="327" type="curve" smooth="yes"/>
      <point x="68" y="134" type="line" smooth="yes"/>
      <point x="68" y="40.875"/>
      <point x="117.5114503816794" y="-15.0"/>
      <point x="209" y="-15" type="curve" smooth="yes"/>
      <point x="307.8953488372093" y="-15.0"/>
      <point x="371.0" y="37.99999999999999"/>
      <point x="371" y="93" type="curve" smooth="yes"/>
      <point x="371" y="106"/>
      <point x="363" y="118"/>
      <point x="349" y="118" type="curve" smooth="yes"/>
      <point x="341" y="118"/>
      <point x="332" y="115"/>
      <point x="323" y="106" type="curve" smooth="yes"/>
      <point x="309.71658731286294" y="93.73838828879656"/>
      <point x="294.60377358490564" y="90.0"/>
      <point x="280" y="90" type="curve" smooth="yes"/>
      <point x="242.07407407407408" y="90.0"/>
      <point x="216" y="117.0"/>
      <point x="216" y="164" type="curve" smooth="yes"/>
      <point x="216" y="578" type="line" smooth="yes"/>
      <point x="216.0" y="598.0"/>
      <point x="205" y="610.0"/>
      <point x="189" y="610" type="curve" smooth="yes"/>
      <point x="174.23076923076923" y="610.0"/>
      <point x="157.3566653769584" y="606.2589789378902"/>
      <point x="141" y="574" type="curve" smooth="yes"/>
      <point x="105" y="503" type="line" smooth="yes"/>
      <point x="96" y="485"/>
      <point x="81.0" y="475.0"/>
      <point x="66" y="475.0" type="curve" smooth="yes"/>
      <point x="43" y="475.0" type="line" smooth="yes"/>
      <point x="16" y="475"/>
      <point x="0.0" y="460.0"/>
      <point x="0" y="438" type="curve" smooth="yes"/>
      <point x="0" y="423"/>
      <point x="11.27552686977042" y="407.48298208681973"/>
      <point x="33" y="393" type="curve" smooth="yes"/>
    </contour>
    <contour>
      <point x="147" y="388" type="line"/>
      <point x="147.0" y="388.0"/>
      <point x="290.3850931677019" y="388.0"/>
      <point x="318" y="388" type="curve" smooth="yes"/>
      <point x="347" y="388.0"/>
      <point x="365.0" y="401.0"/>
      <point x="365" y="432" type="curve" smooth="yes"/>
      <point x="365.0" y="461.0"/>
      <point x="347" y="475.0"/>
      <point x="316" y="475" type="curve" smooth="yes"/>
      <point x="297.88157894736844" y="475.0"/>
      <point x="154.0" y="475.0"/>
      <point x="154" y="475" type="curve"/>
    </contour>
  </outline>
</glyph>
<glyph name="u" format="2">
  <advance width="605"/>
  <unicode hex="0075"/>
  <outline>
    <contour>
      <point x="535" y="452" type="line" smooth="yes"/>
      <point x="535" y="476"/>
      <point x="522" y="490"/>
      <point x="500" y="490" type="curve" smooth="yes"/>
      <point x="485" y="490"/>
      <point x="471" y="486"/>
      <point x="446" y="479" type="curve" smooth="yes"/>
      <point x="352" y="453" type="line" smooth="yes"/>
      <point x="331" y="447"/>
      <point x="318" y="433"/>
      <point x="318" y="418" type="curve" smooth="yes"/>
      <point x="318" y="402"/>
      <point x="333" y="389"/>
      <point x="351" y="389" type="curve" smooth="yes"/>
      <point x="354" y="389" type="line" smooth="yes"/>
      <point x="376" y="389"/>
      <point x="381" y="378"/>
      <point x="381" y="352" type="curve" smooth="yes"/>
      <point x="381" y="70" type="line" smooth="yes"/>
      <point x="381.0" y="27.0"/>
      <point x="411.0" y="0"/>
      <point x="454" y="0" type="curve" smooth="yes"/>
      <point x="561" y="0" type="line" smooth="yes"/>
      <point x="589" y="0"/>
      <point x="600" y="14"/>
      <point x="600" y="35" type="curve" smooth="yes"/>
      <point x="600" y="55"/>
      <point x="587" y="62"/>
      <point x="573" y="67" type="curve" smooth="yes"/>
      <point x="565" y="70" type="line" smooth="yes"/>
      <point x="546" y="77"/>
      <point x="535" y="94"/>
      <point x="535" y="129" type="curve" smooth="yes"/>
    </contour>
    <contour>
      <point x="217" y="452" type="line" smooth="yes"/>
      <point x="217" y="476"/>
      <point x="205" y="490"/>
      <point x="186" y="490" type="curve" smooth="yes"/>
      <point x="171" y="490"/>
      <point x="158" y="486"/>
      <point x="131" y="479" type="curve" smooth="yes"/>
      <point x="40" y="455" type="line" smooth="yes"/>
      <point x="16" y="449"/>
      <point x="3" y="436.0"/>
      <point x="3" y="417" type="curve" smooth="yes"/>
      <point x="3" y="402"/>
      <point x="16" y="389"/>
      <point x="33" y="389" type="curve" smooth="yes"/>
      <point x="39" y="389" type="line" smooth="yes"/>
      <point x="61" y="389"/>
      <point x="68.0" y="378.0"/>
      <point x="68" y="352" type="curve" smooth="yes"/>
      <point x="68" y="145" type="line" smooth="yes"/>
      <point x="68" y="50"/>
      <point x="142" y="-9"/>
      <point x="236" y="-9" type="curve" smooth="yes"/>
      <point x="308.87958115183244" y="-9.0"/>
      <point x="362.26881153332226" y="17.63132911427146"/>
      <point x="410" y="79" type="curve"/>
      <point x="394" y="128" type="line"/>
      <point x="358.847168517716" y="92.84716851771603"/>
      <point x="329.9913793103448" y="81.0"/>
      <point x="295" y="81" type="curve" smooth="yes"/>
      <point x="245" y="81.0"/>
      <point x="217" y="114"/>
      <point x="217" y="166" type="curve" smooth="yes"/>
    </contour>
  </outline>
</glyph>
<glyph name="v" format="2">
  <advance width="560"/>
  <unicode hex="0076"/>
  <outline>
    <contour>
      <point x="253" y="-10" type="curve" smooth="yes"/>
      <point x="310" y="-10" type="line" smooth="yes"/>
      <point x="328" y="-10"/>
      <point x="350" y="0"/>
      <point x="362" y="28" type="curve" smooth="yes"/>
      <point x="495" y="334" type="line" smooth="yes"/>
      <point x="509" y="367"/>
      <point x="518" y="387"/>
      <point x="528" y="393" type="curve" smooth="yes"/>
      <point x="550" y="406"/>
      <point x="558" y="416"/>
      <point x="558" y="438" type="curve" smooth="yes"/>
      <point x="558" y="459"/>
      <point x="546" y="475"/>
      <point x="521" y="475" type="curve" smooth="yes"/>
      <point x="377" y="475" type="line" smooth="yes"/>
      <point x="355" y="475"/>
      <point x="342" y="463"/>
      <point x="342" y="445" type="curve" smooth="yes"/>
      <point x="342" y="428"/>
      <point x="355" y="420"/>
      <point x="376" y="409" type="curve" smooth="yes"/>
      <point x="400" y="397" type="line" smooth="yes"/>
      <point x="414" y="390"/>
      <point x="422" y="382"/>
      <point x="422" y="369" type="curve" smooth="yes"/>
      <point x="422" y="353"/>
      <point x="416" y="339"/>
      <point x="405" y="310" type="curve" smooth="yes"/>
      <point x="307" y="69" type="line" smooth="yes"/>
      <point x="343" y="64" type="line"/>
      <point x="227" y="349" type="line" smooth="yes"/>
      <point x="222" y="362"/>
      <point x="216" y="371"/>
      <point x="216" y="384" type="curve" smooth="yes"/>
      <point x="216" y="396"/>
      <point x="227" y="398"/>
      <point x="246" y="406" type="curve" smooth="yes"/>
      <point x="260" y="412" type="line" smooth="yes"/>
      <point x="280" y="421"/>
      <point x="294" y="430"/>
      <point x="294" y="447" type="curve" smooth="yes"/>
      <point x="294" y="463"/>
      <point x="283" y="475"/>
      <point x="259" y="475" type="curve" smooth="yes"/>
      <point x="37" y="475" type="line" smooth="yes"/>
      <point x="13" y="475"/>
      <point x="2" y="462"/>
      <point x="2" y="442" type="curve" smooth="yes"/>
      <point x="2" y="424"/>
      <point x="11" y="412"/>
      <point x="32" y="399" type="curve" smooth="yes"/>
      <point x="47" y="390"/>
      <point x="50" y="378"/>
      <point x="58" y="358" type="curve" smooth="yes"/>
      <point x="194" y="39" type="line" smooth="yes"/>
      <point x="208" y="5"/>
      <point x="226" y="-10"/>
    </contour>
  </outline>
</glyph>
<glyph name="w" format="2">
  <advance width="852"/>
  <unicode hex="0077"/>
  <outline>
    <contour>
      <point x="243" y="-10" type="curve" smooth="yes"/>
      <point x="292" y="-10" type="line" smooth="yes"/>
      <point x="319" y="-10"/>
      <point x="328" y="-1"/>
      <point x="341" y="27" type="curve" smooth="yes"/>
      <point x="476" y="314" type="line"/>
      <point x="426" y="373" type="line"/>
      <point x="290" y="69" type="line" smooth="yes"/>
      <point x="330" y="64" type="line"/>
      <point x="218" y="349" type="line" smooth="yes"/>
      <point x="213" y="363"/>
      <point x="207" y="372"/>
      <point x="207" y="384" type="curve" smooth="yes"/>
      <point x="207" y="396"/>
      <point x="217" y="402"/>
      <point x="236" y="407" type="curve" smooth="yes"/>
      <point x="259" y="413" type="line" smooth="yes"/>
      <point x="274" y="417"/>
      <point x="281" y="429"/>
      <point x="281" y="447" type="curve" smooth="yes"/>
      <point x="281" y="466"/>
      <point x="271" y="475"/>
      <point x="253" y="475" type="curve" smooth="yes"/>
      <point x="40" y="475" type="line" smooth="yes"/>
      <point x="16" y="475"/>
      <point x="7" y="461"/>
      <point x="7" y="441" type="curve" smooth="yes"/>
      <point x="7" y="425"/>
      <point x="17" y="412"/>
      <point x="35" y="399" type="curve" smooth="yes"/>
      <point x="45" y="392"/>
      <point x="55" y="383"/>
      <point x="62" y="366" type="curve" smooth="yes"/>
      <point x="191" y="35" type="line" smooth="yes"/>
      <point x="204" y="2"/>
      <point x="219" y="-10"/>
    </contour>
    <contour>
      <point x="612" y="-10" type="line" smooth="yes"/>
      <point x="635" y="-10"/>
      <point x="645" y="-3"/>
      <point x="656" y="23" type="curve" smooth="yes"/>
      <point x="780" y="334" type="line" smooth="yes"/>
      <point x="792" y="364"/>
      <point x="803" y="378"/>
      <point x="821" y="394" type="curve" smooth="yes"/>
      <point x="837" y="409"/>
      <point x="845" y="422"/>
      <point x="845" y="442" type="curve" smooth="yes"/>
      <point x="845" y="461"/>
      <point x="832" y="475"/>
      <point x="803" y="475" type="curve" smooth="yes"/>
      <point x="661" y="475" type="line" smooth="yes"/>
      <point x="641" y="475"/>
      <point x="629" y="465"/>
      <point x="629" y="445" type="curve" smooth="yes"/>
      <point x="629" y="427"/>
      <point x="641" y="419"/>
      <point x="660" y="406" type="curve" smooth="yes"/>
      <point x="682" y="391" type="line" smooth="yes"/>
      <point x="698" y="380"/>
      <point x="702" y="366"/>
      <point x="702" y="350" type="curve" smooth="yes"/>
      <point x="702" y="334"/>
      <point x="695" y="313"/>
      <point x="684" y="283" type="curve" smooth="yes"/>
      <point x="605" y="69" type="line" smooth="yes"/>
      <point x="654" y="64" type="line"/>
      <point x="538" y="331" type="line" smooth="yes"/>
      <point x="527" y="357"/>
      <point x="526" y="364"/>
      <point x="526" y="373" type="curve" smooth="yes"/>
      <point x="526" y="388"/>
      <point x="536" y="403"/>
      <point x="551" y="409" type="curve" smooth="yes"/>
      <point x="563" y="414" type="line" smooth="yes"/>
      <point x="577" y="420"/>
      <point x="584" y="430"/>
      <point x="584" y="447" type="curve" smooth="yes"/>
      <point x="584" y="466"/>
      <point x="570" y="475"/>
      <point x="546" y="475" type="curve" smooth="yes"/>
      <point x="345" y="475" type="line" smooth="yes"/>
      <point x="326" y="475"/>
      <point x="317" y="463"/>
      <point x="317" y="447" type="curve" smooth="yes"/>
      <point x="317" y="433"/>
      <point x="324" y="421"/>
      <point x="345" y="410" type="curve" smooth="yes"/>
      <point x="360" y="402"/>
      <point x="370" y="382"/>
      <point x="377" y="366" type="curve" smooth="yes"/>
      <point x="525" y="31" type="line" smooth="yes"/>
      <point x="539" y="0"/>
      <point x="551" y="-10"/>
      <point x="570" y="-10" type="curve" smooth="yes"/>
    </contour>
  </outline>
</glyph>
<glyph name="x" format="2">
  <advance width="564"/>
  <unicode hex="0078"/>
  <outline>
    <contour>
      <point x="208" y="240" type="line"/>
      <point x="123" y="141" type="line" smooth="yes"/>
      <point x="97" y="111"/>
      <point x="78" y="101"/>
      <point x="59" y="92" type="curve" smooth="yes"/>
      <point x="25" y="76"/>
      <point x="8" y="64"/>
      <point x="8" y="42" type="curve" smooth="yes"/>
      <point x="8" y="16"/>
      <point x="18" y="0"/>
      <point x="47" y="0" type="curve" smooth="yes"/>
      <point x="182" y="0" type="line" smooth="yes"/>
      <point x="205" y="0"/>
      <point x="220" y="10"/>
      <point x="220" y="31" type="curve" smooth="yes"/>
      <point x="220" y="49"/>
      <point x="212" y="58"/>
      <point x="197" y="64" type="curve" smooth="yes"/>
      <point x="190" y="67" type="line" smooth="yes"/>
      <point x="176" y="73"/>
      <point x="173" y="80"/>
      <point x="173" y="91" type="curve" smooth="yes"/>
      <point x="173" y="105"/>
      <point x="185" y="124"/>
      <point x="199" y="140" type="curve" smooth="yes"/>
      <point x="262" y="214" type="line"/>
    </contour>
    <contour>
      <point x="271" y="348" type="line" smooth="yes"/>
      <point x="261" y="360"/>
      <point x="258" y="367"/>
      <point x="258" y="376" type="curve" smooth="yes"/>
      <point x="258" y="388"/>
      <point x="265" y="394"/>
      <point x="272" y="398" type="curve" smooth="yes"/>
      <point x="282" y="404" type="line" smooth="yes"/>
      <point x="295" y="412"/>
      <point x="304" y="420"/>
      <point x="304" y="438" type="curve" smooth="yes"/>
      <point x="304" y="457"/>
      <point x="289" y="465"/>
      <point x="268" y="465" type="curve" smooth="yes"/>
      <point x="48" y="465" type="line" smooth="yes"/>
      <point x="24" y="465"/>
      <point x="10" y="453"/>
      <point x="10" y="431" type="curve" smooth="yes"/>
      <point x="10" y="413"/>
      <point x="21" y="401"/>
      <point x="34" y="397" type="curve" smooth="yes"/>
      <point x="44" y="394"/>
      <point x="59" y="385"/>
      <point x="83" y="356" type="curve" smooth="yes"/>
      <point x="280" y="126" type="line" smooth="yes"/>
      <point x="299" y="104"/>
      <point x="303" y="96"/>
      <point x="303" y="88" type="curve" smooth="yes"/>
      <point x="303" y="78"/>
      <point x="296" y="70"/>
      <point x="287" y="65" type="curve" smooth="yes"/>
      <point x="282" y="62" type="line" smooth="yes"/>
      <point x="268" y="53"/>
      <point x="259" y="44"/>
      <point x="259" y="28" type="curve" smooth="yes"/>
      <point x="259" y="9"/>
      <point x="270" y="0"/>
      <point x="289" y="0" type="curve" smooth="yes"/>
      <point x="518" y="0" type="line" smooth="yes"/>
      <point x="545" y="0"/>
      <point x="556" y="13"/>
      <point x="556" y="31" type="curve" smooth="yes"/>
      <point x="556" y="45"/>
      <point x="547" y="60"/>
      <point x="527" y="67" type="curve" smooth="yes"/>
      <point x="510" y="72"/>
      <point x="501" y="80"/>
      <point x="480" y="104" type="curve" smooth="yes"/>
    </contour>
    <contour>
      <point x="337" y="205" type="line"/>
      <point x="458" y="334" type="line" smooth="yes"/>
      <point x="487" y="364"/>
      <point x="508" y="376"/>
      <point x="527" y="388" type="curve" smooth="yes"/>
      <point x="544" y="399"/>
      <point x="551" y="414"/>
      <point x="551" y="431" type="curve" smooth="yes"/>
      <point x="551" y="451"/>
      <point x="540" y="465"/>
      <point x="513" y="465" type="curve" smooth="yes"/>
      <point x="379" y="465" type="line" smooth="yes"/>
      <point x="357" y="465"/>
      <point x="343" y="457"/>
      <point x="343" y="439" type="curve" smooth="yes"/>
      <point x="343" y="427"/>
      <point x="350" y="418"/>
      <point x="369" y="408" type="curve" smooth="yes"/>
      <point x="382" y="401" type="line" smooth="yes"/>
      <point x="396" y="393"/>
      <point x="401" y="381"/>
      <point x="401" y="369" type="curve" smooth="yes"/>
      <point x="401" y="354"/>
      <point x="390" y="340"/>
      <point x="374" y="321" type="curve" smooth="yes"/>
      <point x="295" y="231" type="line"/>
    </contour>
  </outline>
</glyph>
<glyph name="y" format="2">
  <advance width="577"/>
  <unicode hex="0079"/>
  <anchor x="306" y="510" name="center"/>
  <outline>
    <contour>
      <point x="362" y="78" type="line"/>
      <point x="258" y="311" type="line" smooth="yes"/>
      <point x="248" y="333"/>
      <point x="245" y="343"/>
      <point x="245" y="355" type="curve" smooth="yes"/>
      <point x="245" y="375"/>
      <point x="258" y="389"/>
      <point x="273" y="396" type="curve" smooth="yes"/>
      <point x="282" y="400" type="line" smooth="yes"/>
      <point x="295" y="406"/>
      <point x="304" y="421"/>
      <point x="304" y="443" type="curve" smooth="yes"/>
      <point x="304" y="465"/>
      <point x="288" y="475"/>
      <point x="263" y="475" type="curve" smooth="yes"/>
      <point x="28" y="475" type="line" smooth="yes"/>
      <point x="7" y="475"/>
      <point x="-4" y="460"/>
      <point x="-4" y="437" type="curve" smooth="yes"/>
      <point x="-4" y="418"/>
      <point x="8" y="404"/>
      <point x="31" y="393" type="curve" smooth="yes"/>
      <point x="50" y="384"/>
      <point x="59" y="374"/>
      <point x="68" y="355" type="curve" smooth="yes"/>
      <point x="278" y="-90" type="line"/>
    </contour>
    <contour>
      <point x="273" y="-63" type="line" smooth="yes"/>
      <point x="246" y="-134"/>
      <point x="226" y="-150"/>
      <point x="205" y="-150" type="curve" smooth="yes"/>
      <point x="188" y="-150"/>
      <point x="178" y="-140"/>
      <point x="172" y="-129" type="curve" smooth="yes"/>
      <point x="154" y="-93" type="line" smooth="yes"/>
      <point x="136" y="-56"/>
      <point x="114" y="-39"/>
      <point x="74" y="-39" type="curve" smooth="yes"/>
      <point x="38" y="-39"/>
      <point x="7" y="-68"/>
      <point x="7" y="-124" type="curve" smooth="yes"/>
      <point x="7" y="-193"/>
      <point x="57" y="-245"/>
      <point x="145" y="-245" type="curve" smooth="yes"/>
      <point x="236" y="-245"/>
      <point x="301" y="-196"/>
      <point x="344" y="-81" type="curve" smooth="yes"/>
      <point x="477" y="271" type="line" smooth="yes"/>
      <point x="495" y="320"/>
      <point x="521" y="352"/>
      <point x="540" y="368" type="curve" smooth="yes"/>
      <point x="562" y="387"/>
      <point x="577" y="409"/>
      <point x="577" y="425" type="curve" smooth="yes"/>
      <point x="577" y="459"/>
      <point x="560" y="475"/>
      <point x="529" y="475" type="curve" smooth="yes"/>
      <point x="386" y="475" type="line" smooth="yes"/>
      <point x="363" y="475"/>
      <point x="350" y="461"/>
      <point x="350" y="443" type="curve" smooth="yes"/>
      <point x="350" y="422"/>
      <point x="361" y="412"/>
      <point x="378" y="396" type="curve" smooth="yes"/>
      <point x="388" y="387" type="line" smooth="yes"/>
      <point x="405" y="371"/>
      <point x="413" y="361"/>
      <point x="413" y="334" type="curve" smooth="yes"/>
      <point x="413" y="320"/>
      <point x="414" y="306"/>
      <point x="391" y="245" type="curve" smooth="yes"/>
    </contour>
  </outline>
</glyph>
<glyph name="z" format="2">
  <advance width="486"/>
  <unicode hex="007A"/>
  <outline>
    <contour>
      <point x="425" y="373" type="line" smooth="yes"/>
      <point x="447" y="403"/>
      <point x="455" y="420"/>
      <point x="455" y="436" type="curve" smooth="yes"/>
      <point x="455" y="460"/>
      <point x="438.0" y="475.0"/>
      <point x="404" y="475" type="curve" smooth="yes"/>
      <point x="161" y="475" type="line" smooth="yes"/>
      <point x="135" y="475"/>
      <point x="112.82142857142857" y="491.0"/>
      <point x="90" y="491" type="curve" smooth="yes"/>
      <point x="71.64705882352942" y="491.0"/>
      <point x="60" y="482"/>
      <point x="51" y="444" type="curve" smooth="yes"/>
      <point x="36" y="380" type="line" smooth="yes"/>
      <point x="32.77345215908969" y="366.2333958787827"/>
      <point x="30.0" y="355.3"/>
      <point x="30" y="342" type="curve" smooth="yes"/>
      <point x="30" y="323"/>
      <point x="45" y="311"/>
      <point x="61" y="311" type="curve" smooth="yes"/>
      <point x="81" y="311"/>
      <point x="94" y="322"/>
      <point x="114" y="351" type="curve" smooth="yes"/>
      <point x="125" y="366" type="line" smooth="yes"/>
      <point x="149" y="398"/>
      <point x="169" y="408"/>
      <point x="209" y="408.0" type="curve" smooth="yes"/>
      <point x="313" y="408" type="line"/>
      <point x="304" y="444" type="line"/>
      <point x="45" y="97" type="line" smooth="yes"/>
      <point x="33" y="80"/>
      <point x="24" y="62"/>
      <point x="24" y="44" type="curve" smooth="yes"/>
      <point x="24" y="21"/>
      <point x="45" y="-1"/>
      <point x="77" y="-1" type="curve" smooth="yes"/>
      <point x="295" y="-1" type="line" smooth="yes"/>
      <point x="347.0" y="-1.0"/>
      <point x="368" y="-15.0"/>
      <point x="391" y="-15" type="curve" smooth="yes"/>
      <point x="420" y="-15.0"/>
      <point x="437" y="-4"/>
      <point x="444" y="28" type="curve" smooth="yes"/>
      <point x="462" y="106" type="line" smooth="yes"/>
      <point x="467" y="127"/>
      <point x="468.0" y="138"/>
      <point x="468" y="149" type="curve" smooth="yes"/>
      <point x="468" y="171"/>
      <point x="455" y="184"/>
      <point x="436" y="184" type="curve" smooth="yes"/>
      <point x="418" y="184"/>
      <point x="405" y="171"/>
      <point x="390" y="146" type="curve" smooth="yes"/>
      <point x="379" y="128" type="line" smooth="yes"/>
      <point x="353" y="85"/>
      <point x="322.0" y="67.0"/>
      <point x="267" y="67" type="curve" smooth="yes"/>
      <point x="158" y="67" type="line"/>
      <point x="170" y="30" type="line"/>
    </contour>
  </outline>
</glyph>
<glyph name="braceleft" format="2">
  <advance width="419"/>
  <unicode hex="007B"/>
  <outline>
    <contour>
      <point x="225" y="289" type="curve" smooth="yes"/>
      <point x="225" y="304"/>
      <point x="235" y="317"/>
      <point x="250" y="317" type="curve" smooth="yes"/>
      <point x="293" y="317"/>
      <point x="321" y="347"/>
      <point x="321" y="390" type="curve" smooth="yes"/>
      <point x="321" y="465"/>
      <point x="243" y="530"/>
      <point x="243" y="598" type="curve" smooth="yes"/>
      <point x="243" y="649"/>
      <point x="288" y="690"/>
      <point x="341" y="690" type="curve" smooth="yes"/>
      <point x="361" y="690" type="line" smooth="yes"/>
      <point x="387" y="690"/>
      <point x="404" y="702"/>
      <point x="404" y="723" type="curve" smooth="yes"/>
      <point x="404" y="741"/>
      <point x="391" y="755"/>
      <point x="363" y="755" type="curve" smooth="yes"/>
      <point x="291" y="755" type="line" smooth="yes"/>
      <point x="180" y="755"/>
      <point x="101" y="692"/>
      <point x="101" y="600" type="curve" smooth="yes"/>
      <point x="101" y="516"/>
      <point x="180" y="462"/>
      <point x="180" y="394" type="curve" smooth="yes"/>
      <point x="180" y="350"/>
      <point x="146" y="326"/>
      <point x="81" y="326" type="curve" smooth="yes"/>
      <point x="63" y="326"/>
      <point x="47" y="307"/>
      <point x="47" y="290" type="curve" smooth="yes"/>
      <point x="47" y="271"/>
      <point x="61" y="254"/>
      <point x="81" y="254" type="curve" smooth="yes"/>
      <point x="149" y="254"/>
      <point x="180" y="226"/>
      <point x="180" y="181" type="curve" smooth="yes"/>
      <point x="180" y="117"/>
      <point x="101" y="61"/>
      <point x="101" y="-30" type="curve" smooth="yes"/>
      <point x="101" y="-120"/>
      <point x="180" y="-185"/>
      <point x="291" y="-185" type="curve" smooth="yes"/>
      <point x="363" y="-185" type="line" smooth="yes"/>
      <point x="391" y="-185"/>
      <point x="404" y="-167"/>
      <point x="404" y="-153" type="curve" smooth="yes"/>
      <point x="404" y="-129"/>
      <point x="387" y="-120"/>
      <point x="361" y="-120" type="curve" smooth="yes"/>
      <point x="341" y="-120" type="line" smooth="yes"/>
      <point x="288" y="-120"/>
      <point x="243" y="-78"/>
      <point x="243" y="-28" type="curve" smooth="yes"/>
      <point x="243" y="45"/>
      <point x="321" y="114"/>
      <point x="321" y="186" type="curve" smooth="yes"/>
      <point x="321" y="228"/>
      <point x="296" y="262"/>
      <point x="250" y="262" type="curve" smooth="yes"/>
      <point x="235" y="262"/>
      <point x="225" y="271"/>
    </contour>
  </outline>
</glyph>
<glyph name="cent" format="2">
  <advance width="446"/>
  <unicode hex="00A2"/>
  <outline>
    <contour>
      <point x="188" y="40" type="curve" smooth="yes"/>
      <point x="188" y="1"/>
      <point x="211" y="-16"/>
      <point x="238" y="-16" type="curve" smooth="yes"/>
      <point x="267" y="-16"/>
      <point x="289" y="7"/>
      <point x="289" y="40" type="curve" smooth="yes"/>
      <point x="289" y="76"/>
      <point x="258" y="119"/>
      <point x="258" y="338" type="curve" smooth="yes"/>
      <point x="258" y="538"/>
      <point x="294" y="576"/>
      <point x="294" y="609" type="curve" smooth="yes"/>
      <point x="294" y="647"/>
      <point x="268" y="665"/>
      <point x="243" y="665" type="curve" smooth="yes"/>
      <point x="215" y="665"/>
      <point x="190" y="648"/>
      <point x="190" y="611" type="curve" smooth="yes"/>
      <point x="190" y="581"/>
      <point x="227" y="542"/>
      <point x="227" y="338" type="curve" smooth="yes"/>
      <point x="227" y="121"/>
      <point x="188" y="76"/>
    </contour>
    <contour>
      <point x="416" y="426" type="curve" smooth="yes"/>
      <point x="416" y="498"/>
      <point x="353" y="547"/>
      <point x="261" y="547" type="curve" smooth="yes"/>
      <point x="124" y="547"/>
      <point x="30" y="452"/>
      <point x="30" y="318" type="curve" smooth="yes"/>
      <point x="30" y="199"/>
      <point x="119" y="117"/>
      <point x="238" y="117" type="curve" smooth="yes"/>
      <point x="333" y="117"/>
      <point x="408" y="174"/>
      <point x="408" y="241" type="curve" smooth="yes"/>
      <point x="408" y="259"/>
      <point x="398" y="272"/>
      <point x="386" y="272" type="curve" smooth="yes"/>
      <point x="376" y="272"/>
      <point x="365" y="267"/>
      <point x="349" y="251" type="curve" smooth="yes"/>
      <point x="332" y="234"/>
      <point x="305" y="224"/>
      <point x="265" y="224" type="curve" smooth="yes"/>
      <point x="201" y="224"/>
      <point x="151" y="280"/>
      <point x="151" y="360" type="curve" smooth="yes"/>
      <point x="151" y="428"/>
      <point x="185" y="482"/>
      <point x="238" y="482" type="curve" smooth="yes"/>
      <point x="274" y="482"/>
      <point x="295" y="465"/>
      <point x="295" y="441" type="curve" smooth="yes"/>
      <point x="295" y="428" type="line" smooth="yes"/>
      <point x="295" y="388"/>
      <point x="321" y="358"/>
      <point x="357" y="358" type="curve" smooth="yes"/>
      <point x="391" y="358"/>
      <point x="416" y="388"/>
    </contour>
  </outline>
</glyph>
<glyph name="sterling" format="2">
  <advance width="574"/>
  <unicode hex="00A3"/>
  <outline>
    <contour>
      <point x="52" y="317" type="curve" smooth="yes"/>
      <point x="52" y="298"/>
      <point x="63" y="286"/>
      <point x="83" y="286" type="curve" smooth="yes"/>
      <point x="393" y="286" type="line" smooth="yes"/>
      <point x="413.0" y="286.0"/>
      <point x="426" y="298"/>
      <point x="426" y="317" type="curve" smooth="yes"/>
      <point x="426" y="336"/>
      <point x="413.0" y="349.0"/>
      <point x="393" y="349" type="curve" smooth="yes"/>
      <point x="84" y="349" type="line" smooth="yes"/>
      <point x="65" y="349"/>
      <point x="52" y="336"/>
    </contour>
    <contour>
      <point x="175.0" y="94.28571428571429"/>
      <point x="161.06645947838499" y="58.490394795079816"/>
      <point x="142" y="51" type="curve"/>
      <point x="229.56756756756755" y="51.0"/>
      <point x="332.2671480144404" y="-15.0"/>
      <point x="430" y="-15" type="curve" smooth="yes"/>
      <point x="513.4" y="-15.0"/>
      <point x="569.0" y="28.36134453781513"/>
      <point x="569" y="114" type="curve" smooth="yes"/>
      <point x="569.0" y="167.87755102040816"/>
      <point x="533.3373493975904" y="202.0"/>
      <point x="489" y="202" type="curve" smooth="yes"/>
      <point x="442.2236842105263" y="202.0"/>
      <point x="410" y="169.0"/>
      <point x="410" y="126" type="curve" smooth="yes"/>
      <point x="410" y="120" type="line" smooth="yes"/>
      <point x="410" y="91"/>
      <point x="388" y="74"/>
      <point x="360" y="74" type="curve" smooth="yes"/>
      <point x="300.0" y="74.0"/>
      <point x="211.0" y="139.0"/>
      <point x="125" y="139" type="curve" smooth="yes"/>
      <point x="59.0" y="139.0"/>
      <point x="15.0" y="107.0"/>
      <point x="15" y="62" type="curve" smooth="yes"/>
      <point x="15.0" y="16.0"/>
      <point x="55.00000000000001" y="-15.0"/>
      <point x="117" y="-15" type="curve" smooth="yes"/>
      <point x="205.0" y="-15.0"/>
      <point x="309.0" y="54.43396226415095"/>
      <point x="309" y="215" type="curve" smooth="yes"/>
      <point x="309.0" y="297.13289036544853"/>
      <point x="270.0" y="383.208480565371"/>
      <point x="270" y="478" type="curve" smooth="yes"/>
      <point x="270.0" y="570.0540540540541"/>
      <point x="290.0" y="609.0"/>
      <point x="327" y="609" type="curve" smooth="yes"/>
      <point x="356.0" y="609.0"/>
      <point x="377" y="589.7547169811321"/>
      <point x="377" y="549" type="curve" smooth="yes"/>
      <point x="377" y="525" type="line" smooth="yes"/>
      <point x="377" y="476"/>
      <point x="414" y="442"/>
      <point x="455" y="442" type="curve" smooth="yes"/>
      <point x="504" y="442"/>
      <point x="534" y="471"/>
      <point x="534" y="523" type="curve" smooth="yes"/>
      <point x="534.0" y="604.0223880597015"/>
      <point x="472.0" y="664.0"/>
      <point x="337" y="664" type="curve" smooth="yes"/>
      <point x="205.0" y="664.0"/>
      <point x="108.0" y="581.5373134328358"/>
      <point x="108" y="443" type="curve" smooth="yes"/>
      <point x="108.0" y="338.2025723472669"/>
      <point x="175.0" y="243.98784194528875"/>
      <point x="175" y="152" type="curve" smooth="yes"/>
    </contour>
  </outline>
</glyph>
<glyph name="yen" format="2">
  <advance width="611"/>
  <unicode hex="00A5"/>
  <outline>
    <contour>
      <point x="43.0" y="206" type="curve" smooth="yes"/>
      <point x="43.0" y="184.0"/>
      <point x="57.0" y="170.0"/>
      <point x="83" y="170.0" type="curve" smooth="yes"/>
      <point x="518" y="170.0" type="line" smooth="yes"/>
      <point x="542.8181818181819" y="170.0"/>
      <point x="560.0" y="184.0"/>
      <point x="560" y="206" type="curve" smooth="yes"/>
      <point x="560.0" y="227.0"/>
      <point x="542.8181818181819" y="242"/>
      <point x="518" y="242" type="curve" smooth="yes"/>
      <point x="84" y="242" type="line" smooth="yes"/>
      <point x="60.57142857142857" y="242"/>
      <point x="43.0" y="227.0"/>
    </contour>
    <contour>
      <point x="43" y="325" type="curve" smooth="yes"/>
      <point x="43.0" y="303.0"/>
      <point x="57.0" y="290"/>
      <point x="83" y="290" type="curve" smooth="yes"/>
      <point x="267" y="290" type="line"/>
      <point x="239" y="361" type="line"/>
      <point x="84" y="361" type="line" smooth="yes"/>
      <point x="60.57142857142857" y="361"/>
      <point x="43.0" y="346.0"/>
    </contour>
    <contour>
      <point x="384" y="290" type="line"/>
      <point x="518" y="290" type="line" smooth="yes"/>
      <point x="542.8181818181819" y="290"/>
      <point x="560.0" y="303.0"/>
      <point x="560" y="325" type="curve" smooth="yes"/>
      <point x="560.0" y="346.0"/>
      <point x="542.8181818181819" y="361"/>
      <point x="518" y="361" type="curve" smooth="yes"/>
      <point x="419" y="361" type="line"/>
    </contour>
    <component base="Y" xScale="0.9135172474836407" yScale="0.9135172474836407" xOffset="10"/>
  </outline>
</glyph>
<glyph name="section" format="2">
  <advance width="552"/>
  <unicode hex="00A7"/>
  <outline>
    <contour>
      <point x="289" y="-169" type="curve" smooth="yes"/>
      <point x="231" y="-169"/>
      <point x="177" y="-148"/>
      <point x="136" y="-77" type="curve" smooth="yes"/>
      <point x="114" y="-41"/>
      <point x="103" y="-30"/>
      <point x="86" y="-30" type="curve" smooth="yes"/>
      <point x="63" y="-30"/>
      <point x="53" y="-44"/>
      <point x="53" y="-66" type="curve" smooth="yes"/>
      <point x="53" y="-77"/>
      <point x="58" y="-92"/>
      <point x="62" y="-110" type="curve" smooth="yes"/>
      <point x="82" y="-201" type="line" smooth="yes"/>
      <point x="89" y="-234"/>
      <point x="102" y="-244"/>
      <point x="115" y="-244" type="curve" smooth="yes"/>
      <point x="130" y="-244"/>
      <point x="141" y="-220"/>
      <point x="157" y="-220" type="curve" smooth="yes"/>
      <point x="178" y="-220"/>
      <point x="226" y="-243"/>
      <point x="287" y="-243" type="curve" smooth="yes"/>
      <point x="421" y="-243"/>
      <point x="505" y="-163"/>
      <point x="505" y="-68" type="curve" smooth="yes"/>
      <point x="505" y="4"/>
      <point x="468" y="75"/>
      <point x="331" y="133" type="curve" smooth="yes"/>
      <point x="201" y="188"/>
      <point x="177" y="230"/>
      <point x="177" y="263" type="curve" smooth="yes"/>
      <point x="177" y="310"/>
      <point x="208" y="341"/>
      <point x="245" y="341" type="curve"/>
      <point x="242" y="406" type="line"/>
      <point x="130" y="406"/>
      <point x="40" y="322"/>
      <point x="40" y="228" type="curve" smooth="yes"/>
      <point x="40" y="144"/>
      <point x="108" y="83"/>
      <point x="218" y="38" type="curve" smooth="yes"/>
      <point x="336" y="-11"/>
      <point x="363" y="-45"/>
      <point x="363" y="-94" type="curve" smooth="yes"/>
      <point x="363" y="-134"/>
      <point x="336" y="-169"/>
    </contour>
    <contour>
      <point x="329" y="109" type="curve"/>
      <point x="347" y="45" type="line"/>
      <point x="454" y="45"/>
      <point x="520" y="123"/>
      <point x="520" y="214" type="curve" smooth="yes"/>
      <point x="520" y="291"/>
      <point x="476" y="363"/>
      <point x="347" y="423" type="curve" smooth="yes"/>
      <point x="214" y="485"/>
      <point x="181" y="520"/>
      <point x="181" y="565" type="curve" smooth="yes"/>
      <point x="181" y="611"/>
      <point x="221" y="641"/>
      <point x="272" y="641" type="curve" smooth="yes"/>
      <point x="324" y="641"/>
      <point x="380" y="620"/>
      <point x="433" y="543" type="curve" smooth="yes"/>
      <point x="450" y="516"/>
      <point x="466" y="500"/>
      <point x="488" y="500" type="curve" smooth="yes"/>
      <point x="512" y="500"/>
      <point x="521" y="514"/>
      <point x="521" y="536" type="curve" smooth="yes"/>
      <point x="521" y="544"/>
      <point x="516" y="558"/>
      <point x="512" y="570" type="curve" smooth="yes"/>
      <point x="472" y="682" type="line" smooth="yes"/>
      <point x="463" y="707"/>
      <point x="447" y="716"/>
      <point x="431" y="716" type="curve" smooth="yes"/>
      <point x="415" y="716"/>
      <point x="408" y="693"/>
      <point x="388" y="693" type="curve" smooth="yes"/>
      <point x="368" y="693"/>
      <point x="330" y="715"/>
      <point x="275" y="715" type="curve" smooth="yes"/>
      <point x="146" y="715"/>
      <point x="45" y="627"/>
      <point x="45" y="530" type="curve" smooth="yes"/>
      <point x="45" y="444"/>
      <point x="96" y="375"/>
      <point x="232" y="318" type="curve" smooth="yes"/>
      <point x="360" y="264"/>
      <point x="393" y="217"/>
      <point x="393" y="184" type="curve" smooth="yes"/>
      <point x="393" y="140"/>
      <point x="369" y="109"/>
    </contour>
  </outline>
</glyph>
<glyph name="copyright" format="2">
  <advance width="761"/>
  <unicode hex="00A9"/>
  <outline>
    <contour>
      <point x="380" y="-15" type="curve" smooth="yes"/>
      <point x="195" y="-15"/>
      <point x="50" y="136"/>
      <point x="50" y="321" type="curve" smooth="yes"/>
      <point x="50" y="506"/>
      <point x="195" y="649"/>
      <point x="380" y="649" type="curve" smooth="yes"/>
      <point x="566" y="649"/>
      <point x="711" y="506"/>
      <point x="711" y="321" type="curve" smooth="yes"/>
      <point x="711" y="136"/>
      <point x="566" y="-15"/>
    </contour>
    <contour>
      <point x="382" y="51" type="curve" smooth="yes"/>
      <point x="526" y="51"/>
      <point x="651" y="171"/>
      <point x="651" y="322" type="curve" smooth="yes"/>
      <point x="651" y="469"/>
      <point x="526" y="586"/>
      <point x="382" y="586" type="curve" smooth="yes"/>
      <point x="232.0" y="586"/>
      <point x="116" y="469"/>
      <point x="116" y="322" type="curve" smooth="yes"/>
      <point x="116" y="171"/>
      <point x="232.0" y="51"/>
    </contour>
    <component base="C" xScale="0.5457617839255475" yScale="0.5457617839255475" xOffset="184" yOffset="129"/>
  </outline>
</glyph>
<glyph name="logicalnot" format="2">
  <advance width="548"/>
  <unicode hex="00AC"/>
  <outline>
    <contour>
      <point x="431" y="134" type="curve" smooth="yes"/>
      <point x="459" y="134"/>
      <point x="478" y="152"/>
      <point x="478" y="184" type="curve" smooth="yes"/>
      <point x="478" y="363" type="line" smooth="yes"/>
      <point x="478" y="392"/>
      <point x="459" y="410"/>
      <point x="431" y="410" type="curve" smooth="yes"/>
      <point x="402" y="410"/>
      <point x="382" y="390"/>
      <point x="382" y="363" type="curve" smooth="yes"/>
      <point x="382" y="185" type="line" smooth="yes"/>
      <point x="382" y="155"/>
      <point x="402" y="134"/>
    </contour>
    <component base="minus" xOffset="10" yOffset="60"/>
  </outline>
</glyph>
